<svg width="358" height="367" viewBox="0 0 358 367" fill="none" xmlns="http://www.w3.org/2000/svg">
<g opacity="0.3">
<path d="M21.6894 238.719C31.6384 223.209 45.38 210.501 61.6107 201.801C126.818 164.385 232.569 164.385 297.776 201.801C314.019 210.483 327.765 223.195 337.697 238.719H346.478V272.893C345.295 296.653 329.04 320.163 297.651 338.311C232.444 375.727 126.693 375.727 61.4861 338.311C30.3462 320.163 13.7798 296.653 12.5342 272.893V238.719H21.6894Z" fill="#D6B1FF"/>
<g opacity="0.25">
<path opacity="0.25" d="M21.6894 238.719C31.6384 223.209 45.38 210.501 61.6107 201.801C126.818 164.385 232.569 164.385 297.776 201.801C314.019 210.483 327.765 223.195 337.697 238.719H346.478V272.893C345.295 296.653 329.04 320.163 297.651 338.311C232.444 375.727 126.693 375.727 61.4861 338.311C30.3462 320.163 13.7798 296.653 12.5342 272.893V238.719H21.6894Z" fill="black"/>
</g>
<g opacity="0.1">
<path opacity="0.1" d="M179.444 173.49C222.168 173.49 264.954 182.907 297.775 201.802C314.019 210.484 327.765 223.196 337.697 238.72H346.478V272.894C345.295 296.654 329.04 320.164 297.651 338.311C265.079 357.02 222.292 366.623 179.319 366.623L179.444 173.49Z" fill="black"/>
</g>
<g opacity="0.1">
<path opacity="0.1" d="M270.808 189.141C280.077 192.567 289.054 196.738 297.651 201.614C313.895 210.295 327.64 223.007 337.572 238.532H346.478V272.706C345.295 296.465 329.04 319.976 297.651 338.123C289.067 343.024 280.088 347.196 270.808 350.595V189.141Z" fill="black"/>
</g>
<g opacity="0.5">
<path opacity="0.5" d="M88.204 189.141C78.9352 192.567 69.9584 196.738 61.3614 201.614C45.1994 210.4 31.5444 223.172 21.6892 238.719H12.6587V272.893C13.9043 296.652 30.2215 320.163 61.6105 338.31C70.1942 343.211 79.1732 347.383 88.4531 350.782L88.204 189.141Z" fill="#D6B1FF"/>
</g>
<path d="M61.3612 170.434C126.568 133.017 232.319 133.017 297.526 170.434C362.733 207.851 362.795 269.277 297.526 307.005C232.257 344.734 126.568 344.734 61.3612 307.005C-3.84573 269.277 -3.84573 208.162 61.3612 170.434Z" fill="#D6B1FF"/>
<g opacity="0.2">
<path opacity="0.2" d="M61.3612 170.434C126.568 133.017 232.319 133.017 297.526 170.434C362.733 207.851 362.795 269.277 297.526 307.005C232.257 344.734 126.568 344.734 61.3612 307.005C-3.84573 269.277 -3.84573 208.162 61.3612 170.434Z" fill="black"/>
</g>
<path d="M102.653 195.44C126.649 184.131 152.928 178.518 179.444 179.039C206.003 178.492 232.328 184.106 256.36 195.44C278.22 206.665 290.24 222.068 290.24 238.719C290.24 255.369 278.22 270.772 256.36 281.997C232.343 293.383 206.011 299.019 179.444 298.461C152.92 298.993 126.634 293.358 102.653 281.997C80.8552 270.772 68.7729 255.431 68.7729 238.719C68.7729 222.006 80.7306 206.665 102.653 195.44Z" fill="#D6B1FF"/>
<g opacity="0.4">
<path opacity="0.4" d="M102.653 195.44C126.649 184.131 152.928 178.518 179.444 179.039C206.003 178.492 232.328 184.106 256.36 195.44C278.22 206.665 290.24 222.068 290.24 238.719C290.24 255.369 278.22 270.772 256.36 281.997C232.343 293.383 206.011 299.019 179.444 298.461C152.92 298.993 126.634 293.358 102.653 281.997C80.8552 270.772 68.7729 255.431 68.7729 238.719C68.7729 222.006 80.7306 206.665 102.653 195.44Z" fill="black"/>
</g>
<path d="M64.9739 176.794C95.4287 159.146 136.097 149.418 179.444 149.418C222.791 149.418 263.459 159.146 293.914 176.794C323.123 193.632 339.192 215.645 339.192 238.719C339.192 261.793 323.123 283.807 293.914 300.707C263.459 318.292 222.791 328.021 179.444 328.021C136.097 328.021 95.4287 318.292 64.9739 300.707C35.827 283.807 19.6965 261.793 19.6965 238.719C19.6965 215.645 35.827 193.632 64.9739 176.794ZM102.342 281.998C126.361 293.378 152.691 299.013 179.257 298.461C205.824 299.02 232.156 293.384 256.173 281.998C278.033 270.773 290.053 255.432 290.053 238.719C290.053 222.006 278.033 206.665 256.173 195.44C232.198 184.134 205.94 178.522 179.444 179.039C152.928 178.519 126.649 184.131 102.653 195.44C80.8552 206.665 68.7729 222.069 68.7729 238.719C68.7729 255.37 80.7307 270.773 102.653 281.998H102.342Z" fill="#D6B1FF"/>
<g opacity="0.2">
<path opacity="0.2" d="M105.144 276.884C64.1642 255.806 64.1642 221.632 105.144 200.554C146.124 179.476 212.701 179.476 253.744 200.554C294.786 221.632 294.724 255.806 253.744 276.884C212.764 297.962 146.249 297.962 105.144 276.884Z" fill="black"/>
</g>
<path d="M105.144 276.884C64.1642 255.806 64.1642 221.632 105.144 200.554C146.124 179.476 212.701 179.476 253.744 200.554C294.786 221.632 294.724 255.806 253.744 276.884C212.764 297.962 146.249 297.962 105.144 276.884Z" fill="#D6B1FF"/>
<g opacity="0.6">
<path opacity="0.6" d="M105.144 276.884C64.1642 255.806 64.1642 221.632 105.144 200.554C146.124 179.476 212.701 179.476 253.744 200.554C294.786 221.632 294.724 255.806 253.744 276.884C212.764 297.962 146.249 297.962 105.144 276.884Z" fill="black"/>
</g>
<path d="M105.144 214.835C146.187 193.757 212.702 193.757 253.744 214.835C270.684 223.565 280.649 234.541 283.576 246.015C280.649 257.365 270.684 268.278 253.744 277.196C212.702 298.274 146.187 298.274 105.144 277.196C88.2043 268.465 78.3018 257.552 75.3747 246.015C78.3018 234.541 88.2043 223.565 105.144 214.835Z" fill="#D6B1FF"/>
<g opacity="0.5">
<path opacity="0.5" d="M105.144 214.835C146.187 193.757 212.702 193.757 253.744 214.835C270.684 223.565 280.649 234.541 283.576 246.015C280.649 257.365 270.684 268.278 253.744 277.196C212.702 298.274 146.187 298.274 105.144 277.196C88.2043 268.465 78.3018 257.552 75.3747 246.015C78.3018 234.541 88.2043 223.565 105.144 214.835Z" fill="black"/>
</g>
<path d="M169.479 201.364V216.83L174.773 222.38L184.489 232.545V216.518L169.479 201.364Z" fill="#D6B1FF"/>
<g opacity="0.3">
<path opacity="0.3" d="M169.479 201.364V216.83L174.773 222.38L184.489 232.545V216.518L169.479 201.364Z" fill="black"/>
</g>
<path d="M184.489 216.456V225.561C189.342 227.395 194.343 228.814 199.436 229.802C201.491 230.222 203.609 230.222 205.664 229.802C206.716 229.477 207.737 229.059 208.716 228.554C212.39 226.309 213.013 223.004 205.975 218.951C202.822 216.919 199.246 215.637 195.521 215.205C191.797 214.772 188.023 215.201 184.489 216.456Z" fill="#D6B1FF"/>
<g opacity="0.45">
<path opacity="0.45" d="M184.489 216.456V225.561C189.342 227.395 194.343 228.814 199.436 229.802C201.491 230.222 203.609 230.222 205.664 229.802C206.716 229.477 207.737 229.059 208.716 228.554C212.39 226.309 213.013 223.004 205.975 218.951C202.822 216.919 199.246 215.637 195.521 215.205C191.797 214.772 188.023 215.201 184.489 216.456Z" fill="black"/>
</g>
<path d="M114.735 260.11V273.393L131.613 283.184L144.069 275.95C159.247 282.994 176.584 283.779 192.336 278.132V264.787L184.675 257.179L192.336 259.299C198.541 261.074 205.035 261.608 211.447 260.87C217.859 260.131 224.062 258.135 229.703 254.996C237.239 250.631 240.789 245.891 240.727 240.965V227.994L239.668 222.693L244.215 220.012V206.479L231.759 213.713C234.301 215.224 236.457 217.307 238.057 219.796C239.657 222.285 240.656 225.113 240.976 228.056C240.976 232.858 237.302 237.473 229.953 241.776C213.573 251.255 197.318 248.012 182.495 243.335C168.669 238.782 158.58 233.482 150.608 238.096C145.626 240.965 147.12 244.332 152.726 247.638C156.325 249.628 160.323 250.79 164.428 251.038C168.533 251.286 172.641 250.615 176.454 249.072L192.398 264.849C189.519 265.942 186.563 266.818 183.554 267.468C170.234 269.999 156.457 268.321 144.131 262.667L131.675 269.901L114.735 260.11Z" fill="#D6B1FF"/>
<g opacity="0.35">
<path opacity="0.35" d="M240.914 228.056C240.914 232.858 237.24 237.473 229.891 241.776C213.511 251.255 197.256 248.012 182.434 243.335C168.607 238.783 158.518 233.482 150.546 238.097C145.564 240.965 147.059 244.333 152.664 247.638C156.264 249.629 160.262 250.79 164.366 251.039C168.471 251.287 172.58 250.615 176.392 249.072L192.336 264.85C189.458 265.943 186.501 266.818 183.492 267.469C170.172 269.999 156.395 268.321 144.069 262.667L131.613 269.901L114.735 260.11V273.393L131.613 283.184L144.069 275.95C159.248 282.995 176.585 283.779 192.336 278.133V264.787L184.676 257.179L192.336 259.299C198.542 261.074 205.036 261.608 211.447 260.87C217.859 260.132 224.063 258.136 229.704 254.996C237.24 250.631 240.79 245.892 240.727 240.965V227.994L239.669 222.693" fill="black"/>
</g>
<g opacity="0.45">
<path opacity="0.45" d="M244.152 206.479V219.825L239.668 222.693C237.708 219.2 235.008 216.177 231.759 213.838L244.152 206.479Z" fill="black"/>
</g>
<path d="M117.538 251.566C117.533 253.707 117.956 255.827 118.783 257.802L127.253 252.938C124.702 251.798 122.482 250.027 120.804 247.79C119.126 245.553 118.045 242.925 117.662 240.154C117.6 243.896 117.538 251.254 117.538 251.566Z" fill="#D6B1FF"/>
<g opacity="0.3">
<path opacity="0.3" d="M117.538 251.566C117.533 253.707 117.956 255.827 118.783 257.802L127.253 252.938C124.702 251.798 122.482 250.027 120.804 247.79C119.126 245.553 118.045 242.925 117.662 240.154C117.6 243.896 117.538 251.254 117.538 251.566Z" fill="black"/>
</g>
<path d="M117.6 258.674L127.253 253.062C124.404 251.777 121.981 249.703 120.27 247.084C118.56 244.465 117.633 241.411 117.6 238.282C117.569 237.846 117.569 237.409 117.6 236.973C118.036 232.358 121.399 227.93 128.374 223.877C135.183 219.933 142.93 217.908 150.795 218.015H152.912H154.905H156.649H157.397H158.705C162.383 218.549 166.024 219.32 169.603 220.322C171.347 220.759 173.029 221.258 174.71 221.819C176.392 222.38 179.506 223.316 181.748 224.126L184.426 224.999C189.258 226.915 194.263 228.356 199.373 229.302C201.431 229.694 203.544 229.694 205.601 229.302C206.649 228.995 207.654 228.555 208.591 227.993C212.39 225.872 212.95 222.567 205.913 218.451C202.706 216.458 199.089 215.219 195.334 214.83C191.579 214.442 187.786 214.912 184.239 216.206L169.23 201.053C184.254 196.434 200.446 197.477 214.756 203.984L227.212 196.812L244.152 206.665L231.696 213.837C234.234 215.359 236.39 217.443 237.999 219.93C239.608 222.416 240.626 225.238 240.976 228.18C240.976 232.982 237.302 237.596 229.89 241.899C213.511 251.378 197.256 248.135 182.433 243.396C168.607 238.906 158.518 233.605 150.546 238.22C145.563 241.088 147.12 244.456 152.663 247.761C156.256 249.776 160.259 250.947 164.37 251.185C168.481 251.423 172.592 250.721 176.392 249.133L192.336 264.973C189.475 266.057 186.541 266.932 183.554 267.592C178.493 268.603 173.325 268.98 168.171 268.715C159.852 268.172 151.693 266.167 144.069 262.79L131.613 270.024L114.797 260.296L117.6 258.674Z" fill="#D6B1FF"/>
<path d="M144.069 262.79V276.136L131.613 283.37V270.024L144.069 262.79Z" fill="#D6B1FF"/>
<g opacity="0.45">
<path opacity="0.45" d="M144.069 262.79V276.136L131.613 283.37V270.024L144.069 262.79Z" fill="black"/>
</g>
<path d="M244.152 206.54L227.212 196.687L214.694 203.859L227.088 198.683L244.152 206.54Z" fill="#F5F5F5"/>
<path d="M206.162 218.763C202.955 216.769 199.338 215.531 195.583 215.142C191.829 214.753 188.035 215.224 184.489 216.518L169.479 201.364L184.489 214.959C188.128 213.71 192.024 213.404 195.814 214.069C199.604 214.734 203.163 216.349 206.162 218.763Z" fill="#F5F5F5"/>
<path d="M192.336 264.974C189.475 266.058 186.541 266.933 183.554 267.593C178.493 268.604 173.325 268.981 168.171 268.716C175.619 268.769 182.997 267.283 189.844 264.35L176.392 249.134L192.336 264.974Z" fill="#F5F5F5"/>
<path d="M144.069 262.791L131.613 268.465L114.797 260.296L131.613 270.024L144.069 262.791Z" fill="#F5F5F5"/>
<path d="M292.606 179.039C248.388 152.099 179.444 149.418 179.444 149.418C223.04 149.418 263.459 159.146 293.914 176.794C323.123 193.632 339.191 215.646 339.191 238.719C339.316 238.719 337.634 206.354 292.606 179.039Z" fill="#F5F5F5"/>
<path d="M192.336 334.942C145.439 337 97.2345 327.708 61.5482 306.942C24.1804 285.365 8.23676 256.117 13.6551 227.992C13.6551 227.992 6.67975 273.828 64.3508 305.196C122.022 336.563 192.336 334.942 192.336 334.942Z" fill="#F5F5F5"/>
<path d="M32.8997 190.389C42.8316 174.864 56.5774 162.152 72.821 153.471C138.028 116.054 243.779 116.054 308.986 153.471C325.229 162.152 338.975 174.864 348.907 190.389H358V224.563C356.817 248.322 340.562 271.895 309.173 289.98C243.966 327.396 138.215 327.396 73.0078 289.98C41.868 271.895 25.3015 248.322 24.0559 224.563V190.389H32.8997Z" fill="#D6B1FF"/>
<g opacity="0.25">
<path opacity="0.25" d="M32.8997 190.389C42.8316 174.864 56.5774 162.152 72.821 153.471C138.028 116.054 243.779 116.054 308.986 153.471C325.229 162.152 338.975 174.864 348.907 190.389H358V224.563C356.817 248.322 340.562 271.895 309.173 289.98C243.966 327.396 138.215 327.396 73.0078 289.98C41.868 271.895 25.3015 248.322 24.0559 224.563V190.389H32.8997Z" fill="black"/>
</g>
<g opacity="0.1">
<path opacity="0.1" d="M190.903 125.159C233.627 125.159 276.414 134.576 309.235 153.472C325.479 162.153 339.224 174.865 349.156 190.39H358V224.563C356.817 248.323 340.562 271.896 309.173 289.981C276.6 308.689 233.814 318.293 190.841 318.293L190.903 125.159Z" fill="black"/>
</g>
<g opacity="0.1">
<path opacity="0.1" d="M282.143 140.874C291.423 144.273 300.402 148.445 308.986 153.346C325.229 162.028 338.975 174.739 348.907 190.264H358V224.438C356.817 248.198 340.562 271.77 309.173 289.855C300.576 294.73 291.599 298.901 282.33 302.327L282.143 140.874Z" fill="black"/>
</g>
<g opacity="0.5">
<path opacity="0.5" d="M99.6638 140.874C90.3838 144.273 81.4048 148.445 72.8212 153.346C56.5776 162.028 42.8318 174.739 32.8999 190.264H23.8693V224.438C25.1149 248.198 41.4322 271.77 72.8212 289.855C81.4182 294.73 90.395 298.901 99.6638 302.327V140.874Z" fill="#D6B1FF"/>
</g>
<path d="M72.8207 122.166C138.028 84.4375 243.779 84.4375 308.986 122.166C374.192 159.895 374.255 221.009 308.986 258.675C243.716 296.341 138.028 296.404 72.8207 258.675C7.6138 220.947 7.55154 159.832 72.8207 122.166Z" fill="#D6B1FF"/>
<g opacity="0.2">
<path opacity="0.2" d="M72.8207 122.166C138.028 84.4375 243.779 84.4375 308.986 122.166C374.192 159.895 374.255 221.009 308.986 258.675C243.716 296.341 138.028 296.404 72.8207 258.675C7.6138 220.947 7.55154 159.832 72.8207 122.166Z" fill="black"/>
</g>
<path d="M113.988 147.11C138.022 135.782 164.345 130.169 190.903 130.709C217.461 130.169 243.785 135.782 267.819 147.11C289.492 158.335 301.948 173.738 301.948 190.451C301.948 207.164 289.492 222.692 267.819 233.73C243.785 245.057 217.461 250.671 190.903 250.131C164.345 250.671 138.022 245.057 113.988 233.73C92.1277 222.505 80.1078 207.102 80.1078 190.451C80.1078 173.801 92.1277 158.335 113.988 147.11Z" fill="#D6B1FF"/>
<g opacity="0.4">
<path opacity="0.4" d="M113.988 147.11C138.022 135.782 164.345 130.169 190.903 130.709C217.461 130.169 243.785 135.782 267.819 147.11C289.492 158.335 301.948 173.738 301.948 190.451C301.948 207.164 289.492 222.692 267.819 233.73C243.785 245.057 217.461 250.671 190.903 250.131C164.345 250.671 138.022 245.057 113.988 233.73C92.1277 222.505 80.1078 207.102 80.1078 190.451C80.1078 173.801 92.1277 158.335 113.988 147.11Z" fill="black"/>
</g>
<path d="M76.4333 128.464C106.888 110.816 147.557 101.15 190.904 101.15C234.25 101.15 274.919 110.816 305.374 128.464C334.583 145.364 350.651 167.315 350.651 190.451C350.651 213.587 334.583 235.539 305.374 252.376C274.919 269.962 234.25 279.69 190.904 279.69C147.557 279.69 106.888 269.962 76.4333 252.376C47.2241 235.539 31.1559 213.525 31.1559 190.451C31.1559 167.378 47.2241 145.364 76.4333 128.464ZM113.801 233.73C137.835 245.058 164.159 250.671 190.717 250.131C217.275 250.671 243.598 245.058 267.632 233.73C289.492 222.692 301.948 207.102 301.948 190.451C301.948 173.801 289.928 158.335 268.068 147.11C244.034 135.783 217.711 130.169 191.153 130.709C164.595 130.169 138.271 135.783 114.237 147.11C92.377 158.335 80.3569 173.738 80.3569 190.451C80.3569 207.164 92.1278 222.692 113.988 233.73H113.801Z" fill="#D6B1FF"/>
<g opacity="0.2">
<path opacity="0.2" d="M116.604 228.553C75.6236 207.475 75.6236 173.301 116.604 152.223C157.584 131.145 224.161 131.145 265.203 152.223C306.246 173.301 306.183 207.475 265.203 228.553C224.223 249.631 157.646 249.631 116.604 228.553Z" fill="black"/>
</g>
<path d="M116.604 228.553C75.6236 207.475 75.6236 173.301 116.604 152.223C157.584 131.145 224.161 131.145 265.203 152.223C306.246 173.301 306.183 207.475 265.203 228.553C224.223 249.631 157.646 249.631 116.604 228.553Z" fill="#D6B1FF"/>
<g opacity="0.6">
<path opacity="0.6" d="M116.604 228.553C75.6236 207.475 75.6236 173.301 116.604 152.223C157.584 131.145 224.161 131.145 265.203 152.223C306.246 173.301 306.183 207.475 265.203 228.553C224.223 249.631 157.646 249.631 116.604 228.553Z" fill="black"/>
</g>
<path d="M116.603 166.567C157.646 145.489 224.161 145.489 265.203 166.567C282.143 175.235 292.045 186.211 295.035 197.748C292.045 209.097 282.143 220.073 265.203 228.928C224.161 250.006 157.646 250.006 116.603 228.928C99.6634 220.26 89.7609 209.284 86.7714 197.748C89.7609 186.211 99.6634 175.235 116.603 166.567Z" fill="#D6B1FF"/>
<g opacity="0.5">
<path opacity="0.5" d="M116.603 166.567C157.646 145.489 224.161 145.489 265.203 166.567C282.143 175.235 292.045 186.211 295.035 197.748C292.045 209.097 282.143 220.073 265.203 228.928C224.161 250.006 157.646 250.006 116.603 228.928C99.6634 220.26 89.7609 209.284 86.7714 197.748C89.7609 186.211 99.6634 175.235 116.603 166.567Z" fill="black"/>
</g>
<path d="M180.939 153.034V168.499L186.233 174.05L195.948 184.214V168.188L180.939 153.034Z" fill="#D6B1FF"/>
<g opacity="0.3">
<path opacity="0.3" d="M180.939 153.034V168.499L186.233 174.05L195.948 184.214V168.188L180.939 153.034Z" fill="black"/>
</g>
<path d="M196.073 168.188V177.293C200.924 179.135 205.925 180.554 211.02 181.533C214.253 182.164 217.604 181.634 220.486 180.036C224.161 177.792 224.783 174.549 217.684 170.433C214.499 168.414 210.891 167.16 207.141 166.771C203.392 166.381 199.603 166.867 196.073 168.188Z" fill="#D6B1FF"/>
<g opacity="0.45">
<path opacity="0.45" d="M196.073 168.188V177.293C200.924 179.135 205.925 180.554 211.02 181.533C214.253 182.164 217.604 181.634 220.486 180.036C224.161 177.792 224.783 174.549 217.684 170.433C214.499 168.414 210.891 167.16 207.141 166.771C203.392 166.381 199.603 166.867 196.073 168.188Z" fill="black"/>
</g>
<path d="M126.195 211.965V225.311L143.073 235.164L155.529 227.93C170.699 235.008 188.049 235.793 203.795 230.113V216.455L196.073 209.034L203.733 211.155C209.939 212.93 216.433 213.463 222.844 212.725C229.256 211.987 235.46 209.991 241.101 206.852C248.637 202.486 252.187 197.747 252.124 192.82V179.849L250.754 174.174L255.363 171.493V158.21L242.907 165.382C245.449 166.893 247.605 168.975 249.205 171.465C250.805 173.954 251.804 176.782 252.124 179.725C252.124 184.526 248.45 189.141 241.101 193.444C224.721 202.923 208.466 199.68 193.644 195.003C179.755 190.513 169.728 185.15 161.757 189.765C156.774 192.633 158.269 196.001 163.874 199.368C167.477 201.353 171.478 202.507 175.583 202.744C179.689 202.981 183.795 202.297 187.603 200.74L203.795 216.455C200.927 217.577 197.968 218.453 194.952 219.075C181.637 221.595 167.869 219.94 155.529 214.335L143.073 221.507L126.195 211.965Z" fill="#D6B1FF"/>
<g opacity="0.35">
<path opacity="0.35" d="M252.124 179.725C252.124 184.527 248.45 189.142 241.101 193.445C224.721 202.924 208.466 199.681 193.644 195.004C179.755 190.514 169.728 185.151 161.757 189.765C156.774 192.634 158.269 196.002 163.874 199.369C167.477 201.354 171.478 202.507 175.583 202.745C179.689 202.982 183.795 202.298 187.603 200.741L203.795 216.456C200.926 217.577 197.968 218.453 194.952 219.075C181.637 221.596 167.869 219.941 155.529 214.336L143.073 221.507L126.195 211.779V225.124L143.073 235.164L155.529 227.93C170.699 235.009 188.049 235.793 203.795 230.113V216.456L196.073 209.035L203.733 211.155C209.939 212.93 216.433 213.464 222.844 212.726C229.256 211.987 235.46 209.992 241.101 206.852C248.637 202.487 252.187 197.748 252.124 192.821V179.85L250.754 174.175" fill="black"/>
</g>
<g opacity="0.45">
<path opacity="0.45" d="M255.612 158.21V171.493L251.003 174.175C249.025 170.694 246.328 167.675 243.094 165.319L255.612 158.21Z" fill="black"/>
</g>
<path d="M128.997 203.298C128.984 205.44 129.408 207.563 130.243 209.535L138.713 204.733C136.16 203.578 133.941 201.794 132.264 199.547C130.586 197.301 129.505 194.665 129.122 191.886C129.06 195.628 128.997 202.924 128.997 203.298Z" fill="#D6B1FF"/>
<g opacity="0.3">
<path opacity="0.3" d="M128.997 203.298C128.984 205.44 129.408 207.563 130.243 209.535L138.713 204.733C136.16 203.578 133.941 201.794 132.264 199.547C130.586 197.301 129.505 194.665 129.122 191.886C129.06 195.628 128.997 202.924 128.997 203.298Z" fill="black"/>
</g>
<path d="M129.06 210.219L138.651 204.669C135.813 203.358 133.404 201.268 131.707 198.64C130.009 196.013 129.091 192.957 129.06 189.827C129.029 189.391 129.029 188.953 129.06 188.517C129.71 185.639 131.047 182.962 132.956 180.714C134.864 178.466 137.289 176.714 140.021 175.609C146.845 171.702 154.582 169.679 162.442 169.747H164.559H166.552C167.133 169.716 167.715 169.716 168.296 169.747H169.043C169.479 169.717 169.916 169.717 170.351 169.747C174.028 170.26 177.669 171.01 181.25 171.992C182.932 172.428 184.675 172.927 186.357 173.488L193.395 175.796L196.073 176.731C200.914 178.603 205.918 180.022 211.02 180.972C213.075 181.392 215.193 181.392 217.248 180.972C218.284 180.659 219.286 180.241 220.237 179.724C224.036 177.542 224.597 174.237 217.559 170.121C214.352 168.127 210.735 166.889 206.981 166.5C203.226 166.111 199.432 166.582 195.886 167.876L180.876 152.722C195.757 148.036 211.833 148.945 226.091 155.279L238.547 148.045L255.55 157.898L243.094 165.07C245.632 166.592 247.788 168.676 249.397 171.163C251.005 173.649 252.024 176.471 252.374 179.413C252.374 184.215 248.699 188.892 241.288 193.132C224.908 202.611 208.653 199.368 193.768 194.691C180.004 190.139 169.915 184.838 161.943 189.453C156.961 192.322 158.456 195.689 164.061 198.994C167.655 201.002 171.654 202.173 175.762 202.422C179.87 202.67 183.981 201.989 187.789 200.428L203.795 216.455C200.916 217.528 197.959 218.383 194.952 219.012C189.92 220.089 184.765 220.466 179.631 220.135C171.315 219.612 163.157 217.627 155.529 214.273L143.073 221.506L126.257 211.716L129.06 210.219Z" fill="#D6B1FF"/>
<path d="M155.528 214.523V227.806L143.072 235.04V221.695L155.528 214.523Z" fill="#D6B1FF"/>
<g opacity="0.45">
<path opacity="0.45" d="M155.528 214.523V227.806L143.072 235.04V221.695L155.528 214.523Z" fill="black"/>
</g>
<path d="M255.612 158.21L238.672 148.357L226.154 155.591L238.547 150.415L255.612 158.21Z" fill="#F5F5F5"/>
<path d="M217.621 170.432C214.415 168.439 210.797 167.201 207.043 166.812C203.288 166.423 199.494 166.893 195.948 168.188L180.939 153.034L196.073 166.566C199.7 165.348 203.575 165.064 207.341 165.739C211.107 166.415 214.642 168.029 217.621 170.432Z" fill="#F5F5F5"/>
<path d="M203.795 216.456C200.916 217.529 197.959 218.384 194.952 219.013C189.92 220.089 184.765 220.467 179.631 220.135C187.052 220.193 194.407 218.728 201.242 215.832L187.852 200.616L203.795 216.456Z" fill="#F5F5F5"/>
<path d="M155.528 214.523L143.072 220.135L126.257 211.966L143.072 221.694L155.528 214.523Z" fill="#F5F5F5"/>
<path d="M304.066 130.709C259.847 103.831 190.904 101.15 190.904 101.15C234.499 101.15 274.919 110.816 305.374 128.464C334.583 145.364 350.651 167.315 350.651 190.451C350.651 190.451 349.032 158.086 304.066 130.709Z" fill="#F5F5F5"/>
<path d="M203.795 286.674C156.836 288.795 108.694 279.44 73.0079 258.674C35.6401 237.097 19.6965 207.85 25.1148 179.725C25.1148 179.725 18.1394 225.56 75.8105 256.99C133.482 288.42 203.795 286.674 203.795 286.674Z" fill="#F5F5F5"/>
<path d="M9.23355 143.619C19.1589 128.111 32.8799 115.402 49.0926 106.701C114.3 69.2837 220.051 69.2837 285.32 106.701C301.532 115.402 315.253 128.111 325.179 143.619H334.022V177.793C332.839 201.552 316.584 225.125 285.257 243.272C219.988 280.689 114.237 280.689 49.0303 243.272C17.8904 225.125 1.32404 201.552 0.140717 177.793V143.619H9.23355Z" fill="#D6B1FF"/>
<g opacity="0.25">
<path opacity="0.25" d="M9.23355 143.619C19.1589 128.111 32.8799 115.402 49.0926 106.701C114.3 69.2837 220.051 69.2837 285.32 106.701C301.532 115.402 315.253 128.111 325.179 143.619H334.022V177.793C332.839 201.552 316.584 225.125 285.257 243.272C219.988 280.689 114.237 280.689 49.0303 243.272C17.8904 225.125 1.32404 201.552 0.140717 177.793V143.619H9.23355Z" fill="black"/>
</g>
<g opacity="0.1">
<path opacity="0.1" d="M166.988 78.4504C209.774 78.4504 252.498 87.8669 285.32 106.7C301.532 115.402 315.253 128.11 325.179 143.618H334.022V177.792C332.839 201.552 316.584 225.124 285.257 243.271C252.623 261.98 209.899 271.521 166.926 271.521L166.988 78.4504Z" fill="black"/>
</g>
<g opacity="0.1">
<path opacity="0.1" d="M258.353 94.1036C267.647 97.5157 276.646 101.687 285.257 106.576C301.47 115.277 315.191 127.986 325.116 143.494H334.022V177.668C332.839 201.427 316.584 225 285.257 243.147C276.633 248.01 267.636 252.181 258.353 255.619V94.1036Z" fill="black"/>
</g>
<g opacity="0.5">
<path opacity="0.5" d="M75.8105 94.1036C66.516 97.5157 57.5174 101.687 48.9057 106.576C32.693 115.277 18.9719 127.986 9.04662 143.494H0.0160141V177.668C1.19933 201.427 17.5789 225 48.9057 243.147C57.5305 248.01 66.527 252.181 75.8105 255.619V94.1036Z" fill="#D6B1FF"/>
</g>
<path d="M48.9051 75.394C114.112 37.6653 219.863 37.6653 285.132 75.394C350.401 113.123 350.339 174.237 285.132 211.903C219.925 249.569 114.112 249.632 48.9051 211.903C-16.3018 174.174 -16.3018 113.123 48.9051 75.394Z" fill="#D6B1FF"/>
<g opacity="0.2">
<path opacity="0.2" d="M48.9051 75.394C114.112 37.6653 219.863 37.6653 285.132 75.394C350.401 113.123 350.339 174.237 285.132 211.903C219.925 249.569 114.112 249.632 48.9051 211.903C-16.3018 174.174 -16.3018 113.123 48.9051 75.394Z" fill="black"/>
</g>
<path d="M90.1973 100.339C114.261 89.0338 140.599 83.4222 167.175 83.9378C193.71 83.4279 220.007 89.0398 244.028 100.339C265.888 111.564 277.971 126.967 277.971 143.68C277.971 160.393 265.888 175.733 244.028 186.958C220.022 198.309 193.718 203.944 167.175 203.422C140.591 203.95 114.246 198.315 90.1973 186.958C68.3994 175.733 56.3171 160.33 56.3171 143.68C56.3171 127.029 68.2748 111.564 90.1973 100.339Z" fill="#D6B1FF"/>
<g opacity="0.4">
<path opacity="0.4" d="M90.1973 100.339C114.261 89.0338 140.599 83.4222 167.175 83.9378C193.71 83.4279 220.007 89.0398 244.028 100.339C265.888 111.564 277.971 126.967 277.971 143.68C277.971 160.393 265.888 175.733 244.028 186.958C220.022 198.309 193.718 203.944 167.175 203.422C140.591 203.95 114.246 198.315 90.1973 186.958C68.3994 175.733 56.3171 160.33 56.3171 143.68C56.3171 127.029 68.2748 111.564 90.1973 100.339Z" fill="black"/>
</g>
<path d="M52.5178 81.6933C82.9726 64.1074 123.641 54.3166 167.05 54.3166C210.459 54.3166 251.003 64.045 281.458 81.6308C310.667 98.5931 326.86 120.544 326.86 143.68C326.86 166.816 310.792 188.767 281.583 205.667C251.128 223.191 210.522 232.919 167.175 232.919C123.828 232.919 83.0971 223.191 52.6423 205.667C23.4954 188.767 7.3649 166.754 7.3649 143.68C7.3649 120.607 23.3708 98.5932 52.5178 81.6933ZM89.8856 186.959C113.934 198.315 140.28 203.95 166.863 203.422C193.406 203.944 219.71 198.309 243.717 186.959C265.577 175.734 277.659 160.331 277.659 143.68C277.659 127.03 265.577 111.564 243.717 100.339C219.695 89.0402 193.399 83.4283 166.863 83.9382C140.392 83.4704 114.166 89.081 90.197 100.339C68.3991 111.564 56.3168 126.967 56.3168 143.68C56.3168 160.393 68.2745 175.734 90.197 186.959H89.8856Z" fill="#D6B1FF"/>
<g opacity="0.2">
<path opacity="0.2" d="M92.7506 181.846C51.7082 160.768 51.7082 126.594 92.7506 105.454C133.793 84.3132 200.245 84.3756 241.288 105.454C282.33 126.532 282.33 160.768 241.288 181.846C200.245 202.925 133.793 202.925 92.7506 181.846Z" fill="black"/>
</g>
<path d="M92.7506 181.846C51.7082 160.768 51.7082 126.594 92.7506 105.454C133.793 84.3132 200.245 84.3756 241.288 105.454C282.33 126.532 282.33 160.768 241.288 181.846C200.245 202.925 133.793 202.925 92.7506 181.846Z" fill="#D6B1FF"/>
<g opacity="0.6">
<path opacity="0.6" d="M92.7506 181.846C51.7082 160.768 51.7082 126.594 92.7506 105.454C133.793 84.3132 200.245 84.3756 241.288 105.454C282.33 126.532 282.33 160.768 241.288 181.846C200.245 202.925 133.793 202.925 92.7506 181.846Z" fill="black"/>
</g>
<path d="M92.7506 119.797C133.731 98.7186 200.245 98.7186 241.288 119.797C258.228 128.527 268.193 139.441 271.12 150.977C268.193 162.327 258.228 173.303 241.288 182.158C200.245 203.236 133.731 203.236 92.7506 182.158C75.7482 173.428 65.8457 162.452 62.9186 150.977C65.8457 139.441 75.7482 128.527 92.7506 119.797Z" fill="#D6B1FF"/>
<g opacity="0.5">
<path opacity="0.5" d="M92.7506 119.797C133.731 98.7186 200.245 98.7186 241.288 119.797C258.228 128.527 268.193 139.441 271.12 150.977C268.193 162.327 258.228 173.303 241.288 182.158C200.245 203.236 133.731 203.236 92.7506 182.158C75.7482 173.428 65.8457 162.452 62.9186 150.977C65.8457 139.441 75.7482 128.527 92.7506 119.797Z" fill="black"/>
</g>
<path d="M157.086 106.326V121.729L162.317 127.28L172.033 137.507V121.418L157.086 106.326Z" fill="#D6B1FF"/>
<g opacity="0.3">
<path opacity="0.3" d="M157.086 106.326V121.729L162.317 127.28L172.033 137.507V121.418L157.086 106.326Z" fill="black"/>
</g>
<path d="M172.032 121.417V130.521C176.867 132.414 181.872 133.834 186.98 134.762C189.034 135.182 191.153 135.182 193.208 134.762C194.279 134.493 195.306 134.073 196.259 133.515C199.996 131.332 200.557 128.027 193.519 123.974C190.36 121.957 186.788 120.68 183.067 120.237C179.347 119.794 175.575 120.198 172.032 121.417Z" fill="#D6B1FF"/>
<g opacity="0.45">
<path opacity="0.45" d="M172.032 121.417V130.521C176.867 132.414 181.872 133.834 186.98 134.762C189.034 135.182 191.153 135.182 193.208 134.762C194.279 134.493 195.306 134.073 196.259 133.515C199.996 131.332 200.557 128.027 193.519 123.974C190.36 121.957 186.788 120.68 183.067 120.237C179.347 119.794 175.575 120.198 172.032 121.417Z" fill="black"/>
</g>
<path d="M102.341 165.195V178.541L119.157 188.269L131.613 181.035C146.784 188.113 164.134 188.898 179.88 183.218V169.935L172.219 162.327L179.88 164.447C192.416 167.997 205.844 166.451 217.248 160.144C224.846 155.779 228.333 150.977 228.333 146.05V133.079L226.963 127.467L231.572 124.785V111.44L219.116 118.674C221.656 120.179 223.814 122.25 225.424 124.727C227.033 127.204 228.05 130.02 228.396 132.954C228.396 137.756 224.721 142.433 217.31 146.674C200.93 156.153 184.738 152.91 169.853 148.233C156.027 143.743 145.937 138.442 137.965 142.995C133.045 145.863 134.54 149.231 140.083 152.598C143.686 154.583 147.687 155.737 151.792 155.974C155.898 156.211 160.004 155.527 163.812 153.97L179.755 169.81C176.969 171.022 174.096 172.023 171.161 172.803C157.825 175.325 144.038 173.67 131.675 168.064L119.219 175.298L102.341 165.195Z" fill="#D6B1FF"/>
<g opacity="0.35">
<path opacity="0.35" d="M228.521 132.954C228.521 137.756 224.846 142.433 217.435 146.673C201.055 156.152 184.862 152.909 169.978 148.232C156.151 143.742 146.062 138.442 138.09 142.994C133.17 145.863 134.665 149.23 140.208 152.598C143.811 154.583 147.811 155.736 151.917 155.973C156.023 156.211 160.129 155.526 163.936 153.97L179.88 169.809C177.054 171.027 174.139 172.028 171.161 172.803C157.825 175.324 144.038 173.669 131.675 168.063L119.22 175.297L102.404 165.506V178.852L119.22 188.58L131.675 181.346C146.846 188.424 164.196 189.209 179.942 183.529V170.246L172.282 162.638L179.942 164.758C192.478 168.308 205.907 166.762 217.31 160.455C224.908 156.09 228.396 151.288 228.396 146.362V133.39L227.026 127.778" fill="black"/>
</g>
<g opacity="0.45">
<path opacity="0.45" d="M231.759 111.44V124.785L227.15 127.467C225.224 123.966 222.517 120.957 219.241 118.674L231.759 111.44Z" fill="black"/>
</g>
<path d="M105.144 156.528C105.116 158.671 105.54 160.796 106.39 162.764L114.797 157.899C112.254 156.73 110.044 154.942 108.369 152.698C106.694 150.454 105.606 147.826 105.206 145.053C105.144 148.857 105.144 156.153 105.144 156.528Z" fill="#D6B1FF"/>
<g opacity="0.3">
<path opacity="0.3" d="M105.144 156.528C105.116 158.671 105.54 160.796 106.39 162.764L114.797 157.899C112.254 156.73 110.044 154.942 108.369 152.698C106.694 150.454 105.606 147.826 105.206 145.053C105.144 148.857 105.144 156.153 105.144 156.528Z" fill="black"/>
</g>
<path d="M105.144 163.636L114.797 158.024C111.948 156.722 109.527 154.635 107.817 152.007C106.108 149.379 105.181 146.318 105.144 143.182C105.144 142.745 105.144 142.309 105.144 141.935C105.744 139.04 107.038 136.335 108.915 134.053C110.792 131.772 113.196 129.982 115.919 128.839C122.742 124.932 130.479 122.91 138.339 122.977H140.457H142.45H144.256H145.003C145.438 122.942 145.876 122.942 146.311 122.977C149.989 123.484 153.63 124.234 157.21 125.222C158.954 125.658 160.635 126.157 162.317 126.718L169.355 129.026L172.033 129.961C176.877 131.825 181.879 133.244 186.98 134.202C189.034 134.624 191.153 134.624 193.208 134.202C194.269 133.905 195.293 133.487 196.259 132.955C199.996 130.772 200.557 127.467 193.519 123.413C190.317 121.409 186.703 120.16 182.948 119.76C179.193 119.361 175.397 119.821 171.846 121.106L156.899 106.015C171.75 101.307 187.807 102.194 202.051 108.509L214.507 101.338L231.51 111.128L219.054 118.3C221.586 119.829 223.737 121.915 225.345 124.4C226.952 126.885 227.974 129.704 228.334 132.643C228.334 137.445 224.659 142.122 217.248 146.362C200.868 155.841 184.613 152.599 169.791 147.921C155.964 143.431 145.875 138.068 137.903 142.683C132.983 145.552 134.478 148.919 140.021 152.287C143.624 154.272 147.624 155.425 151.73 155.662C155.836 155.9 159.942 155.215 163.749 153.659L179.693 169.498C176.936 170.814 174.084 171.919 171.161 172.804C166.108 173.88 160.932 174.258 155.778 173.926C147.463 173.396 139.306 171.412 131.675 168.064L119.219 175.298L102.404 165.57L105.144 163.636Z" fill="#D6B1FF"/>
<path d="M131.613 167.753V181.035L119.157 188.269V174.986L131.613 167.753Z" fill="#D6B1FF"/>
<g opacity="0.45">
<path opacity="0.45" d="M131.613 167.753V181.035L119.157 188.269V174.986L131.613 167.753Z" fill="black"/>
</g>
<path d="M231.759 111.441L214.756 101.65L202.238 108.821L214.632 103.645L231.759 111.441Z" fill="#F5F5F5"/>
<path d="M193.706 123.725C190.504 121.721 186.889 120.472 183.135 120.072C179.38 119.672 175.584 120.132 172.033 121.418L157.086 106.326L172.033 119.859C175.677 118.612 179.577 118.313 183.368 118.989C187.159 119.666 190.716 121.295 193.706 123.725Z" fill="#F5F5F5"/>
<path d="M179.88 169.934C177.05 171.109 174.135 172.068 171.161 172.802C166.108 173.879 160.932 174.257 155.778 173.925C163.219 173.98 170.594 172.516 177.451 169.622L163.936 154.094L179.88 169.934Z" fill="#F5F5F5"/>
<path d="M131.613 167.753L119.157 173.365L102.342 165.258L119.157 174.987L131.613 167.753Z" fill="#F5F5F5"/>
<path d="M280.213 83.9389C235.994 57.0612 167.05 54.3797 167.05 54.3797C210.646 54.3797 251.003 64.1081 281.458 81.694C310.667 98.5939 326.86 120.545 326.86 143.681C326.86 143.681 325.179 111.316 280.213 83.9389Z" fill="#F5F5F5"/>
<path d="M179.88 239.904C132.983 242.025 84.7786 232.67 49.0923 211.904C11.7244 190.327 -4.21919 161.079 1.19914 132.954C1.19914 132.954 -5.7762 178.852 51.8949 210.22C109.566 241.588 179.88 239.904 179.88 239.904Z" fill="#F5F5F5"/>
<path d="M25.3016 96.3474C35.264 80.8099 49.0275 68.0802 65.2852 59.3671C130.492 21.9504 236.243 21.9504 301.512 59.3671C317.744 68.0702 331.469 80.8042 341.371 96.3474H350.34V130.521C349.156 154.281 332.901 177.791 301.575 195.938C236.305 233.667 130.554 233.667 65.3474 195.938C34.2076 177.791 17.6412 154.281 16.4579 130.521V96.3474H25.3016Z" fill="#D6B1FF"/>
<g opacity="0.25">
<path opacity="0.25" d="M25.3016 96.3474C35.264 80.8099 49.0275 68.0802 65.2852 59.3671C130.492 21.9504 236.243 21.9504 301.512 59.3671C317.744 68.0702 331.469 80.8042 341.371 96.3474H350.34V130.521C349.156 154.281 332.901 177.791 301.575 195.938C236.305 233.667 130.554 233.667 65.3474 195.938C34.2076 177.791 17.6412 154.281 16.4579 130.521V96.3474H25.3016Z" fill="black"/>
</g>
<g opacity="0.1">
<path opacity="0.1" d="M183.305 31.119C226.029 31.119 268.815 40.5355 301.637 59.3686C317.868 68.0716 331.594 80.8057 341.496 96.3488H350.34V130.523C349.156 154.283 332.901 177.793 301.575 195.94C268.94 214.648 226.154 224.252 183.243 224.252L183.305 31.119Z" fill="black"/>
</g>
<g opacity="0.1">
<path opacity="0.1" d="M274.545 46.7703C283.824 50.2211 292.819 54.3912 301.45 59.2425C317.682 67.9455 331.407 80.6795 341.309 96.2227H350.34V130.397C349.156 154.156 332.901 177.666 301.575 195.814C292.957 200.69 283.959 204.861 274.67 208.286L274.545 46.7703Z" fill="black"/>
</g>
<g opacity="0.5">
<path opacity="0.5" d="M92.1277 46.7703C82.8441 50.2087 73.8476 54.3792 65.2228 59.2425C48.9879 67.9642 35.2466 80.6931 25.3015 96.2227H16.3332V130.397C17.5166 154.156 33.8339 177.666 65.2228 195.814C73.8346 200.702 82.8332 204.874 92.1277 208.286V46.7703Z" fill="#D6B1FF"/>
</g>
<path d="M65.285 28.0626C130.492 -9.35421 236.243 -9.35421 301.512 28.0626C366.781 65.4794 366.719 126.905 301.512 164.634C236.305 202.363 130.492 202.363 65.285 164.634C0.078064 126.905 0.0158081 65.7913 65.285 28.0626Z" fill="#D6B1FF"/>
<g opacity="0.2">
<path opacity="0.2" d="M65.285 28.0626C130.492 -9.35421 236.243 -9.35421 301.512 28.0626C366.781 65.4794 366.719 126.905 301.512 164.634C236.305 202.363 130.492 202.363 65.285 164.634C0.078064 126.905 0.0158081 65.7913 65.285 28.0626Z" fill="black"/>
</g>
<path d="M106.39 53.0709C130.424 41.7432 156.747 36.1303 183.305 36.67C209.864 36.1235 236.189 41.7367 260.221 53.0709C282.081 64.2959 294.101 79.6992 294.101 96.3496C294.101 113 282.081 128.403 260.221 139.628C236.194 150.984 209.869 156.619 183.305 156.092C156.742 156.612 130.419 150.978 106.39 139.628C84.592 128.403 72.5097 113.062 72.5097 96.3496C72.5097 79.6368 84.592 64.2959 106.39 53.0709Z" fill="#D6B1FF"/>
<g opacity="0.4">
<path opacity="0.4" d="M106.39 53.0709C130.424 41.7432 156.747 36.1303 183.305 36.67C209.864 36.1235 236.189 41.7367 260.221 53.0709C282.081 64.2959 294.101 79.6992 294.101 96.3496C294.101 113 282.081 128.403 260.221 139.628C236.194 150.984 209.869 156.619 183.305 156.092C156.742 156.612 130.419 150.978 106.39 139.628C84.592 128.403 72.5097 113.062 72.5097 96.3496C72.5097 79.6368 84.592 64.2959 106.39 53.0709Z" fill="black"/>
</g>
<path d="M68.8352 34.4229C99.29 16.8994 140.021 7.0464 183.305 7.0464C226.59 7.0464 267.321 16.8994 297.776 34.4229C326.985 51.2605 343.053 73.274 343.053 96.3477C343.053 119.421 326.86 141.622 297.776 158.335C267.321 175.921 226.714 185.649 183.305 185.649C139.896 185.649 99.29 175.921 68.8352 158.335C39.6883 141.435 23.5578 119.421 23.5578 96.3477C23.5578 73.274 39.6883 51.2605 68.8352 34.4229ZM106.203 139.626C130.232 150.976 156.556 156.61 183.119 156.09C209.682 156.617 236.007 150.982 260.034 139.626C281.894 128.401 293.914 113.061 293.914 96.3477C293.914 79.6349 281.894 64.294 260.034 53.0689C236.002 41.7348 209.677 36.1216 183.119 36.668C156.623 36.1572 130.367 41.7694 106.39 53.0689C84.5919 64.294 72.5097 79.6972 72.5097 96.3477C72.5097 112.998 84.5919 128.401 106.39 139.626H106.203Z" fill="#D6B1FF"/>
<g opacity="0.2">
<path opacity="0.2" d="M183.305 150.352C125.279 150.352 78.239 126.173 78.239 96.3474C78.239 66.5213 125.279 42.3425 183.305 42.3425C241.331 42.3425 288.371 66.5213 288.371 96.3474C288.371 126.173 241.331 150.352 183.305 150.352Z" fill="black"/>
</g>
<path d="M183.305 150.352C125.279 150.352 78.239 126.173 78.239 96.3474C78.239 66.5213 125.279 42.3425 183.305 42.3425C241.331 42.3425 288.371 66.5213 288.371 96.3474C288.371 126.173 241.331 150.352 183.305 150.352Z" fill="#D6B1FF"/>
<g opacity="0.6">
<path opacity="0.6" d="M183.305 150.352C125.279 150.352 78.239 126.173 78.239 96.3474C78.239 66.5213 125.279 42.3425 183.305 42.3425C241.331 42.3425 288.371 66.5213 288.371 96.3474C288.371 126.173 241.331 150.352 183.305 150.352Z" fill="black"/>
</g>
<path d="M108.881 72.4634C149.861 51.3853 216.376 51.3853 257.418 72.4634C274.358 81.194 284.323 92.1696 287.25 103.644C284.323 114.994 274.358 125.907 257.418 134.825C216.376 155.903 149.861 155.903 108.881 134.825C91.8783 126.094 81.9758 115.181 79.0487 103.644C82.1627 92.1696 92.0652 81.194 108.881 72.4634Z" fill="#D6B1FF"/>
<g opacity="0.5">
<path opacity="0.5" d="M108.881 72.4634C149.861 51.3853 216.376 51.3853 257.418 72.4634C274.358 81.194 284.323 92.1696 287.25 103.644C284.323 114.994 274.358 125.907 257.418 134.825C216.376 155.903 149.861 155.903 108.881 134.825C91.8783 126.094 81.9758 115.181 79.0487 103.644C82.1627 92.1696 92.0652 81.194 108.881 72.4634Z" fill="black"/>
</g>
<path d="M173.341 58.9931V74.4587L178.634 80.0087L188.35 90.1736V74.1468L173.341 58.9931Z" fill="#D6B1FF"/>
<g opacity="0.3">
<path opacity="0.3" d="M173.341 58.9931V74.4587L178.634 80.0087L188.35 90.1736V74.1468L173.341 58.9931Z" fill="black"/>
</g>
<path d="M188.35 74.1481V83.2529C193.203 85.0873 198.203 86.5059 203.297 87.4933C205.352 87.9133 207.47 87.9133 209.525 87.4933C210.577 87.1684 211.598 86.751 212.576 86.2461C216.313 84.0011 216.874 80.6959 209.836 76.6425C206.683 74.6106 203.107 73.3293 199.382 72.8969C195.657 72.4644 191.883 72.8925 188.35 74.1481Z" fill="#D6B1FF"/>
<g opacity="0.45">
<path opacity="0.45" d="M188.35 74.1481V83.2529C193.203 85.0873 198.203 86.5059 203.297 87.4933C205.352 87.9133 207.47 87.9133 209.525 87.4933C210.577 87.1684 211.598 86.751 212.576 86.2461C216.313 84.0011 216.874 80.6959 209.836 76.6425C206.683 74.6106 203.107 73.3293 199.382 72.8969C195.657 72.4644 191.883 72.8925 188.35 74.1481Z" fill="black"/>
</g>
<path d="M118.659 117.924V131.207L135.474 140.935L147.93 133.764C163.109 140.808 180.446 141.592 196.197 135.946V122.913L188.537 115.305L196.197 117.425C202.403 119.2 208.897 119.734 215.309 118.996C221.72 118.257 227.924 116.261 233.565 113.122C241.163 108.757 244.651 104.018 244.651 99.091V86.12L243.281 80.4451L247.889 77.7637V64.4183L235.433 71.6522C237.934 73.1099 240.077 75.1101 241.704 77.5058C243.332 79.9015 244.402 82.6319 244.838 85.4964C244.838 90.2982 241.163 94.913 233.752 99.2159C217.372 108.632 201.18 105.452 186.295 100.775C172.469 96.2225 162.379 90.9217 154.408 95.5364C149.425 98.405 150.982 101.773 156.525 105.078C160.129 107.056 164.126 108.21 168.229 108.458C172.331 108.706 176.438 108.042 180.254 106.512L196.073 122.913C193.215 124.005 190.28 124.881 187.291 125.532C173.95 128.063 160.154 126.385 147.806 120.73L135.35 127.964L118.659 117.924Z" fill="#D6B1FF"/>
<g opacity="0.35">
<path opacity="0.35" d="M244.838 85.4979C244.838 90.2997 241.163 94.9145 233.752 99.2175C217.372 108.634 201.18 105.454 186.295 100.777C172.469 96.2241 162.379 90.9232 154.408 95.538C149.425 98.4066 150.982 101.774 156.525 105.079C160.129 107.058 164.126 108.212 168.229 108.46C172.332 108.708 176.438 108.043 180.254 106.514L196.073 122.915C193.215 124.007 190.28 124.883 187.291 125.534C173.951 128.065 160.154 126.387 147.806 120.732L135.35 127.966L118.535 118.238V131.521L135.35 141.249L147.806 134.078C162.985 141.122 180.322 141.906 196.073 136.26V122.915L188.412 115.307L196.073 117.427C202.278 119.202 208.773 119.736 215.184 118.997C221.596 118.259 227.799 116.263 233.441 113.124C241.039 108.759 244.526 104.019 244.526 99.0926V86.1215L243.156 80.4466" fill="black"/>
</g>
<g opacity="0.45">
<path opacity="0.45" d="M248.014 64.1064V77.452L243.467 80.1337C241.525 76.6268 238.822 73.6006 235.558 71.2781L248.014 64.1064Z" fill="black"/>
</g>
<path d="M121.337 109.193C121.321 111.342 121.767 113.469 122.645 115.429L131.115 110.441C128.575 109.344 126.349 107.629 124.641 105.45C122.933 103.272 121.797 100.699 121.337 97.9684C121.337 101.523 121.337 108.882 121.337 109.193Z" fill="#D6B1FF"/>
<g opacity="0.3">
<path opacity="0.3" d="M121.337 109.193C121.321 111.342 121.767 113.469 122.645 115.429L131.115 110.441C128.575 109.344 126.349 107.629 124.641 105.45C122.933 103.272 121.797 100.699 121.337 97.9684C121.337 101.523 121.337 108.882 121.337 109.193Z" fill="black"/>
</g>
<path d="M244.962 116.304L235.309 110.691C238.158 109.407 240.581 107.332 242.292 104.713C244.002 102.095 244.929 99.0406 244.962 95.9117C244.993 95.4757 244.993 95.0379 244.962 94.6019C244.526 89.9872 241.163 85.5595 234.188 81.506C227.379 77.5625 219.632 75.5371 211.767 75.6441H209.463H207.47H205.726H204.979H203.671C199.991 76.1719 196.35 76.9427 192.772 77.9515C191.028 78.388 189.346 78.8869 187.665 79.4481L180.627 81.6932L177.949 82.6286C173.118 84.5439 168.112 85.985 163.002 86.9316C160.945 87.3228 158.832 87.3228 156.774 86.9316C155.71 86.6134 154.686 86.1738 153.722 85.6218C149.986 83.5016 149.425 80.1964 156.463 76.0805C159.669 74.0866 163.287 72.8486 167.041 72.4596C170.796 72.0707 174.59 72.5412 178.136 73.8356L193.083 58.6818C178.228 54.0033 162.181 54.8897 147.93 61.1762L135.475 54.0047L118.534 63.8577L130.99 71.0293C128.452 72.5516 126.296 74.636 124.688 77.1223C123.079 79.6086 122.061 82.4309 121.711 85.3725C121.711 90.1744 125.385 94.789 132.796 99.092C149.176 108.571 165.431 105.328 180.254 100.589C194.08 96.0987 204.169 90.7979 212.141 95.4127C217.061 98.2813 215.566 101.649 210.023 104.954C206.431 106.969 202.428 108.14 198.317 108.378C194.206 108.615 190.095 107.914 186.295 106.326L170.227 122.914C173.084 124.007 176.019 124.882 179.008 125.533C184.069 126.544 189.237 126.921 194.391 126.656C202.709 126.106 210.867 124.1 218.493 120.731L230.949 127.965L247.765 118.237L244.962 116.304Z" fill="#D6B1FF"/>
<path d="M147.93 120.42V133.764L135.474 140.936V127.653L147.93 120.42Z" fill="#D6B1FF"/>
<g opacity="0.45">
<path opacity="0.45" d="M147.93 120.42V133.764L135.474 140.936V127.653L147.93 120.42Z" fill="black"/>
</g>
<path d="M248.014 64.1695L231.074 54.3166L218.555 61.488L230.949 56.3122L248.014 64.1695Z" fill="#F5F5F5"/>
<path d="M210.023 76.3918C206.817 74.3979 203.199 73.1597 199.445 72.7708C195.69 72.3819 191.896 72.8524 188.35 74.1467L173.403 58.9931L188.35 72.5877C191.989 71.3387 195.886 71.0327 199.675 71.6978C203.465 72.3629 207.025 73.9778 210.023 76.3918Z" fill="#F5F5F5"/>
<path d="M196.073 122.915C193.215 124.007 190.28 124.883 187.291 125.534C182.23 126.545 177.062 126.922 171.908 126.656C179.355 126.71 186.734 125.224 193.581 122.291L180.129 107.075L196.073 122.915Z" fill="#F5F5F5"/>
<path d="M147.93 120.42L135.474 126.095L118.659 117.925L135.474 127.654L147.93 120.42Z" fill="#F5F5F5"/>
<path d="M296.468 36.668C252.249 9.72794 183.305 7.0464 183.305 7.0464C226.901 7.0464 267.321 16.7747 297.776 34.4229C326.985 51.2605 343.053 73.274 343.053 96.3477C343.053 96.3477 341.496 63.9823 296.468 36.668Z" fill="#F5F5F5"/>
<path d="M196.073 192.634C149.176 194.692 100.971 185.4 65.285 164.634C27.9172 143.057 11.9735 113.809 17.3919 85.6843C17.3919 85.6843 10.4165 131.52 68.0876 162.888C125.759 194.255 196.073 192.634 196.073 192.634Z" fill="#F5F5F5"/>
</g>
</svg>
