<svg width="64" height="64" viewBox="0 0 64 64" fill="none" xmlns="http://www.w3.org/2000/svg">
<path d="M32 62C48.5685 62 62 48.5685 62 32C62 15.4315 48.5685 2 32 2C15.4315 2 2 15.4315 2 32C2 48.5685 15.4315 62 32 62Z" fill="#6B61B1"/>
<path d="M32 57.625C46.1523 57.625 57.625 46.1523 57.625 32C57.625 17.8477 46.1523 6.375 32 6.375C17.8477 6.375 6.375 17.8477 6.375 32C6.375 46.1523 17.8477 57.625 32 57.625Z" fill="#FBC99D"/>
<path d="M44.847 32.7686L43.2677 31.1893C43.1448 31.0663 42.9955 30.9881 42.8385 30.9468V17.8346C42.8385 17.2428 42.359 16.7633 41.7673 16.7633H19.9463C19.3548 16.7633 18.875 17.2428 18.875 17.8346V49.6658C18.875 50.2573 19.3548 50.7371 19.9463 50.7371H32.49V53.6571C32.49 53.8703 32.5578 54.0666 32.6743 54.2243C32.696 54.2558 32.7178 54.2848 32.742 54.3116C32.9213 54.5053 33.1757 54.6266 33.4595 54.6266H40.0035C40.287 54.6266 40.544 54.5031 40.721 54.3091C40.7453 54.2823 40.7695 54.2533 40.7887 54.2243C40.905 54.0668 40.973 53.8706 40.973 53.6571V50.7371H41.7675C42.3593 50.7371 42.8387 50.2573 42.8387 49.6658V36.1191L44.8473 34.1106C45.2178 33.7398 45.2178 33.1391 44.847 32.7686Z" fill="#382B73"/>
<path d="M41.7673 48.9868H19.9463C19.3548 48.9868 18.875 48.5073 18.875 47.9156V16.0846C18.875 15.4928 19.3545 15.0133 19.9463 15.0133H41.7673C42.359 15.0133 42.8385 15.4928 42.8385 16.0846V47.9158C42.8385 48.5073 42.359 48.9868 41.7673 48.9868Z" fill="white"/>
<path d="M27.7114 19.6706H22.5334C22.1779 19.6706 21.8896 19.3823 21.8896 19.0268C21.8896 18.6713 22.1779 18.3831 22.5334 18.3831H27.7114C28.0669 18.3831 28.3551 18.6713 28.3551 19.0268C28.3551 19.3823 28.0669 19.6706 27.7114 19.6706Z" fill="#BCBEC0"/>
<path d="M29.3741 27.7992H22.5334C22.1779 27.7992 21.8896 27.511 21.8896 27.1555C21.8896 26.8 22.1779 26.5117 22.5334 26.5117H29.3739C29.7294 26.5117 30.0176 26.8 30.0176 27.1555C30.0176 27.511 29.7296 27.7992 29.3741 27.7992Z" fill="#BCBEC0"/>
<path d="M29.3741 45.6408H22.5334C22.1779 45.6408 21.8896 45.3525 21.8896 44.997C21.8896 44.6415 22.1779 44.3533 22.5334 44.3533H29.3739C29.7294 44.3533 30.0176 44.6415 30.0176 44.997C30.0176 45.3525 29.7296 45.6408 29.3741 45.6408Z" fill="#BCBEC0"/>
<path d="M40.0171 30.7074H22.5334C22.1779 30.7074 21.8896 30.4192 21.8896 30.0637C21.8896 29.7082 22.1779 29.4199 22.5334 29.4199H40.0169C40.3724 29.4199 40.6606 29.7082 40.6606 30.0637C40.6606 30.4194 40.3726 30.7074 40.0171 30.7074Z" fill="#BCBEC0"/>
<path d="M40.0171 33.6155H22.5334C22.1779 33.6155 21.8896 33.3273 21.8896 32.9718C21.8896 32.6163 22.1779 32.328 22.5334 32.328H40.0169C40.3724 32.328 40.6606 32.6163 40.6606 32.9718C40.6606 33.3273 40.3726 33.6155 40.0171 33.6155Z" fill="#BCBEC0"/>
<path d="M40.0171 36.5238H22.5334C22.1779 36.5238 21.8896 36.2356 21.8896 35.8801C21.8896 35.5246 22.1779 35.2363 22.5334 35.2363H40.0169C40.3724 35.2363 40.6606 35.5246 40.6606 35.8801C40.6606 36.2356 40.3726 36.5238 40.0171 36.5238Z" fill="#BCBEC0"/>
<path d="M24.3571 22.5785H22.5336C22.1781 22.5785 21.8899 22.2903 21.8899 21.9348C21.8899 21.5793 22.1781 21.291 22.5336 21.291H24.3571C24.7126 21.291 25.0009 21.5793 25.0009 21.9348C25.0006 22.2905 24.7126 22.5785 24.3571 22.5785Z" fill="#BCBEC0"/>
<path d="M30.1572 22.5785H26.5725C26.217 22.5785 25.9287 22.2903 25.9287 21.9348C25.9287 21.5793 26.217 21.291 26.5725 21.291H30.1572C30.5127 21.291 30.801 21.5793 30.801 21.9348C30.8007 22.2905 30.5127 22.5785 30.1572 22.5785Z" fill="#BCBEC0"/>
<path d="M41.7673 15.0133H19.9463C19.3548 15.0133 18.875 15.4928 18.875 16.0846V16.2251H42.8385V16.0846C42.8385 15.4928 42.359 15.0133 41.7673 15.0133Z" fill="#F8AF6D"/>
<path d="M39.5815 24.2635C39.5815 23.9137 39.5117 23.6047 39.374 23.3447C39.2365 23.0855 39.03 22.8602 38.7597 22.675C38.5052 22.5005 38.1215 22.3275 37.5865 22.146C37.019 21.9532 36.7575 21.781 36.638 21.67C36.5505 21.589 36.4915 21.4862 36.4595 21.3595C36.4477 21.3135 36.448 21.2637 36.4595 21.2177C36.4955 21.0757 36.5645 20.9577 36.6675 20.8607C36.8332 20.705 37.0707 20.6295 37.3932 20.6295C37.7005 20.6295 37.9322 20.723 38.1015 20.9152C38.2817 21.1197 38.3692 21.3987 38.3692 21.7685C38.3692 21.9492 38.5157 22.0957 38.6965 22.0957H39.2067C39.3875 22.0957 39.534 21.9492 39.534 21.7685C39.534 21.7537 39.5312 21.741 39.5312 21.7262H39.534V21.399C39.534 20.7542 39.3692 20.23 39.0442 19.8405C38.818 19.5697 38.529 19.3772 38.1812 19.2652C38.0455 19.2215 37.952 19.097 37.952 18.9542V18.663V18.6207C37.952 18.44 37.8055 18.2935 37.6247 18.2935H37.1875C37.0067 18.2935 36.8602 18.44 36.8602 18.6207V18.663V18.946C36.8602 19.0905 36.7645 19.217 36.6257 19.2582C36.2955 19.3567 36.015 19.522 35.7882 19.7522C35.4412 20.1045 35.2652 20.5632 35.2652 21.116C35.2652 21.1817 35.2752 21.2417 35.2802 21.3045C35.2757 21.365 35.2652 21.4225 35.2652 21.4852C35.2652 22.0117 35.426 22.451 35.7432 22.791C36.0455 23.115 36.5362 23.3802 37.2347 23.5995C37.8222 23.803 38.085 23.9822 38.2017 24.0965C38.2735 24.1667 38.3257 24.2475 38.36 24.3397C38.3882 24.4152 38.3882 24.4997 38.3592 24.575C38.316 24.6875 38.245 24.7847 38.1437 24.871C37.9472 25.038 37.6917 25.119 37.363 25.119C36.9822 25.119 36.7005 25.0252 36.502 24.8322C36.3062 24.6417 36.211 24.3757 36.211 24.0185C36.211 23.8377 36.0645 23.6912 35.8837 23.6912H35.3692C35.1885 23.6912 35.042 23.8377 35.042 24.0185C35.042 24.0332 35.045 24.046 35.0452 24.0607H35.042V24.388C35.042 25.0365 35.2317 25.561 35.6057 25.9472C35.8655 26.2152 36.1985 26.4015 36.5997 26.5035C36.7447 26.5405 36.847 26.67 36.847 26.8195V27.03V27.0722C36.847 27.253 36.9935 27.3995 37.1742 27.3995H37.6072C37.788 27.3995 37.9345 27.253 37.9345 27.0722V27.03V26.804C37.9345 26.6577 38.0325 26.53 38.1735 26.4902C38.518 26.3935 38.8095 26.2295 39.0435 26C39.4002 25.6502 39.581 25.19 39.581 24.6325C39.581 24.5535 39.5762 24.4772 39.5692 24.4025C39.5725 24.3557 39.5815 24.312 39.5815 24.2635Z" fill="#D1D3D4"/>
<path d="M39.3742 23.3448C39.2367 23.0856 39.0302 22.8603 38.76 22.6751C38.5055 22.5006 38.1215 22.3276 37.5867 22.1461C37.0192 21.9533 36.7577 21.7811 36.6385 21.6703C36.4985 21.5408 36.4302 21.3561 36.4302 21.1053C36.4302 20.8423 36.508 20.6416 36.6677 20.4916C36.8335 20.3358 37.071 20.2603 37.3935 20.2603C37.7007 20.2603 37.9325 20.3538 38.1017 20.5461C38.282 20.7506 38.3695 21.0296 38.3695 21.3993C38.3695 21.5801 38.516 21.7266 38.6967 21.7266H39.207C39.3877 21.7266 39.5342 21.5801 39.5342 21.3993C39.5342 20.7546 39.3695 20.2303 39.0445 19.8408C38.8182 19.5701 38.5292 19.3776 38.1815 19.2656C38.0457 19.2218 37.9522 19.0973 37.9522 18.9546V18.6211C37.9522 18.4403 37.8057 18.2938 37.625 18.2938H37.1877C37.007 18.2938 36.8605 18.4403 36.8605 18.6211V18.9463C36.8605 19.0911 36.7647 19.2173 36.626 19.2586C36.2957 19.3571 36.0152 19.5223 35.7885 19.7526C35.4415 20.1046 35.2655 20.5636 35.2655 21.1163C35.2655 21.6428 35.4262 22.0821 35.7435 22.4221C36.0457 22.7458 36.5365 23.0113 37.235 23.2306C37.8225 23.4341 38.0852 23.6131 38.202 23.7276C38.3435 23.8661 38.4122 24.0441 38.4122 24.2718C38.4122 24.5256 38.327 24.7158 38.144 24.8713C37.9472 25.0383 37.6917 25.1193 37.3632 25.1193C36.9825 25.1193 36.7007 25.0256 36.5022 24.8326C36.3065 24.6421 36.2112 24.3761 36.2112 24.0188C36.2112 23.8381 36.0647 23.6916 35.884 23.6916H35.3695C35.1887 23.6916 35.0422 23.8381 35.0422 24.0188C35.0422 24.6673 35.232 25.1918 35.606 25.5778C35.8657 25.8458 36.1987 26.0321 36.6 26.1341C36.745 26.1708 36.8472 26.3006 36.8472 26.4501V26.7028C36.8472 26.8836 36.9937 27.0301 37.1745 27.0301H37.6075C37.7882 27.0301 37.9347 26.8836 37.9347 26.7028V26.4348C37.9347 26.2886 38.0327 26.1608 38.1737 26.1211C38.5182 26.0243 38.8097 25.8603 39.0437 25.6308C39.4005 25.2811 39.5812 24.8208 39.5812 24.2631C39.5815 23.9138 39.5117 23.6046 39.3742 23.3448Z" fill="#6B61B1"/>
<path d="M39.3742 22.9752C39.2367 22.7159 39.0302 22.4907 38.76 22.3054C38.5055 22.1309 38.1215 21.9579 37.5867 21.7764C37.0192 21.5837 36.7577 21.4114 36.6385 21.3004C36.4985 21.1709 36.4302 20.9862 36.4302 20.7357C36.4302 20.4727 36.508 20.2719 36.6677 20.1219C36.8335 19.9662 37.071 19.8907 37.3935 19.8907C37.7007 19.8907 37.9325 19.9842 38.1017 20.1764C38.282 20.3809 38.3695 20.6599 38.3695 21.0297C38.3695 21.2104 38.516 21.3569 38.6967 21.3569H39.207C39.3877 21.3569 39.5342 21.2104 39.5342 21.0297C39.5342 20.3849 39.3695 19.8607 39.0445 19.4712C38.8182 19.2004 38.5292 19.0079 38.1815 18.8959C38.0457 18.8522 37.9522 18.7277 37.9522 18.5849V18.2514C37.9522 18.0707 37.8057 17.9242 37.625 17.9242H37.1877C37.007 17.9242 36.8605 18.0707 36.8605 18.2514V18.5767C36.8605 18.7214 36.7647 18.8477 36.626 18.8889C36.2957 18.9874 36.0152 19.1527 35.7885 19.3829C35.4415 19.7349 35.2655 20.1939 35.2655 20.7467C35.2655 21.2732 35.4262 21.7124 35.7435 22.0524C36.0457 22.3764 36.5365 22.6417 37.235 22.8609C37.8225 23.0644 38.0852 23.2434 38.202 23.3579C38.3435 23.4964 38.4122 23.6744 38.4122 23.9022C38.4122 24.1557 38.327 24.3462 38.144 24.5017C37.9472 24.6687 37.6917 24.7499 37.3632 24.7499C36.9825 24.7499 36.7007 24.6562 36.5022 24.4629C36.3065 24.2724 36.2112 24.0064 36.2112 23.6492C36.2112 23.4684 36.0647 23.3219 35.884 23.3219H35.3695C35.1887 23.3219 35.0422 23.4684 35.0422 23.6492C35.0422 24.2977 35.232 24.8222 35.606 25.2082C35.8657 25.4762 36.1987 25.6624 36.6 25.7644C36.745 25.8014 36.8472 25.9309 36.8472 26.0804V26.3332C36.8472 26.5139 36.9937 26.6604 37.1745 26.6604H37.6075C37.7882 26.6604 37.9347 26.5139 37.9347 26.3332V26.0652C37.9347 25.9189 38.0327 25.7912 38.1737 25.7514C38.5182 25.6547 38.8097 25.4907 39.0437 25.2612C39.4005 24.9114 39.5812 24.4512 39.5812 23.8934C39.5815 23.5442 39.5117 23.2352 39.3742 22.9752Z" fill="#6B61B1"/>
<path d="M42.8386 35.3988V30.2265C42.5229 30.1433 42.1736 30.2215 41.9261 30.469L39.6759 32.7193L32.5096 39.8855L30.6449 44.3398C30.5574 44.5488 30.7674 44.7588 30.9764 44.6713L35.4309 42.8065L42.5971 35.6403L42.8386 35.3988Z" fill="#BCBEC0"/>
<path d="M39.6753 31.6823L42.5959 34.6029L35.4306 41.7681L32.51 38.8475L39.6753 31.6823Z" fill="#6B61B1"/>
<path d="M40.4163 32.4238L41.8541 33.8617L34.6889 41.027L33.251 39.5891L40.4163 32.4238Z" fill="#6B61B1"/>
<path d="M30.6446 43.3101L32.5094 38.8558L35.4304 41.7768L30.9759 43.6416C30.7671 43.7291 30.5571 43.5191 30.6446 43.3101Z" fill="#E6E7E8"/>
<path d="M30.647 43.5115L33.2222 39.5682L33.97 40.316L34.718 41.064L30.7747 43.6392C30.7185 43.6137 30.6725 43.5677 30.647 43.5115Z" fill="white"/>
<path d="M44.847 31.0185L43.2678 29.4393C42.8973 29.0688 42.2965 29.0688 41.926 29.4393L39.6758 31.6895L42.5968 34.6105L44.847 32.3603C45.2175 31.9898 45.2175 31.389 44.847 31.0185Z" fill="#6B61B1"/>
<path d="M44.3057 30.477L43.8092 29.9805C43.5492 29.7205 43.1277 29.7205 42.8677 29.9805L40.4172 32.431L41.8552 33.869L44.3057 31.4188C44.5657 31.1585 44.5657 30.737 44.3057 30.477Z" fill="#6B61B1"/>
<path d="M39.6753 31.6815L42.5959 34.6021L41.6526 35.5454L38.732 32.6248L39.6753 31.6815Z" fill="#F8AF6D"/>
<path d="M40.4167 32.4231L41.8546 33.861L40.9113 34.8043L39.4734 33.3664L40.4167 32.4231Z" fill="#FBC99D"/>
<path d="M30.6445 43.3105L30.953 42.5735L31.1277 42.156L32.1299 43.1583L31.4982 43.4228L30.976 43.6415C30.7672 43.7287 30.5575 43.5193 30.6445 43.3105Z" fill="#F8AF6D"/>
<path d="M30.645 43.5074L31.3615 42.3899L31.8963 42.9246L30.7788 43.6411C30.7193 43.6154 30.671 43.5669 30.645 43.5074Z" fill="#FBC99D"/>
<path d="M25.8373 42.945C25.7851 42.945 25.7328 42.943 25.6803 42.9392C25.0216 42.8912 24.3881 42.5575 23.9268 42.0277C23.5251 42.3075 23.0908 42.5415 22.6323 42.7242C22.3681 42.8292 22.0686 42.7005 21.9633 42.4362C21.8583 42.172 21.9871 41.8725 22.2513 41.7672C22.6576 41.6055 23.0411 41.3957 23.3936 41.1435C23.2058 40.6705 23.1196 40.1372 23.1416 39.5705C23.1611 39.069 23.2716 38.671 23.4796 38.3537C23.7903 37.8805 24.3183 37.6207 24.8256 37.6935C25.5618 37.7985 25.9871 38.5295 25.9731 39.176C25.9596 39.802 25.6173 40.3202 25.3613 40.6555C25.1661 40.9112 24.9526 41.1507 24.7228 41.3727C25.0043 41.684 25.3818 41.8847 25.7553 41.912C26.2113 41.946 26.6733 41.6985 26.8493 41.3247C26.9188 41.1772 26.9356 41.0262 26.8943 40.9215C26.8656 40.8485 26.7943 40.8057 26.7713 40.8082C26.4901 40.8305 26.2388 40.6212 26.2153 40.3377C26.1916 40.0545 26.4023 39.8055 26.6858 39.7817C27.1811 39.743 27.6603 40.0545 27.8531 40.5445C27.9981 40.9137 27.9718 41.3577 27.7811 41.763C27.4461 42.4747 26.6621 42.9447 25.8373 42.945ZM24.6556 38.7112C24.5521 38.7112 24.4211 38.796 24.3406 38.9185C24.2383 39.0747 24.1826 39.3012 24.1706 39.6105C24.1598 39.8832 24.1836 40.1477 24.2391 40.3935C24.3453 40.2772 24.4468 40.156 24.5428 40.0302C24.8108 39.6795 24.9381 39.401 24.9436 39.1535C24.9481 38.9507 24.8176 38.7325 24.6803 38.713C24.6721 38.7117 24.6641 38.7112 24.6556 38.7112Z" fill="#BCBEC0"/>
<path d="M40.973 45.3631V51.9071C40.973 52.1203 40.9052 52.3166 40.7887 52.4743C40.7692 52.5033 40.7452 52.5326 40.721 52.5591C40.544 52.7531 40.2872 52.8766 40.0035 52.8766H33.4595C33.176 52.8766 32.9215 52.7553 32.742 52.5616C32.7177 52.5348 32.696 52.5058 32.6742 52.4743C32.558 52.3168 32.49 52.1206 32.49 51.9071V45.3631C32.49 44.8298 32.9237 44.3936 33.4595 44.3936H40.0035C40.539 44.3936 40.973 44.8298 40.973 45.3631Z" fill="#FBC99D"/>
<path d="M38.7743 52.2264H34.3718C34.1641 52.2264 33.9958 52.0582 33.9958 51.8504V51.0624C33.9958 50.1144 34.7644 49.3459 35.7126 49.3459H37.4338C38.3818 49.3459 39.1503 50.1144 39.1503 51.0624V51.8504C39.1503 52.0579 38.9821 52.2264 38.7743 52.2264Z" fill="#6B61B1"/>
<path d="M38.395 49.6399V52.2264H38.7743C38.982 52.2264 39.1503 52.0581 39.1503 51.8504V51.0624C39.1503 50.4704 38.8508 49.9484 38.395 49.6399Z" fill="#6B61B1"/>
<path d="M37.5077 49.3457L36.9884 49.1219V49.3457L36.5729 49.9929L36.1577 49.3457V49.1219L35.6384 49.3457L36.5729 51.8817L37.5077 49.3457Z" fill="#D1D3D4"/>
<path d="M35.6384 49.3457L36.0309 50.4095C36.0467 50.4525 36.1017 50.4645 36.1342 50.432L36.5732 49.993L36.1579 49.3457V49.1219L35.6384 49.3457Z" fill="white"/>
<path d="M37.5077 49.3457L37.1152 50.4095C37.0995 50.4525 37.0445 50.4645 37.012 50.432L36.573 49.993L36.9882 49.3457V49.1219L37.5077 49.3457Z" fill="white"/>
<path d="M36.573 48.7792C36.4277 48.7792 36.2882 48.7554 36.1577 48.7119V49.1674V49.3457L36.573 49.9929L36.9882 49.3457V49.2769V48.7119C36.858 48.7554 36.7182 48.7792 36.573 48.7792Z" fill="#E6E7E8"/>
<path d="M36.9208 50.3407L36.6618 50.5997C36.6128 50.6487 36.5336 50.6487 36.4846 50.5997L36.2256 50.3407L36.5733 49.9929L36.9208 50.3407Z" fill="#6B61B1"/>
<path d="M36.6618 50.5999C36.6128 50.6489 36.5336 50.6489 36.4846 50.5999L36.3958 50.5111L36.3188 51.1914L36.5733 51.8819L36.8279 51.1914L36.7509 50.5111L36.6618 50.5999Z" fill="#6B61B1"/>
<path d="M35.3474 50.4598L35.5684 50.2648C35.6094 50.2288 35.5879 50.1613 35.5336 50.1555L35.2741 50.1278C35.2336 50.1235 35.2079 50.0823 35.2219 50.044L35.4684 49.3635C35.5249 49.3553 35.5819 49.3498 35.6394 49.3478L36.5731 51.882L35.3426 50.5493C35.3189 50.5233 35.3209 50.483 35.3474 50.4598Z" fill="#6B61B1"/>
<path d="M37.799 50.4598L37.578 50.2648C37.537 50.2288 37.5585 50.1613 37.6128 50.1555L37.8723 50.1278C37.9128 50.1235 37.9383 50.0823 37.9245 50.044L37.6778 49.3635C37.6213 49.3553 37.5642 49.3498 37.5067 49.3478L36.573 51.882L37.8035 50.5493C37.8275 50.5233 37.8253 50.483 37.799 50.4598Z" fill="#6B61B1"/>
<path d="M38.0986 51.7054H37.2525C37.2038 51.7054 37.1646 51.7449 37.1646 51.7934C37.1646 51.8422 37.204 51.8814 37.2525 51.8814H38.0986C38.1473 51.8814 38.1866 51.8419 38.1866 51.7934C38.1868 51.7449 38.1473 51.7054 38.0986 51.7054Z" fill="#6B61B1"/>
<path d="M34.7511 52.2264V49.6399C34.2953 49.9484 33.9958 50.4704 33.9958 51.0621V51.8501C33.9958 52.0579 34.1641 52.2261 34.3718 52.2261H34.7511V52.2264Z" fill="#6B61B1"/>
<path d="M38.3007 46.737C38.3007 47.6913 37.5272 48.4648 36.5732 48.4648C35.619 48.4648 34.8455 47.6913 34.8455 46.737C34.8455 45.783 35.619 45.0095 36.5732 45.0095C37.5272 45.0093 38.3007 45.7828 38.3007 46.737Z" fill="#6B61B1"/>
<path d="M36.5729 48.7792C35.8499 48.7792 35.2639 48.1932 35.2639 47.4702V46.7904C35.2639 46.0674 35.8499 45.4814 36.5729 45.4814C37.2959 45.4814 37.8819 46.0674 37.8819 46.7904V47.4702C37.8822 48.1932 37.2959 48.7792 36.5729 48.7792Z" fill="white"/>
<path d="M36.573 48.7792C36.4277 48.7792 36.2882 48.7554 36.1577 48.7119V48.9614C36.2885 49.0052 36.4277 49.0299 36.573 49.0299C36.7182 49.0299 36.8577 49.0052 36.9882 48.9614V48.7119C36.858 48.7554 36.7182 48.7792 36.573 48.7792Z" fill="#D1D3D4"/>
<path d="M35.264 47.47V47.061C35.031 47.061 34.8423 47.2498 34.8423 47.4828C34.8423 47.7158 35.031 47.9045 35.264 47.9045C35.2885 47.9045 35.3123 47.9025 35.3358 47.8985C35.2893 47.7643 35.264 47.62 35.264 47.47Z" fill="white"/>
<path d="M37.8823 47.061V47.47C37.8823 47.62 37.857 47.764 37.8105 47.8983C37.8338 47.9023 37.8578 47.9043 37.8823 47.9043C38.1153 47.9043 38.304 47.7155 38.304 47.4825C38.3038 47.2498 38.115 47.061 37.8823 47.061Z" fill="white"/>
<path d="M36.5729 48.5912C35.8499 48.5912 35.2639 48.0052 35.2639 47.2822V47.4702C35.2639 48.1932 35.8499 48.7792 36.5729 48.7792C37.2959 48.7792 37.8819 48.1932 37.8819 47.4702V47.2822C37.8822 48.0052 37.2959 48.5912 36.5729 48.5912Z" fill="#E6E7E8"/>
<path d="M35.2639 46.7905V47.0482C35.7757 46.75 36.1202 46.197 36.1227 45.5625C35.6219 45.7463 35.2639 46.226 35.2639 46.7905Z" fill="#E6E7E8"/>
<path d="M37.259 47.0947C37.479 47.0947 37.6885 47.0525 37.882 46.9775V46.7902C37.882 46.0672 37.296 45.4812 36.573 45.4812C36.1945 45.4812 35.8545 45.6427 35.6155 45.8995C35.8402 46.5932 36.4907 47.0947 37.259 47.0947Z" fill="#E6E7E8"/>
<path d="M35.54 45.352C35.6268 46.225 36.3633 46.9068 37.259 46.9068C37.6463 46.9068 38.0038 46.7793 38.292 46.564C38.2053 45.691 37.4688 45.0093 36.573 45.0093C36.1858 45.0093 35.8283 45.1368 35.54 45.352Z" fill="#6B61B1"/>
<path d="M34.8455 46.7371C34.8455 46.8159 34.8512 46.8931 34.8615 46.9689C35.5892 46.7654 36.1232 46.0981 36.1232 45.3054C36.1232 45.2269 36.1175 45.1496 36.1072 45.0736C35.3795 45.2769 34.8455 45.9444 34.8455 46.7371Z" fill="#6B61B1"/>
<path d="M36.1747 47.2986C36.1747 47.3861 36.1037 47.4571 36.0162 47.4571C35.9287 47.4571 35.8577 47.3861 35.8577 47.2986C35.8577 47.2111 35.9287 47.1401 36.0162 47.1401C36.1037 47.1399 36.1747 47.2109 36.1747 47.2986Z" fill="#6B61B1"/>
<path d="M37.2464 47.4571C37.3339 47.4571 37.4049 47.3862 37.4049 47.2986C37.4049 47.2111 37.3339 47.1401 37.2464 47.1401C37.1589 47.1401 37.0879 47.2111 37.0879 47.2986C37.0879 47.3862 37.1589 47.4571 37.2464 47.4571Z" fill="#6B61B1"/>
<path d="M35.264 47.4702V47.2405C35.1302 47.2405 35.0217 47.349 35.0217 47.4827C35.0217 47.6165 35.1302 47.725 35.264 47.725C35.2725 47.725 35.2805 47.7232 35.2887 47.7225C35.2727 47.6407 35.264 47.5565 35.264 47.4702Z" fill="#E6E7E8"/>
<path d="M37.8831 47.4702V47.2405C38.0169 47.2405 38.1254 47.349 38.1254 47.4827C38.1254 47.6165 38.0169 47.725 37.8831 47.725C37.8746 47.725 37.8666 47.7232 37.8584 47.7225C37.8744 47.6407 37.8831 47.5565 37.8831 47.4702Z" fill="#E6E7E8"/>
</svg>
