<svg width="64" height="64" viewBox="0 0 64 64" fill="none" xmlns="http://www.w3.org/2000/svg">
<path d="M62 32C62 48.5685 48.5685 62 32 62C15.4315 62 2 48.5685 2 32C2 15.4315 15.4315 2 32 2C48.5685 2 62 15.4315 62 32Z" fill="#FBC99D" stroke="#6B61B1" stroke-width="4"/>
<g clip-path="url(#clip0)">
<path d="M28.2541 43.0621V45.5247C28.2541 46.4664 27.8029 47.3409 27.0617 47.8353L25.2715 49.0294H38.7284L36.9382 47.8353C36.197 47.3409 35.7458 46.4664 35.7458 45.5247V43.0621C33.2824 43.0621 30.7176 43.0621 28.2541 43.0621Z" fill="#B1DBFC"/>
<path d="M28.2541 43.0621V45.5247C28.2541 46.4664 27.8029 47.3409 27.0617 47.8353L25.2715 49.0294H29.6149L29.6527 49.0042C30.3938 48.5099 30.8451 47.6354 30.8451 46.6937V44.9889C30.8451 44.5703 31.1843 44.2311 31.6028 44.2311H35.7458V43.0621H28.2541Z" fill="#8BCAFF"/>
<path d="M39.9811 48.9431H24.0186C23.5742 48.9431 23.2139 49.3034 23.2139 49.7479V50.6491C23.2139 51.0935 23.5742 51.4538 24.0186 51.4538H39.9811C40.4256 51.4538 40.7859 51.0935 40.7859 50.6491V49.7479C40.7859 49.3034 40.4256 48.9431 39.9811 48.9431Z" fill="#DFEBFA"/>
<path d="M27.6741 50.6491V49.7479C27.6741 49.3034 28.0344 48.9431 28.4789 48.9431H24.0186C23.5742 48.9431 23.2139 49.3034 23.2139 49.7479V50.6491C23.2139 51.0935 23.5742 51.4538 24.0186 51.4538H28.4789C28.0344 51.4538 27.6741 51.0935 27.6741 50.6491Z" fill="#B1DBFC"/>
<path d="M49.6805 14.5461H14.3195C13.0405 14.5461 12 15.5866 12 16.8656V40.8489C12 42.1279 13.0405 43.1683 14.3195 43.1683H49.6805C50.9595 43.1683 52 42.1279 52 40.8489V16.8656C52 15.5866 50.9595 14.5461 49.6805 14.5461Z" fill="#695D67"/>
<path d="M14.683 40.849V16.8656C14.683 15.5866 15.7234 14.5461 17.0024 14.5461H14.3195C13.0405 14.5461 12 15.5866 12 16.8656V40.8489C12 42.1279 13.0405 43.1683 14.3195 43.1683H17.0023C15.7234 43.1684 14.683 42.1279 14.683 40.849Z" fill="#554E56"/>
<path d="M14.5107 19.8809V20.0418V40.3239C14.5107 40.5083 14.6601 40.6577 14.8445 40.6577H49.1556C49.3399 40.6577 49.4893 40.5083 49.4893 40.3239C49.4893 39.7832 49.4893 25.7737 49.4893 19.8809H14.5107Z" fill="#DFEBFA"/>
<path d="M16.9254 40.3239V20.0418V19.8809H14.5107V20.0418V40.3239C14.5107 40.5083 14.6601 40.6577 14.8445 40.6577H17.2591C17.0748 40.6577 16.9254 40.5083 16.9254 40.3239Z" fill="#B1DBFC"/>
<path d="M49.1555 17.0569H18.0547V20.0419H49.4892C49.4892 18.6448 49.4892 17.6717 49.4892 17.3906C49.4892 17.2063 49.3398 17.0569 49.1555 17.0569Z" fill="#5CB3F8"/>
<path d="M18.1353 17.0569H14.8445C14.6602 17.0569 14.5107 17.2063 14.5107 17.3906V20.0419H18.1353V17.0569Z" fill="#FF656F"/>
<path d="M17.259 17.0569H14.8445C14.6602 17.0569 14.5107 17.2063 14.5107 17.3906V20.0419H16.9253V17.3906C16.9253 17.2063 17.0747 17.0569 17.259 17.0569Z" fill="#FF4756"/>
<path d="M32.5172 32.0259C32.0709 32.2495 31.5452 32.2495 31.0988 32.0259L24.8574 28.8987V33.6731C24.9365 33.7404 25.0206 33.8026 25.1142 33.8531C27.1068 34.9275 29.3856 35.539 31.8081 35.539C34.2306 35.539 36.5093 34.9275 38.5019 33.8531C38.5955 33.8026 38.6796 33.7404 38.7587 33.6731V28.8987L32.5172 32.0259Z" fill="#6E60B8"/>
<path d="M27.7605 30.3532L24.8574 28.8987V33.673C24.9365 33.7404 25.0206 33.8026 25.1142 33.853C25.9493 34.3034 26.8352 34.6711 27.7605 34.9478V30.3532Z" fill="#6353B2"/>
<path d="M38.5019 33.6116C36.5093 34.6861 34.2306 35.2976 31.808 35.2976C29.3855 35.2976 27.1068 34.6861 25.1142 33.6116C25.0206 33.5612 24.9365 33.499 24.8574 33.4316V35.0668C24.8574 35.5932 25.1383 36.0855 25.6016 36.3355C27.4491 37.3316 29.5619 37.8987 31.808 37.8987C34.0542 37.8987 36.167 37.3317 38.0145 36.3355C38.4778 36.0856 38.7587 35.5932 38.7587 35.0668V33.4316C38.6796 33.499 38.5955 33.5612 38.5019 33.6116Z" fill="#9790CC"/>
<path d="M27.7605 34.7064C26.8353 34.4297 25.9494 34.062 25.1142 33.6116C25.0206 33.5612 24.9365 33.499 24.8574 33.4316V35.0668C24.8574 35.5932 25.1383 36.0855 25.6016 36.3355C26.287 36.705 27.0089 37.0151 27.7604 37.2595V34.7064H27.7605Z" fill="#8479C2"/>
<path d="M41.5008 26.5946L32.5173 22.0935C32.0709 21.8699 31.5452 21.8699 31.0989 22.0935L22.1153 26.5946C21.5999 26.8529 21.5999 27.5885 22.1153 27.8467L31.0989 32.3478C31.5452 32.5715 32.0709 32.5715 32.5173 32.3478L41.5008 27.8467C42.0162 27.5885 42.0162 26.8529 41.5008 26.5946Z" fill="#9790CC"/>
<path d="M41.5008 26.5946L32.5173 22.0935C32.0709 21.8699 31.5452 21.8699 31.0989 22.0935L22.1153 26.5946C21.5999 26.8529 21.5999 27.5885 22.1153 27.8467L31.0989 32.3478C31.5452 32.5715 32.0709 32.5715 32.5173 32.3478L41.5008 27.8467C42.0162 27.5885 42.0162 26.8529 41.5008 26.5946Z" fill="#9790CC"/>
<path d="M34.0182 30.9452L24.7118 26.2824C24.3933 26.1228 24.2664 25.7875 24.3278 25.486L22.1151 26.5946C21.5997 26.8529 21.5997 27.5885 22.1151 27.8467L31.0987 32.3478C31.545 32.5715 32.0707 32.5715 32.517 32.3478L35.0117 31.0979C34.6767 31.1514 34.3289 31.1009 34.0182 30.9452Z" fill="#8479C2"/>
<path d="M41.8874 34.3173C41.554 34.3173 41.2838 34.0471 41.2838 33.7137V27.8243H32.5889C32.2556 27.8243 31.9854 27.554 31.9854 27.2207C31.9854 26.8873 32.2556 26.6171 32.5889 26.6171H41.8874C42.2208 26.6171 42.491 26.8873 42.491 27.2207V33.7137C42.491 34.0471 42.2208 34.3173 41.8874 34.3173Z" fill="#6353B2"/>
<path d="M43.5177 37.7952L42.8042 34.9121C42.5873 35.1807 42.2593 35.3559 41.8873 35.3559C41.5152 35.3559 41.1873 35.1807 40.9704 34.9122L40.2569 37.7952C40.1125 38.3463 40.5282 38.8849 41.0977 38.8849H42.6768C43.2464 38.8848 43.6621 38.3462 43.5177 37.7952Z" fill="#FEC458"/>
<path d="M41.7056 37.7952L42.3316 35.2658C42.1946 35.3228 42.0453 35.356 41.8873 35.356C41.5152 35.356 41.1873 35.1807 40.9704 34.9122L40.2569 37.7953C40.1125 38.3463 40.5282 38.885 41.0977 38.885H42.5464C41.9768 38.8849 41.5611 38.3463 41.7056 37.7952Z" fill="#F9AB49"/>
<path d="M31.8079 28.4041C32.4614 28.4041 32.9912 27.8743 32.9912 27.2207C32.9912 26.5672 32.4614 26.0374 31.8079 26.0374C31.1543 26.0374 30.6245 26.5672 30.6245 27.2207C30.6245 27.8743 31.1543 28.4041 31.8079 28.4041Z" fill="#8479C2"/>
<path d="M43.0707 34.3337C43.0707 34.714 42.8913 35.0525 42.6125 35.2689C42.4121 35.4244 41.3972 34.3337 41.3972 34.3337C41.3972 34.3337 42.4121 33.2429 42.6125 33.3985C42.8914 33.6149 43.0707 33.9533 43.0707 34.3337Z" fill="#FFE181"/>
<path d="M42.1526 34.3337C42.1526 33.9534 42.3328 33.6159 42.6116 33.3994C42.4113 33.2439 42.1604 33.1504 41.8872 33.1504C41.2337 33.1504 40.7039 33.6802 40.7039 34.3337C40.7039 34.9873 41.2336 35.5171 41.8872 35.5171C42.1604 35.5171 42.4113 35.4236 42.6116 35.2681C42.3328 35.0515 42.1526 34.714 42.1526 34.3337Z" fill="#FEC458"/>
</g>
<defs>
<clipPath id="clip0">
<rect width="40" height="40" fill="white" transform="translate(12 13)"/>
</clipPath>
</defs>
</svg>
