<svg width="64" height="64" viewBox="0 0 64 64" fill="none" xmlns="http://www.w3.org/2000/svg">
<path d="M32 62C48.5685 62 62 48.5685 62 32C62 15.4315 48.5685 2 32 2C15.4315 2 2 15.4315 2 32C2 48.5685 15.4315 62 32 62Z" fill="#6B61B1"/>
<path d="M32 57.625C46.1523 57.625 57.625 46.1523 57.625 32C57.625 17.8477 46.1523 6.375 32 6.375C17.8477 6.375 6.375 17.8477 6.375 32C6.375 46.1523 17.8477 57.625 32 57.625Z" fill="#FBC99D"/>
<path d="M48.0962 21.7478H31.5662C30.6487 18.8965 27.9745 16.8333 24.818 16.8333C21.6617 16.8333 18.9872 18.8965 18.0697 21.7478H15.9037C14.709 21.7478 13.7402 22.7163 13.7402 23.9113V45.546C13.7402 46.7408 14.7087 47.7095 15.9037 47.7095H27.3C26.911 48.4475 26.691 49.2885 26.691 50.1805C26.691 53.1125 29.068 55.4895 32 55.4895C34.932 55.4895 37.309 53.1128 37.309 50.1805C37.309 49.2883 37.089 48.4475 36.7 47.7095H48.0962C49.291 47.7095 50.2597 46.741 50.2597 45.546V23.9113C50.2597 22.7165 49.291 21.7478 48.0962 21.7478Z" fill="#382B73"/>
<path d="M48.0962 45.9596H15.9037C14.709 45.9596 13.7402 44.9908 13.7402 43.7961V22.1613C13.7402 20.9663 14.7087 19.9978 15.9037 19.9978H48.0962C49.291 19.9978 50.2597 20.9663 50.2597 22.1613V43.7961C50.2597 44.9908 49.291 45.9596 48.0962 45.9596Z" fill="#E6E7E8"/>
<path d="M47.6346 44.6613H16.3652C15.5844 44.6613 14.9517 44.0285 14.9517 43.2478V22.7093C14.9517 21.9285 15.5844 21.2958 16.3652 21.2958H47.6344C48.4149 21.2958 49.0479 21.9285 49.0479 22.7093V43.2478C49.0481 44.0285 48.4151 44.6613 47.6346 44.6613Z" fill="white"/>
<path d="M37.4294 29.7258H36.5299H34.5581H33.6586C33.4294 29.7258 33.2439 29.9116 33.2439 30.1406V42.5426C33.2439 42.7718 33.4296 42.9573 33.6586 42.9573H34.5581H36.5299H37.4294C37.6586 42.9573 37.8441 42.7716 37.8441 42.5426V30.1406C37.8441 29.9116 37.6584 29.7258 37.4294 29.7258Z" fill="#D0D2D3"/>
<path d="M30.3369 33.0446H29.4374H27.4656H26.5661C26.3369 33.0446 26.1511 33.2303 26.1511 33.4596V42.5428C26.1511 42.7721 26.3369 42.9576 26.5661 42.9576H27.4656H29.4374H30.3369C30.5661 42.9576 30.7516 42.7718 30.7516 42.5428V33.4596C30.7516 33.2303 30.5659 33.0446 30.3369 33.0446Z" fill="#D0D2D3"/>
<path d="M23.2734 36.3635H22.3739H20.4024H19.5029C19.2739 36.3635 19.0881 36.5493 19.0881 36.7785V42.5428C19.0881 42.772 19.2739 42.9575 19.5029 42.9575H20.4024H22.3741H23.2736C23.5026 42.9575 23.6884 42.7718 23.6884 42.5428V36.7785C23.6884 36.5493 23.5026 36.3635 23.2734 36.3635Z" fill="#D0D2D3"/>
<path d="M46.853 29.0511L43.176 23.3518C43.0125 23.0986 42.6423 23.0986 42.4788 23.3518L38.8018 29.0511C38.6238 29.3271 38.8218 29.6908 39.1503 29.6908H40.311V42.5426C40.311 42.7718 40.4968 42.9573 40.7258 42.9573H41.6253H43.5968H44.4963C44.7253 42.9573 44.911 42.7716 44.911 42.5426V30.5206V29.6908H46.5038C46.833 29.6908 47.0313 29.3273 46.853 29.0511Z" fill="#D0D2D3"/>
<path d="M40.7265 25.8617H43.5978V42.1277H40.7265C40.4975 42.1277 40.3118 41.942 40.3118 41.713V26.2767C40.3115 26.0474 40.4973 25.8617 40.7265 25.8617Z" fill="#FBC99D"/>
<path d="M41.626 25.8617H44.4972C44.7262 25.8617 44.912 26.0474 44.912 26.2764V41.7127C44.912 41.9417 44.7262 42.1275 44.4972 42.1275H41.626V25.8617Z" fill="#F8AF6D"/>
<path d="M33.6586 28.896H36.5299V42.1277H33.6586C33.4294 42.1277 33.2439 41.942 33.2439 41.713V29.311C33.2436 29.0817 33.4294 28.896 33.6586 28.896Z" fill="#009ADD"/>
<path d="M34.5583 28.896H37.4296C37.6588 28.896 37.8443 29.0817 37.8443 29.3107V41.7127C37.8443 41.9417 37.6586 42.1275 37.4296 42.1275H34.5583V28.896Z" fill="#1CAEE4"/>
<path d="M26.5664 32.2147H29.4376V42.1277H26.5664C26.3371 42.1277 26.1514 41.942 26.1514 41.713V32.6297C26.1514 32.4005 26.3371 32.2147 26.5664 32.2147Z" fill="#009ADD"/>
<path d="M27.4658 32.2147H30.3371C30.5663 32.2147 30.7518 32.4005 30.7518 32.6295V41.7127C30.7518 41.9417 30.5661 42.1275 30.3371 42.1275H27.4658V32.2147Z" fill="#1CAEE4"/>
<path d="M19.5026 35.5337H22.3739V42.1277H19.5026C19.2736 42.1277 19.0879 41.9419 19.0879 41.7129V35.9487C19.0879 35.7194 19.2736 35.5337 19.5026 35.5337Z" fill="#009ADD"/>
<path d="M20.4026 35.5337H23.2738C23.5028 35.5337 23.6886 35.7194 23.6886 35.9484V41.7127C23.6886 41.9417 23.5028 42.1274 23.2738 42.1274H20.4026V35.5337Z" fill="#1CAEE4"/>
<path d="M46.5049 28.8613H39.1509C38.8224 28.8613 38.6241 28.4976 38.8024 28.2216L42.4794 22.5223C42.6429 22.2691 43.0131 22.2691 43.1766 22.5223L46.8536 28.2216C47.0316 28.4976 46.8334 28.8613 46.5049 28.8613Z" fill="#F8AF6D"/>
<path d="M46.6993 27.9827C46.6423 28.0129 46.5768 28.0314 46.5048 28.0314H39.1508C39.0785 28.0314 39.0133 28.0129 38.9563 27.9827L38.8023 28.2214C38.6243 28.4974 38.8223 28.8612 39.1508 28.8612H46.5048C46.8333 28.8612 47.0315 28.4974 46.8533 28.2214L46.6993 27.9827Z" fill="#FBC99D"/>
<path d="M17.7302 24.0913C17.7302 28.0058 20.9035 31.1791 24.818 31.1791C28.7325 31.1791 31.9057 28.0058 31.9057 24.0913V23.0008C31.9057 19.0863 28.7325 15.9131 24.818 15.9131C20.9035 15.9131 17.7302 19.0863 17.7302 23.0008V24.0913Z" fill="#D1D3D4"/>
<path d="M17.7302 23.2615C17.7302 27.176 20.9035 30.3493 24.818 30.3493C28.7325 30.3493 31.9057 27.176 31.9057 23.2615V22.171C31.9057 18.2565 28.7325 15.0833 24.818 15.0833C20.9035 15.0833 17.7302 18.2565 17.7302 22.171V23.2615Z" fill="#D6B1FF"/>
<path d="M29.8241 27.1823C32.5917 24.4148 32.5917 19.9277 29.8241 17.1602C27.0566 14.3927 22.5696 14.3927 19.8021 17.1602C17.0345 19.9277 17.0345 24.4148 19.8021 27.1823C22.5696 29.9498 27.0566 29.9498 29.8241 27.1823Z" fill="#573F7B"/>
<path d="M28.5711 25.9295C30.6467 23.8539 30.6467 20.4886 28.5711 18.413C26.4955 16.3374 23.1302 16.3374 21.0546 18.413C18.979 20.4886 18.979 23.8539 21.0546 25.9295C23.1302 28.0051 26.4955 28.0051 28.5711 25.9295Z" fill="#BFACEC"/>
<path d="M24.8179 17.249C27.6872 17.249 30.0192 19.524 30.1237 22.3677C30.1262 22.302 30.1337 22.2372 30.1337 22.171C30.1337 19.2352 27.7537 16.8552 24.8179 16.8552C21.8822 16.8552 19.5022 19.2352 19.5022 22.171C19.5022 22.2375 19.5097 22.302 19.5122 22.3677C19.6164 19.524 21.9487 17.249 24.8179 17.249Z" fill="#D6B1FF"/>
<path d="M27.0507 23.7468C27.0507 23.4025 26.982 23.0985 26.8467 22.843C26.7115 22.588 26.5082 22.3663 26.2422 22.184C25.9917 22.0125 25.6142 21.842 25.088 21.6635C24.5297 21.4738 24.2725 21.3043 24.155 21.1953C24.0692 21.116 24.0115 21.0153 23.9797 20.8913C23.968 20.845 23.968 20.7945 23.98 20.7483C24.0155 20.6093 24.0832 20.4938 24.184 20.399C24.3472 20.246 24.5807 20.1715 24.898 20.1715C25.2002 20.1715 25.4282 20.2635 25.595 20.4525C25.7722 20.6538 25.8585 20.9283 25.8585 21.292C25.8585 21.4698 26.0025 21.614 26.1805 21.614H26.6825C26.8602 21.614 27.0045 21.47 27.0045 21.292C27.0045 21.2775 27.002 21.265 27.0017 21.2505H27.0045V20.9285C27.0045 20.2943 26.8425 19.7785 26.5227 19.3953C26.2992 19.1278 26.0137 18.938 25.6697 18.828C25.5375 18.7858 25.448 18.6625 25.448 18.5238V18.2368V18.1953C25.448 18.0175 25.3037 17.8733 25.126 17.8733H24.6957C24.518 17.8733 24.3737 18.0175 24.3737 18.1953V18.2368V18.5153C24.3737 18.6558 24.2825 18.7813 24.1477 18.821C23.821 18.9178 23.5435 19.0808 23.319 19.3085C22.9777 19.655 22.8045 20.1065 22.8045 20.6503C22.8045 20.7148 22.8142 20.774 22.8192 20.8358C22.8147 20.8953 22.8045 20.9518 22.8045 21.0138C22.8045 21.5318 22.9627 21.964 23.2747 22.2985C23.5722 22.6173 24.055 22.8783 24.742 23.0938C25.32 23.294 25.5785 23.4703 25.6935 23.5828C25.764 23.6518 25.8152 23.7313 25.8492 23.8218C25.8785 23.8998 25.876 23.9865 25.8447 24.0638C25.8017 24.1703 25.7332 24.2625 25.6367 24.3448C25.4432 24.509 25.192 24.5888 24.8685 24.5888C24.494 24.5888 24.2167 24.4965 24.0215 24.3065C23.8287 24.1193 23.7352 23.8573 23.7352 23.506C23.7352 23.3283 23.591 23.184 23.4132 23.184H22.907C22.7292 23.184 22.585 23.3283 22.585 23.506C22.585 23.5205 22.588 23.533 22.5882 23.5475H22.585V23.8695C22.585 24.5075 22.7717 25.0235 23.1397 25.4035C23.3962 25.668 23.725 25.8515 24.1212 25.9518C24.2625 25.9875 24.3607 26.1158 24.3607 26.2615V26.4688V26.5103C24.3607 26.688 24.5047 26.8323 24.6827 26.8323H25.1087C25.2865 26.8323 25.4307 26.6883 25.4307 26.5103V26.4688V26.2465C25.4307 26.1043 25.5242 25.9775 25.6612 25.9393C26.0022 25.8443 26.2905 25.6825 26.5217 25.4558C26.8727 25.1118 27.0505 24.659 27.0505 24.1103C27.0505 24.0325 27.046 23.9575 27.039 23.884C27.042 23.8375 27.0507 23.7945 27.0507 23.7468Z" fill="#D6B1FF"/>
<path d="M26.8467 22.8428C26.7115 22.5878 26.5082 22.366 26.2422 22.1838C25.9917 22.012 25.6142 21.8418 25.088 21.6633C24.5295 21.4735 24.2725 21.304 24.155 21.195C24.0172 21.0675 23.9502 20.8858 23.9502 20.6393C23.9502 20.3805 24.0267 20.183 24.184 20.0353C24.3472 19.8823 24.5807 19.8078 24.898 19.8078C25.2002 19.8078 25.4285 19.8998 25.595 20.0888C25.7722 20.29 25.8585 20.5645 25.8585 20.9283C25.8585 21.106 26.0025 21.2503 26.1805 21.2503H26.6825C26.8602 21.2503 27.0045 21.106 27.0045 20.9283C27.0045 20.294 26.8425 19.7783 26.5227 19.395C26.2992 19.1275 26.0137 18.9378 25.6697 18.8278C25.5375 18.7855 25.448 18.6623 25.448 18.5235V18.195C25.448 18.0173 25.304 17.873 25.126 17.873H24.6957C24.518 17.873 24.3737 18.0173 24.3737 18.195V18.515C24.3737 18.6555 24.2825 18.781 24.1477 18.8208C23.821 18.9175 23.5435 19.0805 23.319 19.3083C22.9777 19.6545 22.8045 20.106 22.8045 20.65C22.8045 21.168 22.9627 21.6003 23.2747 21.9348C23.5722 22.2533 24.055 22.5145 24.742 22.73C25.32 22.9303 25.5785 23.1065 25.6935 23.219C25.8327 23.3553 25.9005 23.5305 25.9005 23.7545C25.9005 24.004 25.8167 24.1915 25.6367 24.3443C25.4432 24.5085 25.192 24.5883 24.8685 24.5883C24.4937 24.5883 24.2167 24.496 24.0215 24.306C23.8287 24.1188 23.7352 23.8568 23.7352 23.5055C23.7352 23.3278 23.591 23.1835 23.4132 23.1835H22.907C22.7292 23.1835 22.585 23.3278 22.585 23.5055C22.585 24.1435 22.7717 24.6595 23.1397 25.0395C23.3962 25.304 23.725 25.4875 24.1212 25.5878C24.2625 25.6235 24.3607 25.7518 24.3607 25.8975V26.1463C24.3607 26.324 24.5047 26.4683 24.6827 26.4683H25.1087C25.2865 26.4683 25.4307 26.3243 25.4307 26.1463V25.8825C25.4307 25.7403 25.5242 25.6135 25.6612 25.5753C26.0022 25.4803 26.2905 25.3185 26.5217 25.0918C26.8727 24.7478 27.0505 24.295 27.0505 23.7463C27.0507 23.4025 26.9822 23.0985 26.8467 22.8428Z" fill="#D1D3D4"/>
<path d="M26.8467 22.4793C26.7115 22.2243 26.5082 22.0025 26.2422 21.8205C25.9917 21.6488 25.6142 21.4785 25.088 21.3C24.5295 21.1103 24.2725 20.9408 24.155 20.8318C24.0172 20.7043 23.9502 20.5225 23.9502 20.276C23.9502 20.0173 24.0267 19.8198 24.184 19.6723C24.3472 19.519 24.5807 19.4448 24.898 19.4448C25.2002 19.4448 25.4285 19.5368 25.595 19.7258C25.7722 19.927 25.8585 20.2015 25.8585 20.5653C25.8585 20.743 26.0025 20.8873 26.1805 20.8873H26.6825C26.8602 20.8873 27.0045 20.743 27.0045 20.5653C27.0045 19.931 26.8425 19.4153 26.5227 19.032C26.2992 18.7645 26.0137 18.5748 25.6697 18.4648C25.5375 18.4225 25.448 18.2993 25.448 18.1605V17.832C25.448 17.6543 25.304 17.51 25.126 17.51H24.6957C24.518 17.51 24.3737 17.6543 24.3737 17.832V18.152C24.3737 18.2925 24.2825 18.418 24.1477 18.4578C23.821 18.5545 23.5435 18.7175 23.319 18.9453C22.9777 19.2918 22.8045 19.7433 22.8045 20.287C22.8045 20.805 22.9627 21.2373 23.2747 21.5718C23.5722 21.8903 24.055 22.1515 24.742 22.367C25.32 22.5673 25.5785 22.7435 25.6935 22.856C25.8327 22.9923 25.9005 23.1675 25.9005 23.3915C25.9005 23.641 25.8167 23.8285 25.6367 23.9813C25.4432 24.1455 25.192 24.2253 24.8685 24.2253C24.4937 24.2253 24.2167 24.133 24.0215 23.943C23.8287 23.7558 23.7352 23.4938 23.7352 23.1425C23.7352 22.9648 23.591 22.8205 23.4132 22.8205H22.907C22.7292 22.8205 22.585 22.9648 22.585 23.1425C22.585 23.7805 22.7717 24.2965 23.1397 24.6765C23.3962 24.941 23.725 25.1245 24.1212 25.2248C24.2625 25.2605 24.3607 25.3888 24.3607 25.5345V25.7833C24.3607 25.961 24.5047 26.1053 24.6827 26.1053H25.1087C25.2865 26.1053 25.4307 25.9613 25.4307 25.7833V25.5195C25.4307 25.3773 25.5242 25.2505 25.6612 25.2123C26.0022 25.1173 26.2905 24.9555 26.5217 24.7288C26.8727 24.3848 27.0505 23.932 27.0505 23.3833C27.0507 23.039 26.9822 22.735 26.8467 22.4793Z" fill="#573F7B"/>
<path d="M37.1615 49.6715C37.8359 46.8186 36.0698 43.9591 33.2169 43.2848C30.364 42.6104 27.5046 44.3764 26.8302 47.2294C26.1558 50.0823 27.9219 52.9417 30.7748 53.6161C33.6277 54.2905 36.4871 52.5244 37.1615 49.6715Z" fill="#EF5A9D"/>
<path d="M31.543 51.5097C31.2832 51.5097 31.0335 51.4065 30.8497 51.2225L28.933 49.306C28.55 48.9232 28.55 48.3025 28.933 47.9195C29.316 47.5365 29.9365 47.5365 30.3195 47.9195L31.5432 49.1425L34.0225 46.663C34.4055 46.28 35.026 46.28 35.409 46.663C35.792 47.0457 35.792 47.6665 35.409 48.0495L32.2367 51.2225C32.0525 51.4062 31.8035 51.5097 31.543 51.5097Z" fill="#E43D91"/>
<path d="M31.543 51.0932C31.2832 51.0932 31.0335 50.9897 30.8497 50.806L28.933 48.8895C28.55 48.5067 28.55 47.886 28.933 47.503C29.316 47.12 29.9365 47.12 30.3195 47.503L31.5432 48.726L34.0225 46.2465C34.4055 45.8635 35.026 45.8635 35.409 46.2465C35.792 46.6292 35.792 47.25 35.409 47.633L32.2367 50.806C32.0525 50.99 31.8035 51.0932 31.543 51.0932Z" fill="#FFF335"/>
<path d="M35.4085 46.3118L32.2363 49.4848C32.0525 49.6685 31.8035 49.772 31.543 49.772C31.2833 49.772 31.0335 49.6685 30.8498 49.4848L28.933 47.5683C28.923 47.558 28.916 47.5463 28.9065 47.5358C28.5535 47.9205 28.5603 48.517 28.933 48.8895L30.8498 50.806C31.0335 50.9898 31.2833 51.0933 31.543 51.0933C31.8035 51.0933 32.0523 50.9898 32.2363 50.806L35.4085 47.633C35.7813 47.2603 35.7883 46.6638 35.4353 46.2793C35.4255 46.2898 35.4188 46.3018 35.4085 46.3118Z" fill="#F7CB15"/>
</svg>
