<svg width="64" height="64" viewBox="0 0 64 64" fill="none" xmlns="http://www.w3.org/2000/svg">
<path d="M32 62C48.5685 62 62 48.5685 62 32C62 15.4315 48.5685 2 32 2C15.4315 2 2 15.4315 2 32C2 48.5685 15.4315 62 32 62Z" fill="#6B61B1"/>
<path d="M32 57.625C46.1523 57.625 57.625 46.1523 57.625 32C57.625 17.8477 46.1523 6.375 32 6.375C17.8477 6.375 6.375 17.8477 6.375 32C6.375 46.1523 17.8477 57.625 32 57.625Z" fill="#FBC99D"/>
<path d="M43.7141 15.2965H35.2886C35.0609 14.7777 34.7159 14.3222 34.2846 13.9662C34.0186 13.7467 33.7204 13.5647 33.3981 13.4282C33.1834 13.3375 32.9576 13.2667 32.7239 13.219C32.4901 13.1712 32.2479 13.146 32.0001 13.146C31.1324 13.146 30.3364 13.4537 29.7154 13.9662C29.2841 14.3222 28.9391 14.7777 28.7114 15.2965H20.2856C19.7334 15.2965 19.2856 15.7442 19.2856 16.2965V17.2965V50.2035V51.2035C19.2856 51.7557 19.7334 52.2035 20.2856 52.2035H43.7139C44.2661 52.2035 44.7139 51.7557 44.7139 51.2035V50.2035V17.2965V16.2965C44.7141 15.7442 44.2664 15.2965 43.7141 15.2965Z" fill="#382B73"/>
<path d="M43.7141 50.4535H20.2856C19.7334 50.4535 19.2856 50.0058 19.2856 49.4535V15.5465C19.2856 14.9943 19.7334 14.5465 20.2856 14.5465H43.7139C44.2661 14.5465 44.7139 14.9943 44.7139 15.5465V49.4535C44.7141 50.0058 44.2664 50.4535 43.7141 50.4535Z" fill="#D6B1FF"/>
<path d="M43.7141 49.4535H20.2856C19.7334 49.4535 19.2856 49.0058 19.2856 48.4535V14.5465C19.2856 13.9943 19.7334 13.5465 20.2856 13.5465H43.7139C44.2661 13.5465 44.7139 13.9943 44.7139 14.5465V48.4535C44.7141 49.0058 44.2664 49.4535 43.7141 49.4535Z" fill="#573F7B"/>
<path d="M43.1826 45.9786H20.8171C20.5411 45.9786 20.3171 45.7548 20.3171 45.4786V15.8031C20.3171 15.5269 20.5411 15.3031 20.8171 15.3031H43.1824C43.4586 15.3031 43.6824 15.5269 43.6824 15.8031V45.4786C43.6826 45.7548 43.4586 45.9786 43.1826 45.9786Z" fill="white"/>
<path d="M33.375 48.1875H30.625C30.3487 48.1875 30.125 47.9638 30.125 47.6875V47.6458C30.125 47.3698 30.3487 47.1458 30.625 47.1458H33.375C33.6512 47.1458 33.875 47.3698 33.875 47.6458V47.6875C33.875 47.9638 33.6512 48.1875 33.375 48.1875Z" fill="#D6B1FF"/>
<path d="M26.9551 44.5482C29.2563 44.5482 31.1218 42.6827 31.1218 40.3815C31.1218 38.0802 29.2563 36.2147 26.9551 36.2147C24.6538 36.2147 22.7883 38.0802 22.7883 40.3815C22.7883 42.6827 24.6538 44.5482 26.9551 44.5482Z" fill="#F8AF6D"/>
<path d="M30.7606 42.0737L26.9553 40.3815L28.0536 44.397C29.2658 44.066 30.2571 43.204 30.7606 42.0737Z" fill="#FDE4CE"/>
<path d="M26.9551 40.3815L30.7603 42.0737C30.9908 41.5562 31.1216 40.9845 31.1216 40.3815C31.1216 38.9507 30.3998 37.6892 29.3013 36.939L26.9551 40.3815Z" fill="#FBC99D"/>
<path d="M38.2546 38.0187H33.5728C33.3181 38.0187 33.1116 37.8122 33.1116 37.5574C33.1116 37.3027 33.3181 37.0962 33.5728 37.0962H38.2546C38.5093 37.0962 38.7158 37.3027 38.7158 37.5574C38.7158 37.8122 38.5093 38.0187 38.2546 38.0187Z" fill="#D1D3D4"/>
<path d="M36.2546 39.9674H33.5728C33.3181 39.9674 33.1116 39.7609 33.1116 39.5062C33.1116 39.2514 33.3181 39.0449 33.5728 39.0449H36.2546C36.5093 39.0449 36.7158 39.2514 36.7158 39.5062C36.7158 39.7609 36.5093 39.9674 36.2546 39.9674Z" fill="#D1D3D4"/>
<path d="M39.5256 41.9165H33.5731C33.3183 41.9165 33.1118 41.71 33.1118 41.4553C33.1118 41.2005 33.3183 40.994 33.5731 40.994H39.5256C39.7803 40.994 39.9868 41.2005 39.9868 41.4553C39.9868 41.7098 39.7803 41.9165 39.5256 41.9165Z" fill="#D1D3D4"/>
<path d="M40.8851 43.8653H33.5731C33.3183 43.8653 33.1118 43.6588 33.1118 43.404C33.1118 43.1493 33.3183 42.9427 33.5731 42.9427H40.8851C41.1398 42.9427 41.3463 43.1493 41.3463 43.404C41.3463 43.6588 41.1398 43.8653 40.8851 43.8653Z" fill="#D1D3D4"/>
<path d="M20.3171 26.375H43.6824V34.9582H20.3171V26.375Z" fill="#D1D3D4"/>
<path d="M26.9736 28.9562H22.2921C22.0373 28.9562 21.8308 28.7497 21.8308 28.4949C21.8308 28.2402 22.0373 28.0337 22.2921 28.0337H26.9738C27.2286 28.0337 27.4351 28.2402 27.4351 28.4949C27.4348 28.7497 27.2283 28.9562 26.9736 28.9562Z" fill="white"/>
<path d="M41.1951 31.2842H22.2921C22.0373 31.2842 21.8308 31.0777 21.8308 30.8229C21.8308 30.5682 22.0373 30.3617 22.2921 30.3617H41.1951C41.4498 30.3617 41.6563 30.5682 41.6563 30.8229C41.6563 31.0777 41.4498 31.2842 41.1951 31.2842Z" fill="white"/>
<path d="M41.1951 33.2333H22.2921C22.0373 33.2333 21.8308 33.0268 21.8308 32.772C21.8308 32.5173 22.0373 32.3108 22.2921 32.3108H41.1951C41.4498 32.3108 41.6563 32.5173 41.6563 32.772C41.6563 33.0268 41.4498 33.2333 41.1951 33.2333Z" fill="white"/>
<path d="M43.1826 15.3031H20.8171C20.5411 15.3031 20.3171 15.5269 20.3171 15.8031V26.3751H43.6824V15.8031C43.6826 15.5269 43.4586 15.3031 43.1826 15.3031Z" fill="#E6E7E8"/>
<path d="M23.0991 15.3031H24.0991V26.3751H23.0991V15.3031Z" fill="white"/>
<path d="M27.2996 15.3031H28.2996V26.3751H27.2996V15.3031Z" fill="white"/>
<path d="M31.5 15.3031H32.5V26.3751H31.5V15.3031Z" fill="white"/>
<path d="M35.7007 15.3031H36.7007V26.3751H35.7007V15.3031Z" fill="white"/>
<path d="M39.9009 15.3031H40.9009V26.3751H39.9009V15.3031Z" fill="white"/>
<path d="M23.5996 24.3222C23.4176 24.3222 23.2396 24.2315 23.1359 24.0657C22.9754 23.8097 23.0529 23.4722 23.3089 23.312L27.5094 20.6802C27.6871 20.569 27.9124 20.569 28.0901 20.6802L31.9889 23.123L40.0949 17.6485C40.3446 17.4795 40.6851 17.545 40.8541 17.7957C41.0231 18.046 40.9574 18.386 40.7071 18.555L32.3064 24.2287C32.1271 24.3497 31.8934 24.354 31.7099 24.239L27.7999 21.7892L23.8899 24.239C23.7994 24.2952 23.6989 24.3222 23.5996 24.3222Z" fill="#6B61B1"/>
<path d="M24.7679 23.8825C24.7679 24.528 24.2447 25.0515 23.5989 25.0515C22.9534 25.0515 22.4299 24.5283 22.4299 23.8825C22.4299 23.237 22.9532 22.7135 23.5989 22.7135C24.2447 22.7138 24.7679 23.237 24.7679 23.8825Z" fill="#FBC99D"/>
<path d="M28.9686 21.2508C28.9686 21.8963 28.4454 22.4198 27.7996 22.4198C27.1541 22.4198 26.6306 21.8965 26.6306 21.2508C26.6306 20.6053 27.1539 20.0818 27.7996 20.0818C28.4451 20.082 28.9686 20.6053 28.9686 21.2508Z" fill="#FBC99D"/>
<path d="M33.1691 23.7117C33.1691 24.3572 32.6458 24.8807 32.0001 24.8807C31.3546 24.8807 30.8311 24.3575 30.8311 23.7117C30.8311 23.0662 31.3543 22.5427 32.0001 22.5427C32.6456 22.5427 33.1691 23.066 33.1691 23.7117Z" fill="#FBC99D"/>
<path d="M37.3693 20.9205C37.3693 21.566 36.846 22.0895 36.2002 22.0895C35.5547 22.0895 35.0312 21.5662 35.0312 20.9205C35.0312 20.275 35.5545 19.7515 36.2002 19.7515C36.846 19.7515 37.3693 20.2747 37.3693 20.9205Z" fill="#FBC99D"/>
<path d="M41.5697 18.2089C41.5697 18.8544 41.0464 19.3779 40.4007 19.3779C39.7552 19.3779 39.2317 18.8547 39.2317 18.2089C39.2317 17.5632 39.7549 17.0399 40.4007 17.0399C41.0464 17.0399 41.5697 17.5632 41.5697 18.2089Z" fill="#FBC99D"/>
<path d="M28.4082 15.5405C28.4082 17.5242 30.0162 19.1322 31.9999 19.1322C33.9837 19.1322 35.5917 17.5242 35.5917 15.5405V14.988C35.5917 13.0042 33.9837 11.3962 31.9999 11.3962C30.0162 11.3962 28.4082 13.0042 28.4082 14.988V15.5405Z" fill="#BFACEC"/>
<path d="M33.3843 18.2984C35.2172 17.5387 36.0871 15.4369 35.3274 13.604C34.5677 11.7711 32.4659 10.9011 30.633 11.6609C28.8001 12.4206 27.9301 14.5224 28.6898 16.3553C29.4496 18.1882 31.5514 19.0582 33.3843 18.2984Z" fill="#573F7B"/>
<path d="M34.6937 14.9877C34.6937 16.4754 33.4877 17.6814 31.9999 17.6814C30.5122 17.6814 29.3062 16.4754 29.3062 14.9877C29.3062 13.4999 30.5122 12.2939 31.9999 12.2939C33.4877 12.2939 34.6937 13.5002 34.6937 14.9877Z" fill="#FDE4CE"/>
<path d="M31.9999 12.4934C33.4539 12.4934 34.6357 13.6464 34.6887 15.0874C34.6899 15.0539 34.6937 15.0214 34.6937 14.9877C34.6937 13.4999 33.4877 12.2939 31.9999 12.2939C30.5122 12.2939 29.3062 13.4999 29.3062 14.9877C29.3062 15.0214 29.3099 15.0542 29.3112 15.0874C29.3642 13.6464 30.5459 12.4934 31.9999 12.4934Z" fill="#E7AD27"/>
<path d="M33.1314 15.7862C33.1314 15.6117 33.0967 15.4577 33.0282 15.3282C32.9597 15.1989 32.8567 15.0867 32.7219 14.9942C32.5949 14.9072 32.4037 14.8209 32.1369 14.7304C31.8539 14.6342 31.7237 14.5484 31.6642 14.4932C31.6207 14.4529 31.5914 14.4019 31.5754 14.3392C31.5694 14.3157 31.5694 14.2902 31.5754 14.2667C31.5934 14.1962 31.6277 14.1377 31.6789 14.0897C31.7617 14.0122 31.8799 13.9744 32.0407 13.9744C32.1939 13.9744 32.3094 14.0209 32.3939 14.1169C32.4837 14.2189 32.5274 14.3579 32.5274 14.5424C32.5274 14.6324 32.6004 14.7057 32.6907 14.7057H32.9452C33.0352 14.7057 33.1084 14.6327 33.1084 14.5424C33.1084 14.5349 33.1072 14.5287 33.1069 14.5214H33.1084V14.3582C33.1084 14.0367 33.0262 13.7754 32.8642 13.5812C32.7509 13.4457 32.6062 13.3494 32.4319 13.2937C32.3649 13.2722 32.3194 13.2097 32.3194 13.1394V12.9939V12.9729C32.3194 12.8829 32.2464 12.8097 32.1562 12.8097H31.9382C31.8482 12.8097 31.7749 12.8827 31.7749 12.9729V12.9939V13.1349C31.7749 13.2062 31.7287 13.2697 31.6604 13.2899C31.4947 13.3389 31.3542 13.4214 31.2404 13.5369C31.0674 13.7124 30.9797 13.9412 30.9797 14.2169C30.9797 14.2497 30.9847 14.2797 30.9872 14.3109C30.9849 14.3412 30.9797 14.3697 30.9797 14.4012C30.9797 14.6637 31.0599 14.8827 31.2179 15.0522C31.3687 15.2137 31.6134 15.3459 31.9614 15.4552C32.2544 15.5567 32.3854 15.6459 32.4437 15.7029C32.4794 15.7379 32.5054 15.7782 32.5227 15.8239C32.5374 15.8634 32.5362 15.9074 32.5204 15.9467C32.4987 16.0007 32.4639 16.0474 32.4149 16.0889C32.3169 16.1722 32.1894 16.2127 32.0257 16.2127C31.8359 16.2127 31.6954 16.1659 31.5964 16.0697C31.4989 15.9747 31.4514 15.8419 31.4514 15.6639C31.4514 15.5739 31.3784 15.5007 31.2882 15.5007H31.0317C30.9417 15.5007 30.8684 15.5737 30.8684 15.6639C30.8684 15.6714 30.8699 15.6777 30.8699 15.6849H30.8684V15.8482C30.8684 16.1714 30.9629 16.4329 31.1494 16.6254C31.2794 16.7594 31.4459 16.8524 31.6469 16.9032C31.7184 16.9214 31.7684 16.9864 31.7684 17.0602V17.1652V17.1862C31.7684 17.2762 31.8414 17.3494 31.9317 17.3494H32.1477C32.2377 17.3494 32.3109 17.2764 32.3109 17.1862V17.1652V17.0524C32.3109 16.9804 32.3582 16.9159 32.4277 16.8967C32.6004 16.8484 32.7464 16.7664 32.8637 16.6517C33.0414 16.4774 33.1317 16.2479 33.1317 15.9699C33.1317 15.9304 33.1294 15.8924 33.1259 15.8552C33.1269 15.8322 33.1314 15.8104 33.1314 15.7862Z" fill="#E7AD27"/>
<path d="M33.0279 15.3282C32.9594 15.1989 32.8564 15.0867 32.7217 14.9942C32.5947 14.9072 32.4034 14.8209 32.1369 14.7304C31.8539 14.6342 31.7237 14.5484 31.6642 14.4932C31.5944 14.4287 31.5604 14.3364 31.5604 14.2117C31.5604 14.0807 31.5992 13.9804 31.6789 13.9057C31.7617 13.8282 31.8799 13.7904 32.0407 13.7904C32.1939 13.7904 32.3094 13.8369 32.3939 13.9329C32.4837 14.0349 32.5274 14.1742 32.5274 14.3584C32.5274 14.4487 32.6004 14.5217 32.6907 14.5217H32.9452C33.0352 14.5217 33.1084 14.4487 33.1084 14.3584C33.1084 14.0369 33.0262 13.7757 32.8642 13.5814C32.7509 13.4459 32.6062 13.3497 32.4319 13.2939C32.3649 13.2724 32.3194 13.2099 32.3194 13.1397V12.9732C32.3194 12.8832 32.2464 12.8099 32.1562 12.8099H31.9382C31.8482 12.8099 31.7749 12.8829 31.7749 12.9732V13.1354C31.7749 13.2067 31.7287 13.2702 31.6604 13.2904C31.4947 13.3394 31.3542 13.4222 31.2404 13.5374C31.0674 13.7129 30.9797 13.9417 30.9797 14.2174C30.9797 14.4799 31.0599 14.6989 31.2179 14.8684C31.3687 15.0299 31.6134 15.1622 31.9614 15.2714C32.2544 15.3729 32.3854 15.4622 32.4437 15.5192C32.5142 15.5882 32.5484 15.6769 32.5484 15.7907C32.5484 15.9172 32.5059 16.0122 32.4147 16.0897C32.3167 16.1729 32.1892 16.2134 32.0254 16.2134C31.8357 16.2134 31.6952 16.1667 31.5962 16.0704C31.4987 15.9754 31.4512 15.8427 31.4512 15.6647C31.4512 15.5747 31.3782 15.5014 31.2879 15.5014H31.0314C30.9414 15.5014 30.8682 15.5744 30.8682 15.6647C30.8682 15.9879 30.9627 16.2494 31.1492 16.4419C31.2792 16.5759 31.4457 16.6689 31.6467 16.7197C31.7182 16.7377 31.7682 16.8027 31.7682 16.8767V17.0027C31.7682 17.0927 31.8412 17.1659 31.9314 17.1659H32.1474C32.2374 17.1659 32.3107 17.0929 32.3107 17.0027V16.8689C32.3107 16.7969 32.3579 16.7324 32.4274 16.7132C32.6002 16.6649 32.7462 16.5832 32.8634 16.4682C33.0412 16.2937 33.1314 16.0644 33.1314 15.7862C33.1314 15.6119 33.0967 15.4577 33.0279 15.3282Z" fill="#D1D3D4"/>
<path d="M33.0279 15.144C32.9594 15.0147 32.8564 14.9025 32.7217 14.81C32.5947 14.723 32.4034 14.6367 32.1369 14.5462C31.8539 14.45 31.7237 14.3642 31.6642 14.309C31.5944 14.2445 31.5604 14.1522 31.5604 14.0272C31.5604 13.8962 31.5992 13.796 31.6789 13.7212C31.7617 13.6437 31.8799 13.606 32.0407 13.606C32.1939 13.606 32.3094 13.6525 32.3939 13.7485C32.4837 13.8505 32.5274 13.9895 32.5274 14.174C32.5274 14.264 32.6004 14.3372 32.6907 14.3372H32.9452C33.0352 14.3372 33.1084 14.2642 33.1084 14.174C33.1084 13.8525 33.0262 13.5912 32.8642 13.397C32.7509 13.2615 32.6062 13.1652 32.4319 13.1095C32.3649 13.088 32.3194 13.0257 32.3194 12.9552V12.7887C32.3194 12.6987 32.2464 12.6255 32.1562 12.6255H31.9382C31.8482 12.6255 31.7749 12.6985 31.7749 12.7887V12.951C31.7749 13.0222 31.7287 13.0857 31.6604 13.106C31.4947 13.155 31.3542 13.2375 31.2404 13.353C31.0674 13.5285 30.9797 13.7572 30.9797 14.033C30.9797 14.2955 31.0599 14.5145 31.2179 14.684C31.3687 14.8455 31.6134 14.9777 31.9614 15.087C32.2544 15.1885 32.3854 15.2777 32.4437 15.3347C32.5142 15.4037 32.5484 15.4925 32.5484 15.6062C32.5484 15.7327 32.5059 15.8277 32.4147 15.9052C32.3167 15.9885 32.1892 16.029 32.0254 16.029C31.8357 16.029 31.6952 15.9822 31.5962 15.886C31.4987 15.791 31.4512 15.6582 31.4512 15.4802C31.4512 15.3902 31.3782 15.317 31.2879 15.317H31.0314C30.9414 15.317 30.8682 15.39 30.8682 15.4802C30.8682 15.8035 30.9627 16.065 31.1492 16.2575C31.2792 16.3915 31.4457 16.4845 31.6467 16.5352C31.7182 16.5535 31.7682 16.6185 31.7682 16.6922V16.8182C31.7682 16.9082 31.8412 16.9815 31.9314 16.9815H32.1474C32.2374 16.9815 32.3107 16.9085 32.3107 16.8182V16.6845C32.3107 16.6125 32.3579 16.5482 32.4274 16.5287C32.6002 16.4805 32.7462 16.3985 32.8634 16.2837C33.0412 16.1092 33.1314 15.88 33.1314 15.6017C33.1314 15.4277 33.0967 15.2737 33.0279 15.144Z" fill="#6B61B1"/>
</svg>
