<svg width="117" height="65" viewBox="0 0 117 65" fill="none" xmlns="http://www.w3.org/2000/svg">
<path d="M117 113C117 157.183 81.1828 193 37 193C-7.18278 193 -43 157.183 -43 113C-43 68.8172 -7.18278 33 37 33C81.1828 33 117 68.8172 117 113ZM-28.7875 113C-28.7875 149.333 0.666546 178.788 37 178.788C73.3335 178.788 102.788 149.333 102.788 113C102.788 76.6665 73.3335 47.2125 37 47.2125C0.666546 47.2125 -28.7875 76.6665 -28.7875 113Z" fill="#FDE4CE"/>
<path d="M63 63.5C63 98.5701 34.5701 127 -0.5 127C-35.5701 127 -64 98.5701 -64 63.5C-64 28.4299 -35.5701 0 -0.5 0C34.5701 0 63 28.4299 63 63.5ZM-52.7189 63.5C-52.7189 92.3397 -29.3397 115.719 -0.5 115.719C28.3397 115.719 51.7189 92.3397 51.7189 63.5C51.7189 34.6603 28.3397 11.2811 -0.5 11.2811C-29.3397 11.2811 -52.7189 34.6603 -52.7189 63.5Z" fill="#FDE4CE"/>
</svg>
