<svg width="118" height="60" viewBox="0 0 118 60" fill="none" xmlns="http://www.w3.org/2000/svg">
<path d="M218 -20C218 24.1828 182.183 60 138 60C93.8172 60 58 24.1828 58 -20C58 -64.1828 93.8172 -100 138 -100C182.183 -100 218 -64.1828 218 -20ZM72.2125 -20C72.2125 16.3335 101.667 45.7875 138 45.7875C174.333 45.7875 203.788 16.3335 203.788 -20C203.788 -56.3335 174.333 -85.7875 138 -85.7875C101.667 -85.7875 72.2125 -56.3335 72.2125 -20Z" fill="#FDE4CE"/>
<path d="M127 -33.5C127 1.57008 98.5701 30 63.5 30C28.4299 30 0 1.57008 0 -33.5C0 -68.5701 28.4299 -97 63.5 -97C98.5701 -97 127 -68.5701 127 -33.5ZM11.2811 -33.5C11.2811 -4.66032 34.6603 18.7189 63.5 18.7189C92.3397 18.7189 115.719 -4.66032 115.719 -33.5C115.719 -62.3397 92.3397 -85.7189 63.5 -85.7189C34.6603 -85.7189 11.2811 -62.3397 11.2811 -33.5Z" fill="#FDE4CE"/>
</svg>
