<svg width="140" height="188" viewBox="0 0 140 188" fill="none" xmlns="http://www.w3.org/2000/svg">
<g opacity="0.3">
<path d="M11.0694 121.833C16.147 113.917 23.1602 107.431 31.4436 102.991C64.7226 83.8951 118.694 83.8951 151.972 102.991C160.263 107.422 167.278 113.909 172.347 121.833H176.828V139.273C176.224 151.399 167.929 163.398 151.909 172.66C118.63 191.756 64.659 191.756 31.3801 172.66C15.4875 163.398 7.03273 151.399 6.39703 139.273V121.833H11.0694Z" fill="#D6B1FF"/>
<g opacity="0.25">
<path opacity="0.25" d="M11.0694 121.833C16.147 113.917 23.1602 107.431 31.4436 102.991C64.7226 83.8951 118.694 83.8951 151.972 102.991C160.263 107.422 167.278 113.909 172.347 121.833H176.828V139.273C176.224 151.399 167.929 163.398 151.909 172.66C118.63 191.756 64.659 191.756 31.3801 172.66C15.4875 163.398 7.03273 151.399 6.39703 139.273V121.833H11.0694Z" fill="black"/>
</g>
<g opacity="0.1">
<path opacity="0.1" d="M91.5809 88.5421C113.385 88.5421 135.222 93.348 151.972 102.991C160.263 107.422 167.278 113.91 172.347 121.833H176.828V139.274C176.224 151.4 167.929 163.399 151.909 172.66C135.285 182.208 113.449 187.109 91.5173 187.109L91.5809 88.5421Z" fill="black"/>
</g>
<g opacity="0.1">
<path opacity="0.1" d="M138.21 96.53C142.94 98.2783 147.521 100.407 151.909 102.895C160.199 107.326 167.214 113.814 172.283 121.737H176.828V139.178C176.224 151.304 167.929 163.302 151.909 172.564C147.528 175.065 142.946 177.195 138.21 178.929V96.53Z" fill="black"/>
</g>
<g opacity="0.5">
<path opacity="0.5" d="M45.0157 96.53C40.2853 98.2783 35.7039 100.407 31.3163 102.895C23.0679 107.38 16.099 113.898 11.0693 121.832H6.46045V139.273C7.09615 151.399 15.4238 163.398 31.4435 172.659C35.8242 175.161 40.4067 177.29 45.1428 179.025L45.0157 96.53Z" fill="#D6B1FF"/>
</g>
<path d="M31.3162 86.9823C64.5951 67.8863 118.566 67.8863 151.845 86.9823C185.124 106.078 185.156 137.428 151.845 156.683C118.534 175.938 64.5951 175.938 31.3162 156.683C-1.96274 137.428 -1.96274 106.237 31.3162 86.9823Z" fill="#D6B1FF"/>
<g opacity="0.2">
<path opacity="0.2" d="M31.3162 86.9823C64.5951 67.8863 118.566 67.8863 151.845 86.9823C185.124 106.078 185.156 137.428 151.845 156.683C118.534 175.938 64.5951 175.938 31.3162 156.683C-1.96274 137.428 -1.96274 106.237 31.3162 86.9823Z" fill="black"/>
</g>
<path d="M52.3899 99.7445C64.6366 93.9729 78.0481 91.1084 91.5809 91.374C105.135 91.0951 118.57 93.96 130.835 99.7445C141.992 105.473 148.126 113.334 148.126 121.832C148.126 130.33 141.992 138.191 130.835 143.92C118.578 149.731 105.139 152.607 91.5809 152.322C78.0441 152.594 64.6288 149.718 52.3899 143.92C41.2652 138.191 35.0989 130.362 35.0989 121.832C35.0989 113.303 41.2016 105.473 52.3899 99.7445Z" fill="#D6B1FF"/>
<g opacity="0.4">
<path opacity="0.4" d="M52.3899 99.7445C64.6366 93.9729 78.0481 91.1084 91.5809 91.374C105.135 91.0951 118.57 93.96 130.835 99.7445C141.992 105.473 148.126 113.334 148.126 121.832C148.126 130.33 141.992 138.191 130.835 143.92C118.578 149.731 105.139 152.607 91.5809 152.322C78.0441 152.594 64.6288 149.718 52.3899 143.92C41.2652 138.191 35.0989 130.362 35.0989 121.832C35.0989 113.303 41.2016 105.473 52.3899 99.7445Z" fill="black"/>
</g>
<path d="M33.1599 90.2286C48.7028 81.2216 69.4584 76.2566 91.5808 76.2566C113.703 76.2566 134.459 81.2216 150.002 90.2286C164.909 98.8218 173.109 110.057 173.109 121.832C173.109 133.608 164.909 144.843 150.002 153.468C134.459 162.443 113.703 167.408 91.5808 167.408C69.4584 167.408 48.7028 162.443 33.1599 153.468C18.2845 144.843 10.0522 133.608 10.0522 121.832C10.0522 110.057 18.2845 98.8218 33.1599 90.2286ZM52.2309 143.92C64.4891 149.728 77.9272 152.604 91.4854 152.322C105.044 152.608 118.483 149.731 130.74 143.92C141.896 138.191 148.031 130.362 148.031 121.832C148.031 113.303 141.896 105.474 130.74 99.7447C118.504 93.9746 105.103 91.1101 91.5808 91.3743C78.048 91.1087 64.6365 93.9731 52.3898 99.7447C41.2651 105.474 35.0988 113.335 35.0988 121.832C35.0988 130.33 41.2015 138.191 52.3898 143.92H52.2309Z" fill="#D6B1FF"/>
<g opacity="0.2">
<path opacity="0.2" d="M53.6613 141.31C32.7468 130.553 32.7468 113.112 53.6613 102.354C74.5759 91.597 108.554 91.597 129.5 102.354C150.447 113.112 150.415 130.553 129.5 141.31C108.586 152.068 74.6394 152.068 53.6613 141.31Z" fill="black"/>
</g>
<path d="M53.6613 141.31C32.7468 130.553 32.7468 113.112 53.6613 102.354C74.5759 91.597 108.554 91.597 129.5 102.354C150.447 113.112 150.415 130.553 129.5 141.31C108.586 152.068 74.6394 152.068 53.6613 141.31Z" fill="#D6B1FF"/>
<g opacity="0.6">
<path opacity="0.6" d="M53.6613 141.31C32.7468 130.553 32.7468 113.112 53.6613 102.354C74.5759 91.597 108.554 91.597 129.5 102.354C150.447 113.112 150.415 130.553 129.5 141.31C108.586 152.068 74.6394 152.068 53.6613 141.31Z" fill="black"/>
</g>
<path d="M53.6612 109.643C74.6076 98.8852 108.554 98.8852 129.5 109.643C138.146 114.098 143.231 119.7 144.725 125.556C143.231 131.348 138.146 136.918 129.5 141.469C108.554 152.227 74.6076 152.227 53.6612 141.469C45.0157 137.013 39.9619 131.444 38.468 125.556C39.9619 119.7 45.0157 114.098 53.6612 109.643Z" fill="#D6B1FF"/>
<g opacity="0.5">
<path opacity="0.5" d="M53.6612 109.643C74.6076 98.8852 108.554 98.8852 129.5 109.643C138.146 114.098 143.231 119.7 144.725 125.556C143.231 131.348 138.146 136.918 129.5 141.469C108.554 152.227 74.6076 152.227 53.6612 141.469C45.0157 137.013 39.9619 131.444 38.468 125.556C39.9619 119.7 45.0157 114.098 53.6612 109.643Z" fill="black"/>
</g>
<path d="M86.4953 102.768V110.661L89.1971 113.494L94.1555 118.681V110.502L86.4953 102.768Z" fill="#D6B1FF"/>
<g opacity="0.3">
<path opacity="0.3" d="M86.4953 102.768V110.661L89.1971 113.494L94.1555 118.681V110.502L86.4953 102.768Z" fill="black"/>
</g>
<path d="M94.1555 110.47V115.117C96.6326 116.053 99.1846 116.777 101.784 117.281C102.833 117.496 103.914 117.496 104.962 117.281C105.499 117.115 106.021 116.902 106.52 116.645C108.395 115.499 108.713 113.812 105.121 111.743C103.512 110.706 101.687 110.052 99.7861 109.832C97.8852 109.611 95.959 109.829 94.1555 110.47Z" fill="#D6B1FF"/>
<g opacity="0.45">
<path opacity="0.45" d="M94.1555 110.47V115.117C96.6326 116.053 99.1846 116.777 101.784 117.281C102.833 117.496 103.914 117.496 104.962 117.281C105.499 117.115 106.021 116.902 106.52 116.645C108.395 115.499 108.713 113.812 105.121 111.743C103.512 110.706 101.687 110.052 99.7861 109.832C97.8852 109.611 95.959 109.829 94.1555 110.47Z" fill="black"/>
</g>
<path d="M58.5561 132.749V139.529L67.1699 144.525L73.5269 140.833C81.2735 144.429 90.1215 144.829 98.1603 141.947V135.136L94.2507 131.254L98.1603 132.336C101.327 133.242 104.642 133.514 107.914 133.137C111.186 132.76 114.352 131.742 117.231 130.14C121.077 127.912 122.889 125.493 122.857 122.979V116.359L122.317 113.653L124.637 112.285V105.378L118.28 109.07C119.578 109.842 120.678 110.904 121.495 112.175C122.311 113.445 122.821 114.889 122.984 116.39C122.984 118.841 121.109 121.196 117.358 123.392C108.999 128.23 100.703 126.575 93.1382 124.188C86.082 121.865 80.9328 119.159 76.8643 121.515C74.3215 122.979 75.0843 124.697 77.945 126.384C79.7822 127.4 81.8225 127.993 83.9175 128.12C86.0124 128.246 88.1092 127.903 90.0551 127.116L98.1921 135.168C96.723 135.726 95.2143 136.173 93.6786 136.505C86.8804 137.796 79.8494 136.94 73.5586 134.054L67.2016 137.746L58.5561 132.749Z" fill="#D6B1FF"/>
<g opacity="0.35">
<path opacity="0.35" d="M122.953 116.391C122.953 118.841 121.077 121.196 117.327 123.392C108.967 128.23 100.671 126.575 93.1065 124.188C86.0502 121.865 80.901 119.16 76.8325 121.515C74.2897 122.979 75.0526 124.697 77.9132 126.384C79.7504 127.4 81.7908 127.993 83.8857 128.12C85.9807 128.246 88.0774 127.904 90.0233 127.116L98.1603 135.168C96.6913 135.726 95.1825 136.173 93.6468 136.505C86.8486 137.796 79.8177 136.94 73.5269 134.054L67.1699 137.746L58.5561 132.749V139.529L67.1699 144.525L73.5269 140.833C81.2735 144.429 90.1216 144.829 98.1603 141.947V135.136L94.2507 131.254L98.1603 132.336C101.327 133.242 104.642 133.514 107.914 133.137C111.186 132.76 114.352 131.742 117.231 130.14C121.077 127.912 122.889 125.493 122.857 122.979V116.359L122.317 113.654" fill="black"/>
</g>
<g opacity="0.45">
<path opacity="0.45" d="M124.605 105.378V112.19L122.317 113.654C121.316 111.871 119.939 110.328 118.28 109.134L124.605 105.378Z" fill="black"/>
</g>
<path d="M59.9863 128.389C59.9838 129.482 60.2 130.564 60.622 131.571L64.9448 129.089C63.6425 128.508 62.5097 127.603 61.6532 126.462C60.7968 125.32 60.245 123.979 60.0499 122.565C60.0181 124.474 59.9863 128.23 59.9863 128.389Z" fill="#D6B1FF"/>
<g opacity="0.3">
<path opacity="0.3" d="M59.9863 128.389C59.9838 129.482 60.2 130.564 60.622 131.571L64.9448 129.089C63.6425 128.508 62.5097 127.603 61.6532 126.462C60.7968 125.32 60.245 123.979 60.0499 122.565C60.0181 124.474 59.9863 128.23 59.9863 128.389Z" fill="black"/>
</g>
<path d="M60.0183 132.017L64.945 129.152C63.4907 128.497 62.2541 127.438 61.3812 126.102C60.5082 124.765 60.0353 123.206 60.0183 121.609C60.0025 121.387 60.0025 121.164 60.0183 120.941C60.2408 118.586 61.9572 116.326 65.5171 114.257C68.9919 112.245 72.9458 111.211 76.9597 111.266H78.0404H79.0575H79.9475H80.3289H80.9964C82.8738 111.538 84.7318 111.932 86.5588 112.443C87.4488 112.666 88.307 112.921 89.1652 113.207C90.0234 113.494 91.6126 113.971 92.7569 114.385L94.1236 114.83C96.5895 115.808 99.1442 116.543 101.752 117.026C102.802 117.226 103.88 117.226 104.931 117.026C105.465 116.87 105.978 116.645 106.456 116.358C108.395 115.276 108.681 113.589 105.089 111.489C103.453 110.471 101.607 109.839 99.6906 109.641C97.7744 109.442 95.8382 109.682 94.0283 110.343L86.3681 102.609C94.0358 100.252 102.3 100.784 109.603 104.105L115.96 100.445L124.605 105.473L118.248 109.133C119.544 109.91 120.644 110.974 121.465 112.243C122.286 113.512 122.806 114.952 122.984 116.454C122.984 118.904 121.109 121.259 117.327 123.455C108.967 128.293 100.671 126.638 93.1065 124.219C86.0502 121.928 80.9011 119.222 76.8326 121.578C74.2898 123.042 75.0844 124.76 77.9133 126.447C79.7467 127.476 81.7897 128.073 83.8877 128.194C85.9858 128.316 88.0839 127.958 90.0234 127.147L98.1603 135.231C96.7006 135.784 95.2028 136.231 93.6786 136.568C91.0955 137.084 88.4583 137.276 85.8277 137.141C81.582 136.864 77.4181 135.84 73.5269 134.117L67.1699 137.809L58.588 132.844L60.0183 132.017Z" fill="#D6B1FF"/>
<path d="M73.5269 134.117V140.928L67.1698 144.62V137.809L73.5269 134.117Z" fill="#D6B1FF"/>
<g opacity="0.45">
<path opacity="0.45" d="M73.5269 134.117V140.928L67.1698 144.62V137.809L73.5269 134.117Z" fill="black"/>
</g>
<path d="M124.605 105.41L115.96 100.381L109.571 104.041L115.896 101.4L124.605 105.41Z" fill="#F5F5F5"/>
<path d="M105.217 111.648C103.58 110.63 101.734 109.998 99.8177 109.8C97.9015 109.601 95.9653 109.841 94.1554 110.502L86.4952 102.768L94.1554 109.706C96.0129 109.069 98.0013 108.913 99.9354 109.252C101.869 109.591 103.686 110.416 105.217 111.648Z" fill="#F5F5F5"/>
<path d="M98.1604 135.232C96.7007 135.785 95.2028 136.232 93.6787 136.568C91.0956 137.084 88.4584 137.277 85.8278 137.141C89.6287 137.169 93.3943 136.41 96.889 134.913L90.0234 127.148L98.1604 135.232Z" fill="#F5F5F5"/>
<path d="M73.5269 134.117L67.1698 137.014L58.5879 132.844L67.1698 137.809L73.5269 134.117Z" fill="#F5F5F5"/>
<path d="M149.334 91.3743C126.767 77.6251 91.5807 76.2566 91.5807 76.2566C113.83 76.2566 134.459 81.2216 150.002 90.2286C164.909 98.8218 173.109 110.057 173.109 121.833C173.173 121.833 172.315 105.314 149.334 91.3743Z" fill="#F5F5F5"/>
<path d="M98.1604 170.941C74.2263 171.991 49.6247 167.249 31.4118 156.65C12.3408 145.638 4.20387 130.712 6.96916 116.358C6.96916 116.358 3.40923 139.75 32.8422 155.759C62.2751 171.768 98.1604 170.941 98.1604 170.941Z" fill="#F5F5F5"/>
<path d="M16.7906 97.1667C21.8595 89.2435 28.8748 82.756 37.1648 78.3253C70.4438 59.2293 124.415 59.2293 157.694 78.3253C165.984 82.756 172.999 89.2435 178.068 97.1667H182.708V114.608C182.105 126.734 173.809 138.764 157.789 147.994C124.51 167.09 70.5391 167.09 37.2602 147.994C21.3677 138.764 12.9128 126.734 12.2771 114.608V97.1667H16.7906Z" fill="#D6B1FF"/>
<g opacity="0.25">
<path opacity="0.25" d="M16.7906 97.1667C21.8595 89.2435 28.8748 82.756 37.1648 78.3253C70.4438 59.2293 124.415 59.2293 157.694 78.3253C165.984 82.756 172.999 89.2435 178.068 97.1667H182.708V114.608C182.105 126.734 173.809 138.764 157.789 147.994C124.51 167.09 70.5391 167.09 37.2602 147.994C21.3677 138.764 12.9128 126.734 12.2771 114.608V97.1667H16.7906Z" fill="black"/>
</g>
<g opacity="0.1">
<path opacity="0.1" d="M97.4292 63.8762C119.234 63.8762 141.07 68.682 157.821 78.3255C166.111 82.7562 173.126 89.2438 178.195 97.1669H182.708V114.608C182.105 126.734 173.809 138.764 157.789 147.994C141.165 157.542 119.329 162.443 97.3975 162.443L97.4292 63.8762Z" fill="black"/>
</g>
<g opacity="0.5">
<path opacity="0.5" d="M50.8643 71.8963C46.1281 73.6309 41.5456 75.7601 37.1649 78.2616C28.8748 82.6923 21.8595 89.1798 16.7907 97.1029H12.1818V114.544C12.8175 126.67 21.1452 138.7 37.1649 147.93C41.5524 150.418 46.1338 152.547 50.8643 154.295V71.8963Z" fill="#D6B1FF"/>
</g>
<path d="M37.1646 62.3485C70.4435 43.0934 124.415 43.0934 157.693 62.3485C190.972 81.6037 191.004 112.794 157.693 132.017C124.383 151.24 70.4435 151.272 37.1646 132.017C3.8857 112.762 3.85391 81.5719 37.1646 62.3485Z" fill="#D6B1FF"/>
<g opacity="0.2">
<path opacity="0.2" d="M37.1646 62.3485C70.4435 43.0934 124.415 43.0934 157.693 62.3485C190.972 81.6037 191.004 112.794 157.693 132.017C124.383 151.24 70.4435 151.272 37.1646 132.017C3.8857 112.762 3.85391 81.5719 37.1646 62.3485Z" fill="black"/>
</g>
<path d="M58.1748 75.0791C70.4409 69.2979 83.8752 66.4333 97.4293 66.7087C110.983 66.4333 124.418 69.2979 136.684 75.0791C147.745 80.8079 154.102 88.669 154.102 97.1985C154.102 105.728 147.745 113.653 136.684 119.286C124.418 125.067 110.983 127.932 97.4293 127.657C83.8752 127.932 70.4409 125.067 58.1748 119.286C47.0183 113.557 40.8838 105.696 40.8838 97.1985C40.8838 88.7008 47.0183 80.8079 58.1748 75.0791Z" fill="#D6B1FF"/>
<g opacity="0.4">
<path opacity="0.4" d="M58.1748 75.0791C70.4409 69.2979 83.8752 66.4333 97.4293 66.7087C110.983 66.4333 124.418 69.2979 136.684 75.0791C147.745 80.8079 154.102 88.669 154.102 97.1985C154.102 105.728 147.745 113.653 136.684 119.286C124.418 125.067 110.983 127.932 97.4293 127.657C83.8752 127.932 70.4409 125.067 58.1748 119.286C47.0183 113.557 40.8838 105.696 40.8838 97.1985C40.8838 88.7008 47.0183 80.8079 58.1748 75.0791Z" fill="black"/>
</g>
<path d="M39.0085 65.5629C54.5514 56.556 75.307 51.6229 97.4294 51.6229C119.552 51.6229 140.307 56.556 155.85 65.5629C170.757 74.188 178.958 85.3909 178.958 97.1985C178.958 109.006 170.757 120.209 155.85 128.802C140.307 137.778 119.552 142.743 97.4294 142.743C75.307 142.743 54.5514 137.778 39.0085 128.802C24.1013 120.209 15.9008 108.974 15.9008 97.1985C15.9008 85.4227 24.1013 74.188 39.0085 65.5629ZM58.0795 119.286C70.3456 125.067 83.7799 127.932 97.334 127.657C110.888 127.932 124.323 125.067 136.589 119.286C147.745 113.653 154.102 105.696 154.102 97.1985C154.102 88.7008 147.968 80.8079 136.811 75.0791C124.545 69.2979 111.111 66.4332 97.5565 66.7087C84.0024 66.4332 70.568 69.2979 58.302 75.0791C47.1455 80.8079 41.011 88.669 41.011 97.1985C41.011 105.728 47.0183 113.653 58.1749 119.286H58.0795Z" fill="#D6B1FF"/>
<g opacity="0.2">
<path opacity="0.2" d="M59.5097 116.644C38.5951 105.887 38.5951 88.4459 59.5097 77.6885C80.4242 66.9311 114.402 66.9311 135.349 77.6885C156.295 88.4459 156.263 105.887 135.349 116.644C114.434 127.402 80.456 127.402 59.5097 116.644Z" fill="black"/>
</g>
<path d="M59.5097 116.644C38.5951 105.887 38.5951 88.4459 59.5097 77.6885C80.4242 66.9311 114.402 66.9311 135.349 77.6885C156.295 88.4459 156.263 105.887 135.349 116.644C114.434 127.402 80.456 127.402 59.5097 116.644Z" fill="#D6B1FF"/>
<g opacity="0.6">
<path opacity="0.6" d="M59.5097 116.644C38.5951 105.887 38.5951 88.4459 59.5097 77.6885C80.4242 66.9311 114.402 66.9311 135.349 77.6885C156.295 88.4459 156.263 105.887 135.349 116.644C114.434 127.402 80.456 127.402 59.5097 116.644Z" fill="black"/>
</g>
<path d="M59.5096 85.009C80.456 74.2516 114.402 74.2516 135.349 85.009C143.994 89.4329 149.048 95.0344 150.574 100.922C149.048 106.715 143.994 112.316 135.349 116.836C114.402 127.593 80.456 127.593 59.5096 116.836C50.8641 112.412 45.8103 106.81 44.2846 100.922C45.8103 95.0344 50.8641 89.4329 59.5096 85.009Z" fill="#D6B1FF"/>
<g opacity="0.5">
<path opacity="0.5" d="M59.5096 85.009C80.456 74.2516 114.402 74.2516 135.349 85.009C143.994 89.4329 149.048 95.0344 150.574 100.922C149.048 106.715 143.994 112.316 135.349 116.836C114.402 127.593 80.456 127.593 59.5096 116.836C50.8641 112.412 45.8103 106.81 44.2846 100.922C45.8103 95.0344 50.8641 89.4329 59.5096 85.009Z" fill="black"/>
</g>
<path d="M92.3437 78.1021V85.9952L95.0455 88.8278L100.004 94.0155V85.8361L92.3437 78.1021Z" fill="#D6B1FF"/>
<g opacity="0.3">
<path opacity="0.3" d="M92.3437 78.1021V85.9952L95.0455 88.8278L100.004 94.0155V85.8361L92.3437 78.1021Z" fill="black"/>
</g>
<path d="M100.067 85.8363V90.4828C102.543 91.423 105.096 92.1471 107.696 92.6469C109.346 92.9688 111.056 92.6984 112.527 91.8831C114.403 90.7374 114.72 89.0825 111.097 86.982C109.472 85.9514 107.63 85.3117 105.716 85.1129C103.803 84.9142 101.869 85.1618 100.067 85.8363Z" fill="#D6B1FF"/>
<g opacity="0.45">
<path opacity="0.45" d="M100.067 85.8363V90.4828C102.543 91.423 105.096 92.1471 107.696 92.6469C109.346 92.9688 111.056 92.6984 112.527 91.8831C114.403 90.7374 114.72 89.0825 111.097 86.982C109.472 85.9514 107.63 85.3117 105.716 85.1129C103.803 84.9142 101.869 85.1618 100.067 85.8363Z" fill="black"/>
</g>
<path d="M64.4048 108.178V114.989L73.0185 120.018L79.3755 116.326C87.1179 119.938 95.9728 120.339 104.009 117.44V110.47L100.068 106.683L103.977 107.765C107.144 108.671 110.459 108.943 113.731 108.566C117.003 108.189 120.169 107.171 123.048 105.569C126.894 103.341 128.706 100.922 128.674 98.4076V91.7877L127.975 88.8915L130.327 87.523V80.7439L123.97 84.4039C125.267 85.1751 126.368 86.238 127.184 87.5085C128.001 88.779 128.511 90.2221 128.674 91.724C128.674 94.1747 126.799 96.5299 123.048 98.7259C114.689 103.564 106.393 101.909 98.8279 99.5216C91.7399 97.2301 86.6225 94.493 82.554 96.8482C80.0112 98.3122 80.7741 100.031 83.6347 101.749C85.4735 102.763 87.5153 103.351 89.6106 103.472C91.7059 103.593 93.8017 103.244 95.7448 102.45L104.009 110.47C102.545 111.042 101.035 111.489 99.4954 111.807C92.7 113.093 85.6737 112.248 79.3755 109.388L73.0185 113.048L64.4048 108.178Z" fill="#D6B1FF"/>
<g opacity="0.35">
<path opacity="0.35" d="M128.674 91.7245C128.674 94.1751 126.799 96.5303 123.048 98.7264C114.688 103.564 106.393 101.909 98.8278 99.522C91.7397 97.2305 86.6223 94.4934 82.5538 96.8486C80.011 98.3126 80.7739 100.031 83.6345 101.75C85.4734 102.763 87.5151 103.352 89.6104 103.473C91.7057 103.594 93.8015 103.244 95.7446 102.45L104.009 110.47C102.545 111.043 101.035 111.49 99.4952 111.807C92.6998 113.094 85.6735 112.249 79.3753 109.388L73.0183 113.048L64.4046 108.083V114.894L73.0183 120.018L79.3753 116.326C87.1178 119.939 95.9726 120.339 104.009 117.44V110.47L100.067 106.683L103.977 107.765C107.144 108.671 110.458 108.943 113.731 108.567C117.003 108.19 120.169 107.171 123.048 105.569C126.894 103.341 128.706 100.922 128.674 98.4081V91.7882L127.975 88.892" fill="black"/>
</g>
<g opacity="0.45">
<path opacity="0.45" d="M130.454 80.7439V87.523L128.102 88.8916C127.092 87.1151 125.716 85.5743 124.065 84.3721L130.454 80.7439Z" fill="black"/>
</g>
<path d="M65.835 103.755C65.8281 104.848 66.0444 105.931 66.4707 106.938L70.7935 104.487C69.4905 103.898 68.3581 102.987 67.502 101.841C66.646 100.694 66.0943 99.3491 65.8986 97.931C65.8668 99.8406 65.835 103.564 65.835 103.755Z" fill="#D6B1FF"/>
<g opacity="0.3">
<path opacity="0.3" d="M65.835 103.755C65.8281 104.848 66.0444 105.931 66.4707 106.938L70.7935 104.487C69.4905 103.898 68.3581 102.987 67.502 101.841C66.646 100.694 66.0943 99.3491 65.8986 97.931C65.8668 99.8406 65.835 103.564 65.835 103.755Z" fill="black"/>
</g>
<path d="M65.8667 107.287L70.7616 104.455C69.3131 103.786 68.0841 102.719 67.2176 101.378C66.3511 100.037 65.8826 98.477 65.8667 96.8799C65.8509 96.6574 65.8509 96.434 65.8667 96.2115C66.1986 94.7427 66.8808 93.3762 67.855 92.2289C68.8292 91.0816 70.0665 90.1877 71.4609 89.6235C74.9434 87.6297 78.8921 86.5974 82.9035 86.6318H83.9842H85.0013C85.2978 86.6161 85.5948 86.6161 85.8913 86.6318H86.2727C86.4949 86.6164 86.718 86.6164 86.9402 86.6318C88.8169 86.8938 90.6749 87.2765 92.5026 87.7775C93.3608 88.0003 94.2507 88.2548 95.1089 88.5413L98.7007 89.7189L100.067 90.1963C102.538 91.1514 105.092 91.8758 107.696 92.3605C108.745 92.5748 109.826 92.5748 110.874 92.3605C111.403 92.2009 111.914 91.9876 112.4 91.7239C114.339 90.61 114.625 88.9233 111.033 86.8227C109.397 85.8051 107.551 85.1732 105.634 84.9747C103.718 84.7762 101.782 85.0163 99.9721 85.6769L92.3119 77.9431C99.9061 75.5515 108.111 76.0155 115.388 79.248L121.745 75.5561L130.422 80.5846L124.065 84.2448C125.36 85.0217 126.461 86.0854 127.282 87.3543C128.103 88.6232 128.622 90.0636 128.801 91.5648C128.801 94.0155 126.926 96.4025 123.143 98.5667C114.784 103.404 106.488 101.749 98.8914 99.3624C91.8669 97.039 86.7177 94.3338 82.6492 96.689C80.1064 98.153 80.8693 99.8716 83.7299 101.558C85.564 102.583 87.6051 103.181 89.7016 103.308C91.798 103.434 93.8961 103.087 95.84 102.29L104.009 110.47C102.539 111.017 101.03 111.454 99.4953 111.775C96.9275 112.324 94.2964 112.517 91.6762 112.348C87.4324 112.081 83.2686 111.068 79.3754 109.356L73.0184 113.048L64.4364 108.051L65.8667 107.287Z" fill="#D6B1FF"/>
<path d="M79.3752 109.484V116.263L73.0183 119.955V113.144L79.3752 109.484Z" fill="#D6B1FF"/>
<g opacity="0.45">
<path opacity="0.45" d="M79.3752 109.484V116.263L73.0183 119.955V113.144L79.3752 109.484Z" fill="black"/>
</g>
<path d="M130.454 80.744L121.808 75.7153L115.42 79.4072L121.745 76.7657L130.454 80.744Z" fill="#F5F5F5"/>
<path d="M111.065 86.9818C109.428 85.9642 107.582 85.3323 105.666 85.1339C103.75 84.9354 101.814 85.1755 100.004 85.8361L92.3436 78.1021L100.067 85.0086C101.919 84.3869 103.896 84.2418 105.818 84.5866C107.74 84.9315 109.544 85.7552 111.065 86.9818Z" fill="#F5F5F5"/>
<path d="M104.009 110.47C102.539 111.018 101.03 111.454 99.4953 111.775C96.9275 112.324 94.2965 112.517 91.6762 112.348C95.4638 112.377 99.2174 111.63 102.706 110.152L95.8718 102.386L104.009 110.47Z" fill="#F5F5F5"/>
<path d="M79.3752 109.483L73.0182 112.348L64.4363 108.179L73.0182 113.144L79.3752 109.483Z" fill="#F5F5F5"/>
<path d="M155.183 66.7086C132.615 52.9914 97.4294 51.6229 97.4294 51.6229C119.679 51.6229 140.307 56.556 155.85 65.5629C170.757 74.1879 178.958 85.3908 178.958 97.1985C178.958 97.1985 178.132 80.6805 155.183 66.7086Z" fill="#F5F5F5"/>
<path d="M104.009 146.307C80.0429 147.389 55.473 142.615 37.2602 132.017C18.1892 121.005 10.0522 106.078 12.8175 91.7242C12.8175 91.7242 9.25761 115.117 38.6905 131.157C68.1235 147.198 104.009 146.307 104.009 146.307Z" fill="#F5F5F5"/>
<path d="M4.71227 73.297C9.77774 65.3825 16.7804 58.8965 25.0547 54.4555C58.3336 35.3595 112.305 35.3595 145.615 54.4555C153.89 58.8965 160.892 65.3825 165.958 73.297H170.471V90.738C169.867 102.864 161.571 114.894 145.584 124.156C112.273 143.252 58.3018 143.252 25.0229 124.156C9.13039 114.894 0.675568 102.864 0.0716553 90.738V73.297H4.71227Z" fill="#D6B1FF"/>
<g opacity="0.25">
<path opacity="0.25" d="M4.71227 73.297C9.77774 65.3825 16.7804 58.8965 25.0547 54.4555C58.3336 35.3595 112.305 35.3595 145.615 54.4555C153.89 58.8965 160.892 65.3825 165.958 73.297H170.471V90.738C169.867 102.864 161.571 114.894 145.584 124.156C112.273 143.252 58.3018 143.252 25.0229 124.156C9.13039 114.894 0.675568 102.864 0.0716553 90.738V73.297H4.71227Z" fill="black"/>
</g>
<g opacity="0.1">
<path opacity="0.1" d="M85.2238 40.0378C107.06 40.0378 128.865 44.8436 145.615 54.4553C153.89 58.8962 160.892 65.3822 165.958 73.2967H170.471V90.7376C169.867 102.864 161.571 114.894 145.584 124.156C128.928 133.704 107.124 138.573 85.192 138.573L85.2238 40.0378Z" fill="black"/>
</g>
<g opacity="0.1">
<path opacity="0.1" d="M131.852 48.0267C136.596 49.7681 141.188 51.897 145.584 54.392C153.858 58.8329 160.86 65.3188 165.926 73.2333H170.471V90.6743C169.867 102.8 161.571 114.831 145.584 124.092C141.182 126.574 136.59 128.703 131.852 130.458V48.0267Z" fill="black"/>
</g>
<g opacity="0.5">
<path opacity="0.5" d="M38.6907 48.0267C33.9471 49.7681 29.3546 51.897 24.9595 54.392C16.6852 58.8329 9.68258 65.3188 4.61711 73.2333H0.00825882V90.6743C0.612175 102.8 8.97165 114.831 24.9595 124.092C29.3613 126.574 33.9527 128.703 38.6907 130.458V48.0267Z" fill="#D6B1FF"/>
</g>
<path d="M24.9592 38.4779C58.2382 19.2228 112.209 19.2228 145.52 38.4779C178.831 57.7331 178.799 88.9232 145.52 108.147C112.241 127.37 58.2382 127.402 24.9592 108.147C-8.3197 88.8914 -8.3197 57.7331 24.9592 38.4779Z" fill="#D6B1FF"/>
<g opacity="0.2">
<path opacity="0.2" d="M24.9592 38.4779C58.2382 19.2228 112.209 19.2228 145.52 38.4779C178.831 57.7331 178.799 88.9232 145.52 108.147C112.241 127.37 58.2382 127.402 24.9592 108.147C-8.3197 88.8914 -8.3197 57.7331 24.9592 38.4779Z" fill="black"/>
</g>
<path d="M46.0329 51.2088C58.3141 45.4392 71.756 42.5752 85.3192 42.8384C98.8617 42.5782 112.282 45.4423 124.542 51.2088C135.698 56.9376 141.865 64.7987 141.865 73.3282C141.865 81.8578 135.698 89.6871 124.542 95.4159C112.29 101.209 98.8657 104.085 85.3192 103.818C71.752 104.087 58.3063 101.212 46.0329 95.4159C34.9081 89.6871 28.7419 81.826 28.7419 73.3282C28.7419 64.8305 34.8446 56.9376 46.0329 51.2088Z" fill="#D6B1FF"/>
<g opacity="0.4">
<path opacity="0.4" d="M46.0329 51.2088C58.3141 45.4392 71.756 42.5752 85.3192 42.8384C98.8617 42.5782 112.282 45.4423 124.542 51.2088C135.698 56.9376 141.865 64.7987 141.865 73.3282C141.865 81.8578 135.698 89.6871 124.542 95.4159C112.29 101.209 98.8657 104.085 85.3192 103.818C71.752 104.087 58.3063 101.212 46.0329 95.4159C34.9081 89.6871 28.7419 81.826 28.7419 73.3282C28.7419 64.8305 34.8446 56.9376 46.0329 51.2088Z" fill="black"/>
</g>
<path d="M26.8028 41.6929C42.3457 32.7178 63.1013 27.721 85.2555 27.721C107.41 27.721 128.102 32.686 143.645 41.6611C158.552 50.3179 166.816 61.5209 166.816 73.3285C166.816 85.1362 158.615 96.3392 143.708 104.964C128.165 113.908 107.441 118.873 85.3191 118.873C63.1967 118.873 42.4093 113.908 26.8664 104.964C11.991 96.3392 3.75868 85.1044 3.75868 73.3285C3.75868 61.5527 11.9274 50.318 26.8028 41.6929ZM45.8739 95.4162C58.1473 101.212 71.593 104.088 85.1602 103.819C98.7067 104.085 112.131 101.209 124.383 95.4162C135.539 89.6874 141.706 81.8263 141.706 73.3285C141.706 64.8308 135.539 56.9379 124.383 51.2091C112.123 45.4425 98.7026 42.5785 85.1602 42.8387C71.6504 42.5999 58.2656 45.4633 46.0328 51.2091C34.908 56.9379 28.7417 64.799 28.7417 73.3285C28.7417 81.8581 34.8445 89.6874 46.0328 95.4162H45.8739Z" fill="#D6B1FF"/>
<g opacity="0.2">
<path opacity="0.2" d="M47.336 92.8071C26.3896 82.0496 26.3896 64.6086 47.336 53.8194C68.2823 43.0301 102.197 43.062 123.143 53.8194C144.09 64.5768 144.09 82.0496 123.143 92.8071C102.197 103.564 68.2823 103.564 47.336 92.8071Z" fill="black"/>
</g>
<path d="M47.336 92.8071C26.3896 82.0496 26.3896 64.6086 47.336 53.8194C68.2823 43.0301 102.197 43.062 123.143 53.8194C144.09 64.5768 144.09 82.0496 123.143 92.8071C102.197 103.564 68.2823 103.564 47.336 92.8071Z" fill="#D6B1FF"/>
<g opacity="0.6">
<path opacity="0.6" d="M47.336 92.8071C26.3896 82.0496 26.3896 64.6086 47.336 53.8194C68.2823 43.0301 102.197 43.062 123.143 53.8194C144.09 64.5768 144.09 82.0496 123.143 92.8071C102.197 103.564 68.2823 103.564 47.336 92.8071Z" fill="black"/>
</g>
<path d="M47.3361 61.1393C68.2506 50.3819 102.197 50.3819 123.143 61.1393C131.789 65.595 136.875 71.1647 138.368 77.0527C136.875 82.8451 131.789 88.4466 123.143 92.966C102.197 103.723 68.2506 103.723 47.3361 92.966C38.6587 88.5103 33.6049 82.9088 32.111 77.0527C33.6049 71.1647 38.6587 65.595 47.3361 61.1393Z" fill="#D6B1FF"/>
<g opacity="0.5">
<path opacity="0.5" d="M47.3361 61.1393C68.2506 50.3819 102.197 50.3819 123.143 61.1393C131.789 65.595 136.875 71.1647 138.368 77.0527C136.875 82.8451 131.789 88.4466 123.143 92.966C102.197 103.723 68.2506 103.723 47.3361 92.966C38.6587 88.5103 33.6049 82.9088 32.111 77.0527C33.6049 71.1647 38.6587 65.595 47.3361 61.1393Z" fill="black"/>
</g>
<path d="M80.17 54.2646V62.1257L82.8399 64.9583L87.7983 70.1778V61.9666L80.17 54.2646Z" fill="#D6B1FF"/>
<g opacity="0.3">
<path opacity="0.3" d="M80.17 54.2646V62.1257L82.8399 64.9583L87.7983 70.1778V61.9666L80.17 54.2646Z" fill="black"/>
</g>
<path d="M87.7983 61.9662V66.6128C90.2655 67.5787 92.8202 68.3035 95.4267 68.7771C96.4754 68.9914 97.5565 68.9914 98.6052 68.7771C99.1519 68.6399 99.6763 68.4256 100.163 68.1406C102.07 67.0266 102.356 65.3398 98.7642 63.2711C97.1519 62.2419 95.3287 61.5901 93.4301 61.3642C91.5315 61.1382 89.6065 61.344 87.7983 61.9662Z" fill="#D6B1FF"/>
<g opacity="0.45">
<path opacity="0.45" d="M87.7983 61.9662V66.6128C90.2655 67.5787 92.8202 68.3035 95.4267 68.7771C96.4754 68.9914 97.5565 68.9914 98.6052 68.7771C99.1519 68.6399 99.6763 68.4256 100.163 68.1406C102.07 67.0266 102.356 65.3398 98.7642 63.2711C97.1519 62.2419 95.3287 61.5901 93.4301 61.3642C91.5315 61.1382 89.6065 61.344 87.7983 61.9662Z" fill="black"/>
</g>
<path d="M52.2308 84.3088V91.1198L60.8128 96.0847L67.1698 92.3928C74.9123 96.0052 83.7671 96.4057 91.8032 93.5068V86.7277L87.8937 82.8448L91.8032 83.9269C98.2009 85.7389 105.054 84.9497 110.874 81.7309C114.752 79.503 116.532 77.0523 116.532 74.538V67.9181L115.833 65.0537L118.185 63.6851V56.8742L111.828 60.5661C113.124 61.3343 114.226 62.3915 115.047 63.6556C115.868 64.9198 116.387 66.3566 116.564 67.8544C116.564 70.305 114.688 72.6921 110.906 74.8563C102.547 79.6939 94.2825 78.039 86.6858 75.6519C79.6296 73.3604 74.4804 70.6552 70.4119 72.9785C67.9009 74.4425 68.6637 76.1612 71.4926 77.8799C73.3314 78.8929 75.3732 79.4815 77.4685 79.6026C79.5638 79.7238 81.6596 79.3744 83.6027 78.58L91.7397 86.664C90.3179 87.2827 88.8516 87.7934 87.3533 88.1917C80.5475 89.4786 73.5109 88.634 67.2016 85.7728L60.8446 89.4647L52.2308 84.3088Z" fill="#D6B1FF"/>
<g opacity="0.35">
<path opacity="0.35" d="M116.627 67.8543C116.627 70.3049 114.752 72.6919 110.97 74.8561C102.61 79.6937 94.3461 78.0387 86.7495 75.6518C79.6932 73.3603 74.5441 70.655 70.4756 72.9784C67.9646 74.4424 68.7274 76.161 71.5563 77.8797C73.3951 78.8927 75.4369 79.4812 77.5322 79.6024C79.6275 79.7235 81.7233 79.3742 83.6664 78.5798L91.8033 86.6637C90.361 87.2854 88.8733 87.7961 87.3534 88.1914C80.5476 89.4783 73.511 88.6336 67.2017 85.7725L60.8447 89.4644L52.2627 84.4676V91.2785L60.8447 96.2435L67.2017 92.5516C74.9441 96.1639 83.799 96.5644 91.8351 93.6655V86.8865L87.9256 83.0037L91.8351 84.0857C98.2328 85.8977 105.086 85.1085 110.906 81.8897C114.784 79.6619 116.564 77.2113 116.564 74.697V68.0771L115.865 65.2127" fill="black"/>
</g>
<g opacity="0.45">
<path opacity="0.45" d="M118.28 56.8742V63.6851L115.928 65.0538C114.945 63.2671 113.563 61.7315 111.891 60.5661L118.28 56.8742Z" fill="black"/>
</g>
<path d="M53.6612 79.8852C53.6469 80.979 53.8635 82.0636 54.2969 83.0678L58.5879 80.5852C57.2901 79.9887 56.1622 79.0761 55.3072 77.9309C54.4521 76.7856 53.8972 75.4442 53.693 74.029C53.6612 75.9704 53.6612 79.6942 53.6612 79.8852Z" fill="#D6B1FF"/>
<g opacity="0.3">
<path opacity="0.3" d="M53.6612 79.8852C53.6469 80.979 53.8635 82.0636 54.2969 83.0678L58.5879 80.5852C57.2901 79.9887 56.1622 79.0761 55.3072 77.9309C54.4521 76.7856 53.8972 75.4442 53.693 74.029C53.6612 75.9704 53.6612 79.6942 53.6612 79.8852Z" fill="black"/>
</g>
<path d="M53.6612 83.5134L58.5879 80.649C57.1335 79.9847 55.8979 78.9196 55.0255 77.5783C54.1531 76.237 53.6799 74.6748 53.6612 73.0742C53.6612 72.8515 53.6612 72.6286 53.6612 72.4377C53.9671 70.9604 54.6277 69.5799 55.5857 68.4154C56.5437 67.251 57.7705 66.3376 59.16 65.7541C62.6426 63.7604 66.5912 62.728 70.6027 62.7624H71.6833H72.7005H73.6222H74.0037C74.2258 62.7448 74.449 62.7448 74.6711 62.7624C76.5484 63.0213 78.4066 63.404 80.2335 63.9081C81.1235 64.1309 81.9817 64.3855 82.8399 64.672L86.4316 65.8496L87.7984 66.327C90.2705 67.278 92.8238 68.0024 95.4268 68.4912C96.4754 68.7064 97.5567 68.7064 98.6053 68.4912C99.1472 68.3397 99.6698 68.1261 100.163 67.8546C102.07 66.7407 102.356 65.0539 98.7642 62.9851C97.1302 61.9623 95.2853 61.3249 93.3691 61.1209C91.4528 60.9169 89.5153 61.1517 87.703 61.8076L80.0746 54.1056C87.6542 51.7031 95.8491 52.1558 103.119 55.3786L109.476 51.7186L118.153 56.7153L111.796 60.3754C113.088 61.156 114.186 62.2206 115.007 63.4888C115.827 64.7571 116.349 66.1956 116.532 67.6955C116.532 70.1462 114.657 72.5332 110.874 74.6974C102.515 79.5351 94.2189 77.8801 86.6541 75.4931C79.5978 73.2016 74.4487 70.4645 70.3802 72.8197C67.8691 74.2837 68.632 76.0023 71.4609 77.7209C73.2997 78.734 75.3415 79.3226 77.4368 79.4438C79.532 79.5649 81.6279 79.2155 83.571 78.4211L91.7079 86.5051C90.301 87.1766 88.8453 87.7404 87.3534 88.1919C84.7749 88.7414 82.1333 88.9341 79.5025 88.7648C75.2592 88.494 71.0961 87.4815 67.2017 85.7731L60.8447 89.465L52.2627 84.5L53.6612 83.5134Z" fill="#D6B1FF"/>
<path d="M67.1702 85.6141V92.3931L60.8132 96.0849V89.3059L67.1702 85.6141Z" fill="#D6B1FF"/>
<g opacity="0.45">
<path opacity="0.45" d="M67.1702 85.6141V92.3931L60.8132 96.0849V89.3059L67.1702 85.6141Z" fill="black"/>
</g>
<path d="M118.28 56.8747L109.603 51.8779L103.214 55.5379L109.539 52.8963L118.28 56.8747Z" fill="#F5F5F5"/>
<path d="M98.8596 63.1441C97.2256 62.1213 95.3807 61.4838 93.4645 61.2798C91.5482 61.0758 89.6107 61.3107 87.7984 61.9666L80.17 54.2646L87.7984 61.1709C89.6581 60.5348 91.6487 60.3822 93.5835 60.7273C95.5182 61.0725 97.3337 61.9041 98.8596 63.1441Z" fill="#F5F5F5"/>
<path d="M91.8032 86.7273C90.3591 87.3273 88.8715 87.8167 87.3533 88.1912C84.7748 88.7407 82.1332 88.9334 79.5024 88.7641C83.3002 88.7925 87.0639 88.0452 90.5636 86.5681L83.6662 78.6434L91.8032 86.7273Z" fill="#F5F5F5"/>
<path d="M67.1702 85.6142L60.8132 88.4786L52.2312 84.3411L60.8132 89.3062L67.1702 85.6142Z" fill="#F5F5F5"/>
<path d="M143.009 42.839C120.442 29.1217 85.2555 27.7532 85.2555 27.7532C107.505 27.7532 128.102 32.7181 143.645 41.6933C158.552 50.3183 166.816 61.5212 166.816 73.3289C166.816 73.3289 165.958 56.8109 143.009 42.839Z" fill="#F5F5F5"/>
<path d="M91.8032 122.437C67.8691 123.519 43.2675 118.745 25.0546 108.147C5.9836 97.135 -2.15338 82.2083 0.611916 67.8545C0.611916 67.8545 -2.94801 91.279 26.4849 107.288C55.9179 123.297 91.8032 122.437 91.8032 122.437Z" fill="#F5F5F5"/>
<path d="M12.9128 49.1718C17.9972 41.2421 25.0215 34.7454 33.3187 30.2986C66.5977 11.2026 120.569 11.2026 153.879 30.2986C162.163 34.7403 169.168 41.2392 174.222 49.1718H178.799V66.6128C178.195 78.7388 169.899 90.7374 153.911 99.9989C120.6 119.254 66.6294 119.254 33.3505 99.9989C17.458 90.7374 9.0032 78.7388 8.39929 66.6128V49.1718H12.9128Z" fill="#D6B1FF"/>
<g opacity="0.25">
<path opacity="0.25" d="M12.9128 49.1718C17.9972 41.2421 25.0215 34.7454 33.3187 30.2986C66.5977 11.2026 120.569 11.2026 153.879 30.2986C162.163 34.7403 169.168 41.2392 174.222 49.1718H178.799V66.6128C178.195 78.7388 169.899 90.7374 153.911 99.9989C120.6 119.254 66.6294 119.254 33.3505 99.9989C17.458 90.7374 9.0032 78.7388 8.39929 66.6128V49.1718H12.9128Z" fill="black"/>
</g>
<g opacity="0.1">
<path opacity="0.1" d="M93.5514 15.8818C115.356 15.8818 137.192 20.6877 153.943 30.2993C162.227 34.741 169.232 41.2399 174.285 49.1725H178.799V66.6135C178.195 78.7395 169.899 90.7381 153.911 99.9996C137.256 109.548 115.419 114.449 93.5196 114.449L93.5514 15.8818Z" fill="black"/>
</g>
<g opacity="0.5">
<path opacity="0.5" d="M47.0183 23.8697C42.2804 25.6245 37.6889 27.753 33.2872 30.235C25.0016 34.6862 17.9886 41.1825 12.913 49.1082H8.33594V66.5492C8.93986 78.6751 17.2675 90.6737 33.2872 99.9352C37.6823 102.43 42.2748 104.559 47.0183 106.301V23.8697Z" fill="#D6B1FF"/>
</g>
<path d="M33.3188 14.322C66.5978 -4.774 120.569 -4.774 153.879 14.322C187.19 33.418 187.158 64.7673 153.879 84.0224C120.601 103.278 66.5978 103.278 33.3188 84.0224C0.0399017 64.7673 0.00811768 33.5772 33.3188 14.322Z" fill="#D6B1FF"/>
<g opacity="0.2">
<path opacity="0.2" d="M33.3188 14.322C66.5978 -4.774 120.569 -4.774 153.879 14.322C187.19 33.418 187.158 64.7673 153.879 84.0224C120.601 103.278 66.5978 103.278 33.3188 84.0224C0.0399017 64.7673 0.00811768 33.5772 33.3188 14.322Z" fill="black"/>
</g>
<path d="M54.2971 27.0851C66.5631 21.3039 79.9975 18.4393 93.5516 18.7147C107.106 18.4358 120.541 21.3006 132.806 27.0851C143.963 32.8139 150.097 40.6751 150.097 49.1728C150.097 57.6705 143.963 65.5317 132.806 71.2605C120.544 77.0559 107.109 79.9317 93.5516 79.6628C79.995 79.9282 66.5605 77.0526 54.2971 71.2605C43.1723 65.5317 37.006 57.7023 37.006 49.1728C37.006 40.6432 43.1723 32.8139 54.2971 27.0851Z" fill="#D6B1FF"/>
<g opacity="0.4">
<path opacity="0.4" d="M54.2971 27.0851C66.5631 21.3039 79.9975 18.4393 93.5516 18.7147C107.106 18.4358 120.541 21.3006 132.806 27.0851C143.963 32.8139 150.097 40.6751 150.097 49.1728C150.097 57.6705 143.963 65.5317 132.806 71.2605C120.544 77.0559 107.109 79.9317 93.5516 79.6628C79.995 79.9282 66.5605 77.0526 54.2971 71.2605C43.1723 65.5317 37.006 57.7023 37.006 49.1728C37.006 40.6432 43.1723 32.8139 54.2971 27.0851Z" fill="black"/>
</g>
<path d="M35.1306 17.5682C50.6735 8.62488 71.4609 3.59631 93.5515 3.59631C115.642 3.59631 136.429 8.62488 151.972 17.5682C166.88 26.1614 175.08 37.3962 175.08 49.172C175.08 60.9479 166.816 72.2782 151.972 80.8078C136.429 89.7829 115.706 94.7479 93.5515 94.7479C71.3973 94.7479 50.6735 89.7829 35.1306 80.8078C20.2552 72.1827 12.0229 60.9479 12.0229 49.172C12.0229 37.3962 20.2552 26.1614 35.1306 17.5682ZM54.2016 71.2598C66.465 77.0519 79.8995 79.9275 93.4561 79.662C107.013 79.931 120.448 77.0552 132.711 71.2598C143.867 65.531 150.002 57.7016 150.002 49.172C150.002 40.6425 143.867 32.8131 132.711 27.0843C120.446 21.2998 107.011 18.4351 93.4561 18.714C79.934 18.4533 66.534 21.3175 54.297 27.0843C43.1722 32.8131 37.0059 40.6743 37.0059 49.172C37.0059 57.6698 43.1722 65.531 54.297 71.2598H54.2016Z" fill="#D6B1FF"/>
<g opacity="0.2">
<path opacity="0.2" d="M93.5513 76.7337C63.937 76.7337 39.9299 64.3938 39.9299 49.1718C39.9299 33.9498 63.937 21.6099 93.5513 21.6099C123.166 21.6099 147.173 33.9498 147.173 49.1718C147.173 64.3938 123.166 76.7337 93.5513 76.7337Z" fill="black"/>
</g>
<path d="M93.5513 76.7337C63.937 76.7337 39.9299 64.3938 39.9299 49.1718C39.9299 33.9498 63.937 21.6099 93.5513 21.6099C123.166 21.6099 147.173 33.9498 147.173 49.1718C147.173 64.3938 123.166 76.7337 93.5513 76.7337Z" fill="#D6B1FF"/>
<g opacity="0.6">
<path opacity="0.6" d="M93.5513 76.7337C63.937 76.7337 39.9299 64.3938 39.9299 49.1718C39.9299 33.9498 63.937 21.6099 93.5513 21.6099C123.166 21.6099 147.173 33.9498 147.173 49.1718C147.173 64.3938 123.166 76.7337 93.5513 76.7337Z" fill="black"/>
</g>
<path d="M55.5682 36.9824C76.4828 26.225 110.429 26.225 131.376 36.9824C140.021 41.4381 145.107 47.0396 146.601 52.8957C145.107 58.6882 140.021 64.2578 131.376 68.809C110.429 79.5664 76.4828 79.5664 55.5682 68.809C46.8909 64.3533 41.8371 58.7837 40.3432 52.8957C41.9325 47.0396 46.9863 41.4381 55.5682 36.9824Z" fill="#D6B1FF"/>
<g opacity="0.5">
<path opacity="0.5" d="M55.5682 36.9824C76.4828 26.225 110.429 26.225 131.376 36.9824C140.021 41.4381 145.107 47.0396 146.601 52.8957C145.107 58.6882 140.021 64.2578 131.376 68.809C110.429 79.5664 76.4828 79.5664 55.5682 68.809C46.8909 64.3533 41.8371 58.7837 40.3432 52.8957C41.9325 47.0396 46.9863 41.4381 55.5682 36.9824Z" fill="black"/>
</g>
<path d="M88.466 30.1078V38.0008L91.1678 40.8333L96.1262 46.021V37.8416L88.466 30.1078Z" fill="#D6B1FF"/>
<g opacity="0.3">
<path opacity="0.3" d="M88.466 30.1078V38.0008L91.1678 40.8333L96.1262 46.021V37.8416L88.466 30.1078Z" fill="black"/>
</g>
<path d="M96.1259 37.8422V42.4889C98.603 43.4251 101.155 44.1491 103.754 44.6531C104.803 44.8674 105.884 44.8674 106.933 44.6531C107.47 44.4873 107.991 44.2742 108.49 44.0165C110.397 42.8708 110.683 41.184 107.092 39.1153C105.483 38.0782 103.657 37.4243 101.757 37.2036C99.8556 36.9829 97.9294 37.2014 96.1259 37.8422Z" fill="#D6B1FF"/>
<g opacity="0.45">
<path opacity="0.45" d="M96.1259 37.8422V42.4889C98.603 43.4251 101.155 44.1491 103.754 44.6531C104.803 44.8674 105.884 44.8674 106.933 44.6531C107.47 44.4873 107.991 44.2742 108.49 44.0165C110.397 42.8708 110.683 41.184 107.092 39.1153C105.483 38.0782 103.657 37.4243 101.757 37.2036C99.8556 36.9829 97.9294 37.2014 96.1259 37.8422Z" fill="black"/>
</g>
<path d="M60.5585 60.1837V66.9627L69.1405 71.9277L75.4975 68.2676C83.2441 71.8629 92.0922 72.263 100.131 69.3815V62.7298L96.2213 58.847L100.131 59.929C103.298 60.835 106.612 61.1073 109.885 60.7305C113.157 60.3537 116.323 59.3351 119.202 57.733C123.08 55.5052 124.86 53.0863 124.86 50.5721V43.9522L124.16 41.056L126.512 39.6874V32.8765L120.155 36.5684C121.432 37.3123 122.525 38.3332 123.356 39.5558C124.186 40.7785 124.733 42.172 124.955 43.6339C124.955 46.0845 123.08 48.4397 119.297 50.6358C110.938 55.4416 102.674 53.8184 95.0771 51.4314C88.0208 49.1081 82.8716 46.4028 78.8031 48.7579C76.2603 50.2219 77.055 51.9407 79.8838 53.6275C81.7232 54.637 83.7631 55.2262 85.8569 55.3527C87.9507 55.4793 90.0466 55.1401 91.9939 54.3594L100.067 62.7298C98.609 63.2873 97.1109 63.7342 95.5856 64.0666C88.777 65.3583 81.7358 64.5019 75.4339 61.6158L69.0769 65.3077L60.5585 60.1837Z" fill="#D6B1FF"/>
<g opacity="0.35">
<path opacity="0.35" d="M124.955 43.6347C124.955 46.0854 123.08 48.4406 119.297 50.6367C110.938 55.4425 102.674 53.8193 95.0771 51.4323C88.0209 49.109 82.8717 46.4036 78.8032 48.7588C76.2604 50.2228 77.055 51.9416 79.8839 53.6284C81.7233 54.638 83.7632 55.2271 85.857 55.3537C87.9508 55.4802 90.0466 55.141 91.994 54.3603L100.067 62.7308C98.6091 63.2883 97.111 63.7352 95.5857 64.0675C88.7771 65.3593 81.7359 64.5029 75.434 61.6168L69.077 65.3087L60.495 60.3438V67.1229L69.077 72.0879L75.434 68.4278C83.1806 72.0232 92.0287 72.4233 100.067 69.5418V62.7308L96.1578 58.8479L100.067 59.93C103.235 60.8359 106.549 61.1083 109.821 60.7315C113.093 60.3547 116.259 59.3361 119.138 57.734C123.016 55.5061 124.796 53.0872 124.796 50.5729V43.953L124.097 41.0568" fill="black"/>
</g>
<g opacity="0.45">
<path opacity="0.45" d="M126.576 32.7173V39.5283L124.256 40.897C123.264 39.1072 121.885 37.5627 120.219 36.3774L126.576 32.7173Z" fill="black"/>
</g>
<path d="M61.9253 55.7279C61.917 56.8245 62.1447 57.91 62.5928 58.9106L66.9155 56.3645C65.6192 55.805 64.4833 54.9294 63.6117 53.8175C62.74 52.7057 62.1602 51.3929 61.9253 49.9991C61.9253 51.8133 61.9253 55.5688 61.9253 55.7279Z" fill="#D6B1FF"/>
<g opacity="0.3">
<path opacity="0.3" d="M61.9253 55.7279C61.917 56.8245 62.1447 57.91 62.5928 58.9106L66.9155 56.3645C65.6192 55.805 64.4833 54.9294 63.6117 53.8175C62.74 52.7057 62.1602 51.3929 61.9253 49.9991C61.9253 51.8133 61.9253 55.5688 61.9253 55.7279Z" fill="black"/>
</g>
<path d="M125.019 59.3566L120.092 56.4922C121.546 55.8365 122.783 54.7779 123.656 53.4414C124.529 52.1048 125.002 50.5462 125.019 48.9493C125.035 48.7268 125.035 48.5034 125.019 48.2809C124.796 45.9257 123.08 43.666 119.52 41.5972C116.045 39.5847 112.091 38.551 108.077 38.6056H106.901H105.884H104.994H104.613H103.945C102.067 38.8749 100.209 39.2683 98.3829 39.7832C97.4929 40.006 96.6347 40.2606 95.7765 40.547L92.1848 41.6928L90.818 42.1702C88.3522 43.1477 85.7974 43.8832 83.1896 44.3662C82.1395 44.5659 81.0612 44.5659 80.0111 44.3662C79.4681 44.2039 78.9456 43.9795 78.4537 43.6978C76.5465 42.6157 76.2605 40.9289 79.8522 38.8283C81.4888 37.8107 83.3349 37.1789 85.2511 36.9804C87.1673 36.7819 89.1035 37.022 90.9134 37.6826L98.5418 29.9487C90.9604 27.561 82.7707 28.0134 75.4976 31.2218L69.1406 27.5617L60.4951 32.5903L66.8521 36.2504C65.5568 37.0273 64.4565 38.0911 63.6355 39.36C62.8145 40.6289 62.2948 42.0693 62.1161 43.5706C62.1161 46.0212 63.9915 48.3764 67.7739 50.5724C76.1334 55.4101 84.4292 53.7552 91.9941 51.3363C99.0504 49.0448 104.2 46.3395 108.268 48.6946C110.779 50.1587 110.016 51.8773 107.187 53.5641C105.354 54.5926 103.311 55.1902 101.213 55.3115C99.1148 55.4328 97.0167 55.0747 95.0772 54.2643L86.8767 62.7303C88.335 63.2878 89.8331 63.7346 91.3584 64.067C93.9415 64.583 96.5787 64.7754 99.2093 64.6399C103.454 64.3591 107.618 63.3357 111.51 61.6163L117.867 65.3082L126.449 60.3433L125.019 59.3566Z" fill="#D6B1FF"/>
<path d="M75.4976 61.4572V68.2678L69.1406 71.9278V65.149L75.4976 61.4572Z" fill="#D6B1FF"/>
<g opacity="0.45">
<path opacity="0.45" d="M75.4976 61.4572V68.2678L69.1406 71.9278V65.149L75.4976 61.4572Z" fill="black"/>
</g>
<path d="M126.576 32.7495L117.93 27.721L111.542 31.381L117.867 28.7395L126.576 32.7495Z" fill="#F5F5F5"/>
<path d="M107.187 38.9874C105.551 37.9698 103.705 37.3378 101.788 37.1393C99.8722 36.9409 97.936 37.181 96.126 37.8416L88.4976 30.1078L96.126 37.0459C97.9836 36.4085 99.972 36.2523 101.906 36.5917C103.84 36.9312 105.657 37.7553 107.187 38.9874Z" fill="#F5F5F5"/>
<path d="M100.067 62.7305C98.6091 63.288 97.111 63.7349 95.5857 64.0672C93.0025 64.5832 90.3653 64.7756 87.7348 64.6401C91.5357 64.6674 95.3013 63.909 98.796 62.4122L91.9304 54.6466L100.067 62.7305Z" fill="#F5F5F5"/>
<path d="M75.4976 61.4572L69.1405 64.3536L60.5586 60.1841L69.1405 65.1493L75.4976 61.4572Z" fill="#F5F5F5"/>
<path d="M151.305 18.714C128.738 4.96486 93.5515 3.59631 93.5515 3.59631C115.801 3.59631 136.429 8.56122 151.972 17.5682C166.88 26.1614 175.08 37.3962 175.08 49.172C175.08 49.172 174.285 32.6541 151.305 18.714Z" fill="#F5F5F5"/>
<path d="M100.067 98.3125C76.1333 99.3627 51.5316 94.6206 33.3188 84.0223C14.2478 73.0103 6.11082 58.0836 8.87611 43.7298C8.87611 43.7298 5.3162 67.1224 34.7491 83.1312C64.1821 99.14 100.067 98.3125 100.067 98.3125Z" fill="#F5F5F5"/>
</g>
</svg>
